<svg id="Draw_Layer" data-name="Draw Layer" xmlns="http://www.w3.org/2000/svg" viewBox="0 0 1271.06 58.93"><defs><style>.cls-1{fill:#2c2c2c;}</style></defs><title>desk-line</title><path class="cls-1" d="M914.67,91.26c-13,.12-26.1.25-39.14.46q-21,.33-42,.36c-14.09,0-28.17.07-42.26.18-13.1.11-26.19.53-39.28.86-14.11.35-28.23.64-42.34,1.06-13.52.41-27,.94-40.56,1.45-13.94.52-27.88,1.15-41.83,1.58-14.22.44-28.44.87-42.66,1.42-13.33.53-26.65,1.24-40,1.91s-26.55,1.14-39.82,1.76c-14.23.67-28.46,1.39-42.69,2s-28.21,1.11-42.31,1.72c-6.88.3-13.75.67-20.62,1s-13.46.82-20.18,1.25c-6.46.41-12.91.94-19.36,1.41-6.23.46-12.46.93-18.69,1.32-14,.88-27.9,1.76-41.84,2.78q-10.85.8-21.7,1.51c-6.69.45-13.37.81-20.06,1.19-6.3.36-12.61.71-18.91,1.13q-11.43.77-22.85,1.6c-13.73,1-27.45,2.2-41.17,3.39-6.06.52-12.13,1-18.2,1.51q-11.49,1-23,2.05c-6.13.58-12.24,1.3-18.35,2-3.23.39-6.47.75-9.7,1.18l-12,1.6c-6.29.85-12.57,1.82-18.86,2.73-6.85,1-13.71,1.94-20.57,2.87Q35,138.92,16.24,141.16c-5,.6-10,1.07-15.08,1.6-8.29.86-16.58,1.71-24.87,2.49a2.51,2.51,0,0,0-1.66.69,2.36,2.36,0,0,0-.69,1.66A2.36,2.36,0,0,0-23.71,150c12.3-1.16,24.59-2.46,36.88-3.73,3.83-.4,7.65-.89,11.48-1.34,4.43-.52,8.87-1,13.31-1.57q14.57-1.78,29.14-3.67c4.57-.59,9.13-1.27,13.7-1.91L93.29,136c6.78-.86,13.57-1.71,20.37-2.48,2.76-.31,5.51-.62,8.27-.9,3.62-.35,7.24-.77,10.87-1.08,7.41-.63,14.83-1.25,22.26-1.8,6.16-.45,12.33-.89,18.49-1.37,13.69-1.07,27.38-2.16,41.09-3q11.31-.73,22.62-1.4c6.64-.39,13.28-.71,19.93-1,6.38-.32,12.76-.61,19.14-1q10.77-.65,21.53-1.35c14.17-.94,28.35-1.76,42.52-2.57,6.38-.36,12.74-.82,19.11-1.24s12.66-.92,19-1.29c6.63-.39,13.26-.83,19.89-1.14,6.79-.32,13.59-.66,20.38-.93,14-.55,28.07-1,42.1-1.56,14.25-.54,28.49-1.2,42.74-1.83,13.62-.61,27.25-1.14,40.87-1.72,13-.55,25.94-1.3,38.91-1.78,14.49-.55,29-1,43.48-1.41,13.66-.4,27.32-1,41-1.5,13.5-.5,27-1,40.52-1.43,14.44-.42,28.88-.72,43.32-1.07,13-.32,26-.75,39-.85q21.38-.17,42.73-.17c26.72,0,53.43-.55,80.14-.8,27.5-.27,55-.36,82.49,0l22.13.28c2.71,0,5.42.08,8.13.14,3.54.08,7.07.12,10.6.26q11.23.45,22.47,1,9.82.48,19.67.84c12.8.46,25.61.9,38.42,1.08q10.65.14,21.29.38c6.69.15,13.39.39,20.09.55,6,.15,11.91.18,17.86.26,6.33.07,12.67.3,19,.58,6.73.31,13.47.6,20.21.82,3.31.11,6.63.14,10,.17q2.37,0,4.74,0l1.85,0,1.44,0a27.64,27.64,0,0,1,3.64.17c1,.15,1.9.3,2.85.48a3.87,3.87,0,0,0,2.85-.37,3.7,3.7,0,0,0-.88-6.76c-1-.25-1.91-.47-2.88-.68a41.51,41.51,0,0,0-5.58-.7c-.8-.06-1.63,0-2.44,0l-1.8,0c-3.54,0-7.09-.06-10.63-.13-6.31-.13-12.63-.4-18.93-.68-6.91-.32-13.82-.59-20.73-.73-6.54-.15-13.09-.2-19.63-.3-6.73-.11-13.45-.35-20.18-.55-6.93-.2-13.87-.29-20.82-.38-12.84-.18-25.67-.59-38.5-1.05q-10.1-.36-20.2-.86-11.22-.55-22.44-1c-6.09-.25-12.18-.34-18.27-.42l-22.66-.28Q977.3,91,958,91q-21.68,0-43.33.23Zm322.91,14.49.83.11-.83-.11Z" transform="translate(26.06 -91.03)"/></svg>