<svg id="Draw_Layer" data-name="Draw Layer" xmlns="http://www.w3.org/2000/svg" viewBox="0 0 2328.27 1337.21"><defs><style>.cls-1{fill:#2c2c2c;}</style></defs><title>resume</title><path class="cls-1" d="M2030.31,896.89q8.63-18.25,17.24-36.5c5.9-12.48,12-24.91,17.68-37.47,6.06-13.3,12.25-26.55,18.19-39.9,5.51-12.39,11-24.79,16.62-37.14,10.85-23.94,21.72-47.88,32.36-71.92l17.52-39.58c5.86-13.26,11.85-26.44,17.86-39.64,2.2-4.82,4.51-9.59,6.8-14.37,3-6.31,5.9-12.7,9-19,5.75-11.39,11.43-22.84,17.27-34.19q26.28-51.08,51.57-102.63a11.83,11.83,0,0,0,1.14-8.7,11.29,11.29,0,0,0-10.91-8.29,11.15,11.15,0,0,0-3,.4,11,11,0,0,0-6.75,5.19l-4,8.11c-.93-.74-1.86-1.48-2.81-2.2l-1.49-.7a11.91,11.91,0,0,0-6-1.63,26.4,26.4,0,0,0-3.4-.21h-.91l-3.41.09c-1.93.05-3.85.13-5.77.2-7.15.28-14.29.64-21.43,1-14.62.72-29.23,1.68-43.85,2.52-15.81.91-31.63,1.8-47.45,2.77-7.77.48-15.55.92-23.32,1.38-7.6.44-15.22.7-22.82,1s-15.26.45-22.89.65-15.06.35-22.59.52q-21.54.48-43.08,1.11-47.64,1.43-95.27,2.49c-13.7.32-27.4.8-41.1,1.2q-25.47.75-50.94,1.29c-13.38.3-26.76.52-40.13.95-17,.54-33.9,1.19-50.86,1.86-30.4,1.21-60.82,1.56-91.24,1.85s-60.77.9-91.16,1.3c-22.15.29-44.31.28-66.45.26H1409q-45.42,0-90.84.12-47.65.09-95.32.31c-29.52.18-59,.42-88.56,1.23-15.31.42-30.62.89-45.94,1.17s-30.65.5-46,.95c-30.35.89-60.7,2.14-91.06,1.6-7-.13-13.9-.2-20.84-.38-7.29-.19-14.58-.45-21.87-.56l-13.25-.2c-2.84,0-5.67,0-8.49,0-.23-.38-.46-.75-.72-1.11a12.29,12.29,0,0,0-7.65-4.64,50.19,50.19,0,0,0-9.42-.77c-3.06-.1-6.13-.19-9.2-.19h-1.83c-2.78,0-5.54.27-8.31.54-1.27.12-2.53.33-3.79.51-1.07.15-2.12.34-3.18.55a28.55,28.55,0,0,0-7.49,2.19,22.44,22.44,0,0,0-3.72,2.25,29,29,0,0,0-3.22,3.15,23.1,23.1,0,0,0-2,2.75c-.73,1.06-1.44,2.12-2.12,3.2-1.42,2.24-2.83,4.48-4.26,6.71-2.89,4.52-5.8,9-8.82,13.45-.48.7-.94,1.4-1.41,2.11-1,1.55-2.4,3.09-3,4.85a10.33,10.33,0,0,0-.35,7.44c-2.11,4.51-4.28,9-6.56,13.42-1.29,2.51-2.61,5-3.92,7.5-.71,1.35-1.39,2.73-2.06,4.11-1.31,2.35-2.61,4.69-3.91,7.05s-2.59,4.48-3.89,6.72l-6.59,11.34c-3.65,6.28-7.39,12.51-11.09,18.77-7.09,12-14,24.13-20.78,36.29-6.31,11.26-12.43,22.61-18.68,33.9-3.3,6-6.54,12-9.93,17.89L706.8,664.57c-3.62,6.34-7.2,12.71-10.8,19.06-3.1,5.47-6,11-9,16.57-2.88,5.33-5.74,10.66-8.5,16.06-3.3,6.49-6.64,13-9.93,19.49q-10,19.68-20.06,39.3Q629.89,811,611,846.77,590.6,885.41,570,923.94c-3.32,6.18-6.84,12.25-10.28,18.36-3.34,6-6.88,11.79-10.34,17.67-6.29,10.66-12.65,21.28-18.81,32q-21,36.72-41.87,73.56c-13.86,24.64-27.36,49.48-41.14,74.16q-10.68,19.13-21.27,38.31c-.81,1.48-1.55,3-2.32,4.49l-6.76,13.1c-2.87,5.55-5.81,11.07-8.59,16.66q-9.42,18.87-18.8,37.76c-6.16,12.46-12.22,25-18.74,37.24-3.17,6-6.31,12-9.55,17.9-3.52,6.44-7.09,12.86-10.56,19.34q-10.74,20.07-21.33,40.2L320,1383.18c-3,5.78-6.23,11.48-9.37,17.21-6.32,11.55-12.67,23.07-19.2,34.5-3.35,5.88-6.65,11.77-10.06,17.61q-5.81,9.93-11.53,19.88c-6.87,12-13.25,24.22-19.64,36.46q-9.74,18.6-19.77,37c-6.59,12.2-13.13,24.43-19.78,36.61-7.73,14.15-15.62,28.21-23.24,42.42-3.93,7.32-7.66,14.73-11.55,22.07-.85,1.59-1.72,3.18-2.58,4.77q-1.14,2.1-2.3,4.18a63,63,0,0,0-4,9.23,28.58,28.58,0,0,0-1.06,7c.16,1.55.4,3.08.7,4.6a12.45,12.45,0,0,0-5.64,5,12,12,0,0,0,4.3,16.42l2.87,1.21a11.91,11.91,0,0,0,6.38,0c7.83-1.31,15.67-2.54,23.51-3.78l11.61-1.28c4.21-.46,8.45-.6,12.68-.87,7.84-.5,15.72-.58,23.59-.7q23.88-.37,47.76-.42c17.16-.06,34.31-.1,51.46-.66s34.36-1.58,51.52-2.72c16.14-1.08,32.26-2.43,48.41-3.3s32-1.19,48.07-1.59c17.69-.44,35.37-1,53.06-1.5,16.17-.48,32.35-.69,48.53-.86s32.37-.14,48.56-.39,32.24-.83,48.35-1.47q50.05-2,100.1-4.13c33.32-1.46,66.65-2.61,100-3.8q26.7-.95,53.41-1.77c15.37-.48,30.74-1.11,46.08-2.14,17.82-1.2,35.64-2.36,53.48-3.24,15.88-.78,31.76-1.44,47.64-2.25,17.08-.87,34.15-2,51.22-3,16-.95,32.08-2,48.07-3.57,16.42-1.6,32.83-3.38,49.26-4.84,8.45-.76,16.9-1.55,25.36-2.16,8.7-.64,17.4-1.27,26.1-1.83,33.88-2.21,67.75-4.15,101.67-5.31,22.1-.76,44.22-.72,66.32-.68,10.72,0,21.43,0,32.15,0,15.85-.11,31.71-.2,47.54-1.19,8.67-.54,17.31-1.17,26-1.87s17-1.94,25.51-3c21.69-2.81,43.28-6.33,64.93-9.48l4.89-1c4.88-1,9.74-2,14.61-3.09h0l9.1-2,1.44-.31c3.42-.72,6.83-1.44,10.26-2.14.22,0,.45-.08.67-.12l.87-.14a11.66,11.66,0,0,1,1.27-1.77l0-.06q2.39-2.7,4.85-5.33c.62-.64,1.26-1.26,1.89-1.89l2.66-2.71,0,0c1.45-1.47,2.92-2.91,4.39-4.37.68-.68,1.36-1.39,2-2.08a10.72,10.72,0,0,0-2.6-1.07c5.57-12.9,11-25.88,16.34-38.85,10.1-23.48,20.52-46.82,30.77-70.23,11.36-25.94,22.7-51.87,34.45-77.63,5.44-11.92,10.87-23.83,16.18-35.8,5.41-12.18,10.76-24.4,16.34-36.51,10.92-23.68,22-47.26,32.79-71q34.59-76.55,69.11-153.12c22.61-50,46-99.56,69.51-149.12C2009.11,942.51,2019.57,919.63,2030.31,896.89Zm-78.38,110.86q-18.62,39.62-36.87,79.4c-10.86,23.65-21.44,47.43-32.15,71.15s-21.38,47.31-32.08,71q-17.79,39.38-36,78.56c-5.54,11.92-11.07,23.85-16.4,35.86s-10.58,23.93-16,35.84c-5.56,12.25-11.2,24.46-16.71,36.74q-8.76,19.53-17.31,39.15-13.29,30.35-26.66,60.65c-5.08,11.5-10.18,23-15,34.6q-6.29,15.09-12.61,30.18-3.86,8.87-7.77,17.7l-4.86.36c-4.63.36-9.28.68-13.88,1.24q-9.36,1.14-18.7,2.46c-19.53,2.76-39,5.82-58.55,8.61q-11.77,1.52-23.58,2.81c-8,.87-16.11,1.29-24.16,1.79-7.55.48-15.14.94-22.7,1.06q-13.08.19-26.15.29c-9.29.06-18.57,0-27.86,0h-19.33c-16.6,0-33.21,0-49.8.56-16.77.58-33.55,1.24-50.31,2.14q-25.58,1.36-51.14,3.07c-17.3,1.13-34.58,2.41-51.85,4-16.37,1.46-32.71,3.21-49.07,4.81-33.83,3.31-67.82,4.86-101.75,6.8-15.36.88-30.74,1.42-46.11,2.18-8.52.42-17,.82-25.57,1.36q-13.62.89-27.25,1.8c-15.8,1.06-31.62,1.77-47.44,2.27q-26.91.84-53.81,1.79c-32.63,1.14-65.27,2.26-97.89,3.69-33.52,1.48-67,2.8-100.55,4.16-15.93.64-31.86,1.28-47.8,1.52-16.28.25-32.57.25-48.85.41-16.51.17-33,.35-49.53.84-17.63.52-35.26,1.07-52.89,1.5-15.7.4-31.4.65-47.09,1.49q-13.87.75-27.72,1.73c-7.26.52-14.52,1.12-21.78,1.6-16.82,1.12-33.65,2.21-50.49,2.76-17.26.55-34.5.67-51.77.73-15.8,0-31.6.14-47.4.38-3.91.06-7.81.09-11.72.21-4.23.13-8.49.15-12.72.41l-13.13.84c-1.72.1-3.45.37-5.17.57l-8.8,1c-2.53.28-5,.66-7.55,1.07-.07-.12-.15-.22-.22-.33l.22-.63c2.05-4,4.35-7.94,6.48-11.94,1.75-3.31,3.5-6.61,5.23-9.93,3.17-6.09,6.34-12.18,9.59-18.23,6.29-11.74,12.85-23.33,19.23-35,6.66-12.19,13.21-24.44,19.82-36.66,7-12.87,13.89-25.76,20.68-38.73,6.12-11.69,12.14-23.44,18.71-34.89,7.38-12.86,14.85-25.66,22.18-38.54q9.45-16.57,18.58-33.34c3.27-6,6.64-11.92,9.8-18q4.92-9.36,9.82-18.72,10.65-20.33,21.48-40.54c3.3-6.17,6.68-12.28,10-18.42,3.19-5.85,6.31-11.75,9.43-17.63,6.49-12.23,12.58-24.67,18.7-37.09q9.67-19.62,19.47-39.19c2.53-5.1,5.2-10.13,7.81-15.19q5-9.78,10.08-19.56c1.26-2.45,2.67-4.84,4-7.25l7.35-13.31q4.38-8,8.82-15.87c13.79-24.77,27.29-49.69,41.13-74.43s27.71-49.13,41.69-73.62c6.2-10.87,12.58-21.63,18.88-32.43,3.5-6,7.09-11.91,10.46-18,3.46-6.24,7-12.41,10.38-18.72q20.37-38.4,40.24-77.06c12.27-23.77,24.67-47.49,36.74-71.37q10.29-20.4,20.35-40.91c5.67-11.5,11.3-23,17.2-34.38,3-5.8,6-11.63,9.07-17.37l11.16-20.52c3.71-6.83,7.46-13.64,11.19-20.46,3.12-5.73,6.11-11.53,9.15-17.31,6-11.49,11.89-23.08,17.9-34.59s11.91-22.68,18-34l.56.29c.38-.73.77-1.46,1.16-2.18l2.46-4.48c1.66-3,3.31-6.07,5-9,3.92-6.72,8-13.36,12-20,.86-1.48,1.69-3,2.61-4.45,1.83-4,3.69-8,5.64-12a27.12,27.12,0,0,1,7.58-9.59c.58-2,1.25-3.9,2-5.8a50.12,50.12,0,0,1,5.12-9.06,25.35,25.35,0,0,1,2.37-2.58l2.16-3.49a25.59,25.59,0,0,1,5.37-5c1.42-2.73,2.91-5.43,4.42-8.11,1.32-1.25,2.66-2.49,4.06-3.67,1.55-1.06,3.12-2,4.75-2.93,3-.46,6.09-.81,9.13-1.24,2.3-.34,4.61-.67,6.9-1.09l4.3-.79q2.53-.45,5.06-1a59.69,59.69,0,0,0,6.17-1.71c3.94-.08,7.89-.05,11.82.12l14.51.64c7.69.34,15.38.76,23.07,1.16,15.11.79,30.22,1.23,45.34,1.62,5.66.14,11.32.13,17,.11h6c7.69,0,15.38-.15,23.07-.25q22.56-.28,45.11-.41,23.18-.17,46.32-.43c15.32-.21,30.64-.5,46-.69,29.09-.37,58.19-.32,87.27-.29q91.48.06,183,.18,25.65,0,51.29,0c14.87,0,29.74-.25,44.61-.43,14.48-.18,29-.47,43.45-.64q24.09-.28,48.19-.48c30.64-.27,61.27-1.43,91.89-2.63,30.27-1.19,60.57-1.61,90.86-2.27,14.13-.31,28.27-.81,42.39-1.23q24.33-.7,48.65-1.24c30.85-.71,61.69-1.67,92.54-2.49,29.16-.77,58.36-1,87.49-2.67q46.93-2.73,93.86-5.49,13.4-.78,26.79-1.46c4.44-.22,8.89-.41,13.34-.61l6.51-.25c1.16,0,2.32-.09,3.5-.12,0,.18.08.37.11.55a11.23,11.23,0,0,0,3.3,5.42q-11.3,22.74-22.94,45.32c-6.3,12.13-12.62,24.25-18.82,36.44l-10.87,21.38c-3,5.92-5.78,12-8.67,18C2144,590.9,2133.48,614.46,2123,638q-17.58,39.42-35.42,78.7c-4.81,10.57-9.68,21.11-14.42,31.71q-8.46,18.9-17,37.74c-5.41,11.83-10.77,23.68-16.34,35.43Q2030.9,840.31,2022,859c-12,25.45-23.93,51-35.91,76.43C1974.77,959.57,1963.27,983.62,1951.93,1007.75Z" transform="translate(-159.31 -407.61)"/><path class="cls-1" d="M2486.81,445a24,24,0,0,0-1.15-4.54,27.36,27.36,0,0,0-1.78-4,13.89,13.89,0,0,0-4.47-4.61l-.18-.14a11.69,11.69,0,0,0-7-2.05,15.81,15.81,0,0,0-3.77.45,16.33,16.33,0,0,0-8.25,5,82.33,82.33,0,0,0-6.56,8.88c-.44.67-.89,1.33-1.33,2-1.48,2.18-3,4.38-4.41,6.58l-4.32,6.54c-1.71,2.6-3.43,5.21-5.15,7.8-5.68,8.55-11.66,17-17.8,25.62-4.63,6.5-9.5,13.28-14.9,20.7a11.24,11.24,0,0,0-5.29-1.32,11.37,11.37,0,0,0-11.35,11.35c.14,1,.27,2,.4,3a11.45,11.45,0,0,0,2.83,4.91l-3.2,4.17-1.65,2.15q-3.9,5-7.78,10.09l-2.17,2.81,1.87-2.38c-3.22,4.13-6.44,8.39-9.55,12.5l-3.8,5c-3.66,4.85-7.38,10.06-11.06,15.5-5.06,7.51-9.51,15.57-13.62,23.19a12.53,12.53,0,0,0-1.6,6.55,13.06,13.06,0,0,0-3.45,5.63c-9.59,28.71-17.27,50.6-24.92,71-1,2.67-2,5.33-3,8-3,8-6.06,16.31-9.31,24.37-4,9.93-8.3,20.36-12.76,31l-.92,2.19c-8.58,20.29-17.44,41.26-25.65,62.1-4.15,10.54-8.3,21.29-12.31,31.68-4.22,10.95-8.59,22.27-13,33.38-7.65,19.38-15.75,40.23-23.2,61.42q-2.39,6.75-4.74,13.51c-6.17,17.58-12.55,35.76-19.12,53.53l-.63,1.69c-1.49,4-3,8.11-4.46,12.17-.7,1.94-1.42,3.87-2.14,5.8-1.4,3.77-2.84,7.68-4.14,11.55l-3.43,10.25-3,8.94c-1.23,3.68-2.37,7.46-3.47,11.11-.38,1.25-.75,2.49-1.13,3.73q-2.07,6.81-4.1,13.64c-1.63,5.44-3.31,11.07-5,16.59-4,13-7.74,25-11.4,36.79-3.46,11.08-6.63,22.06-9,30.38q-2.85,10.07-5.73,20.11l-3.43,12c-3.11,10.89-6.46,22.32-10.25,35-2.67,8.92-5.67,17.91-8.57,26.61l-2.19,6.58q-2.84,8.57-5.71,17.11-2.26,6.73-4.51,13.48-1.67,5-3.32,10.07c-2.17,6.61-4.42,13.43-6.71,20.12l-1,2.93c-3.51,10.24-7.14,20.82-10.77,31.2q-1.44,4.08-2.85,8.17c-2.81,8-5.72,16.39-8.72,24.53l-.16.45c-3.68,10-7.49,20.35-11.39,30.46q-2.22,5.76-4.45,11.52c-2.38,6.15-4.77,12.31-7.12,18.47l-.32.17a12.12,12.12,0,0,0-5.52,7.18,12.58,12.58,0,0,0,.23,7.3c-2,5.22-4.6,12.1-7.08,19-3.77,10.6-7.58,21.59-11.3,32.67l-1.53,4.57c-6.62,19.71-13.47,40.09-19.86,60.24-3.58,11.31-6.91,21.61-10.16,31.47l-.9,2.71c-1.44,4.38-2.93,8.91-4.44,13.34-.54,1.57-1.07,3.15-1.6,4.72-1.31,3.9-2.66,7.94-4.11,11.86a11.88,11.88,0,0,0-.26,18.27,9.29,9.29,0,0,0-1.62.3,11.76,11.76,0,0,0-7,5.36l0,.11L1962,1682a11.85,11.85,0,0,0,0,6.2c.64,1.56,1.39,3.37,2.19,5.12a23.47,23.47,0,0,0,4.92,6.48l.56.43,1,.74a21,21,0,0,0,3.58,2.59,24.7,24.7,0,0,0,3,1.51l.31.14c3.25,1.44,7.55,3.3,11.93,4.94,7,2.61,14,5.32,21,8,6.18,2.4,12.46,4.72,19.2,7.08,2.38.83,4.83,1.6,7.2,2.34l3,.93c2.1.68,4.21,1.46,6.26,2.21l1.86.68,2.66,1.19,2.66,1.19c2.47,1.11,4.92,2.4,7.29,3.65l3.06,1.59a70.38,70.38,0,0,0,11.83,4.83l.8.17.64.13c1.55.22,3.1.43,4.66.63.54,0,1.08,0,1.61,0a26.24,26.24,0,0,0,4.88-.46c4.53-.85,8.25-2.9,10.5-5.78l1-1.31.86-1.12a23.13,23.13,0,0,0,1.29-2.59,58.53,58.53,0,0,0,2.84-7.63c1.2-3.94,2.28-8,3.33-11.92.45-1.69.9-3.37,1.36-5.06,1.55-5.66,3.17-11.36,4.55-16.19,5.73-20,12.56-41.15,21.48-66.65,3.93-11.25,7.49-21.75,10.89-32.1q2.36-7.2,4.65-14.44c2-6.4,4.16-13,6.33-19.49,8.42-25.17,15.93-47.18,23-67.29l1-2.86q3.43-9.86,6.88-19.72a11.2,11.2,0,0,0,2.55-1.09,11.71,11.71,0,0,0,5.34-6.95,11.94,11.94,0,0,0-1.71-9.76c3.67-10.61,6.87-19.94,9.78-28.53,3.68-10.86,7.41-22.07,11.39-34.27,1.85-5.68,3.64-11.48,5.37-17.09,1.55-5,3.15-10.2,4.79-15.28,3.48-10.79,7.25-22.38,11.26-34.1q1.59-4.64,3.2-9.28c2.78-8,5.65-16.35,8.31-24.57,2.52-7.82,5-15.79,7.47-23.49q1.8-5.67,3.59-11.34c4.12-13,8.41-25.76,12.05-36.56,3.06-9,5.93-18.31,8.71-27.28l2-6.5c3-9.54,5.87-19.29,8.67-28.72l1.77-5.94c4-13.36,8.35-26.84,12.59-39.87,2.89-8.89,5.87-18.08,8.71-27.15,7.8-25,15.19-47.55,22.57-69,3.5-10.17,7.66-22.18,12-34.2l3.11-8.6c2.93-8.11,6-16.49,8.85-24.77,5.32-15.22,10.43-30.8,15.38-45.86q3.66-11.14,7.35-22.28c3.5-10.48,7.46-22.36,11.2-34q1.47-4.58,2.92-9.15c2.56-8.1,5.22-16.48,8-24.64,5.88-17.09,11.44-32.83,17-48.12,2.76-7.59,6.06-16.58,9.59-25.69,2.45-6.31,5.1-12.64,7.66-18.77l.64-1.52q4-9,8.07-18c.7-1.57,1.48-3.15,2.24-4.68l1.16-2.36q3.09-6.44,6.2-12.85c2-4.11,4.15-8.2,6.25-12.16l1.2-2.28.67-1.25.63-1.21a11.4,11.4,0,0,0,2.26-1l1.18-.91,1.18-.91a11.68,11.68,0,0,0,3-5.15,27.47,27.47,0,0,0,1.41-8.41l0-.34v-.23c.89-1.61,1.77-3.24,2.66-4.85a11.94,11.94,0,0,0-2-14.3c.1-2.76.2-5.54.31-8.31.41-10.53.88-21.81,1.53-33l.12-2.12c.56-9.7,1.13-19.72,2-29.55l.12-1.38.23-2.6a9.32,9.32,0,0,0,2.71-3,10.21,10.21,0,0,0-1.33-12.13l.75-7.93.76-8.06c.93-10,1.66-20.28,2.37-30.17l.2-2.78c.26-3.69.49-7.37.71-11.06l.33-5.3C2487.6,460.37,2488,452.64,2486.81,445Zm-371,1164.32q-2.25,6.57-4.54,13.12c-2.18,6.23-4.42,12.68-6.56,19-3.8,11.3-7.37,22.53-10.6,33.36-1.82,6.13-4.21,14.23-6.49,22.49q-1.74,6.29-3.46,12.58l-.66,2.49c-.71,2.65-1.44,5.38-2.28,8-1-.29-2-.63-3.09-1.05-2.77-1.28-5.55-2.69-8.24-4.06a139.82,139.82,0,0,0-15.77-7.19c-3.6-1.28-7.32-2.61-11.07-3.81-3.94-1.26-7.65-2.5-11.33-3.79-6-2.1-12-4.45-17.83-6.72l-2.95-1.15q-4.8-1.87-9.62-3.68c-3.39-1.29-6.78-2.57-10.15-3.89l-1-.43-.41-.18a36.32,36.32,0,0,1-4.86-2.48c-.52-.87-1-1.79-1.5-2.8a12,12,0,0,0-2.07-2.6,9.84,9.84,0,0,0,2.34-.37c2.41-.66,4.07-2,6-3.71a14,14,0,0,0,3-4.51c.92-1.91,1.7-3.86,2.4-5.69.93-2.4,1.77-4.9,2.58-7.31l.75-2.22q2.82-8.28,5.6-16.59c3.59-10.74,6.85-20.72,10-30.52l2.55-8.1c2.51-8,5.11-16.2,7.8-24.25s5.39-16.11,8.1-24.16l2.81,3.34,1.23,1.48c1.14,1.35,2.31,2.76,3.53,4.08l3.67,4c.25.27.49.55.74.83.53.6,1.07,1.21,1.65,1.76l3.15,3,3.11,2.94c.65.61,1.36,1.2,2,1.77l1,.85.9.79c.62.55,1.26,1.11,1.91,1.62l2.27,1.82c2,1.58,4,3.21,6.1,4.65,2.27,1.55,4.71,3.18,7.28,4.67,2.79,1.61,5.6,3.11,7.73,4.24,5,2.63,10.1,5.21,15.19,7.67,5.5,2.65,11.32,4.87,16.95,7l2,.75c.37.1.74.18,1.11.25Zm13-39.36-1.79,5.58c-1.1,3.42-2.21,6.85-3.33,10.26-3.21-1.61-6.43-3.33-9.54-5l-2.18-1.16c-2.52-1.35-5.12-2.66-7.63-3.94l-3.67-1.86-3.23-1.64c-2.78-1.39-5.64-2.83-8.36-4.4l-3.88-2.23-2.1-1.21a39.3,39.3,0,0,1-3.58-2.41l-1.28-.91c-2.75-2.19-5.17-4.19-7.41-6.11-1.35-1.16-2.61-2.34-3.67-3.34l-1.43-1.31c-1-.89-2-1.8-2.86-2.77-.71-.77-1.43-1.53-2.14-2.29-1.82-1.94-3.7-3.94-5.44-6l-1.63-1.92q-4.71-5.57-9.43-11.14a9.13,9.13,0,0,0-3.35-2.41c1.46-4.28,3.39-9.93,5.4-15.55q1.63-4.62,3.32-9.22l2.75,3.88,8.14,11.4c2.48,3.47,5.28,6.8,8,10,.93,1.11,1.86,2.21,2.77,3.32,3.27,4,6.49,7.82,9.88,11.63,4.38,4.91,8.83,9.78,13.24,14.49,1.47,1.56,3,3.09,4.52,4.57l1.55,1.53a73.45,73.45,0,0,0,8.54,7,18,18,0,0,0,9.41,3.13c.29,0,.56,0,.84,0a16.61,16.61,0,0,0,8.44-2.64,10.6,10.6,0,0,0,2.7-2.21Zm9.25-28.18c-1.52,4.43-3.13,9.26-4.92,14.76a9.55,9.55,0,0,0-.32-1.81,11.43,11.43,0,0,0-10.82-8.27l-.7,0c-3.35-3-6.75-6.33-11-10.9-3.72-4-7.37-8-10.87-11.88s-6.09-6.93-8.49-9.84l-4.38-5.31-5.37-6.5-5.36-7.5-5.36-7.5c-2.84-4-5.71-8.08-8.79-12.55,4.26,2.94,8.81,6,13.5,9.13l3.86,2.6c2.82,1.93,5.74,3.92,8.71,5.72l16.93,10.29c3,1.81,6.05,3.55,9,5.24l4.23,2.4c1.15.66,2.34,1.3,3.49,1.9l1.63.88c.44.23.87.47,1.3.71,1.12.62,2.27,1.25,3.43,1.81l3.75,1.8,2.49,1.19a57,57,0,0,0,10.43,3.92l.26.07Q2141.4,1532,2138,1541.76Zm25.4-73.84-2,5.68-1.1,3.15q-4,11.49-8,23a6.79,6.79,0,0,0-.78,0c-.32,0-.64,0-1,0l-.34-.13-.1,0-.17-.07h0c-5.35-2.37-10.59-5.24-15.64-8l-2.13-1.17c-3.57-1.94-7.14-4-10.59-6l-3.86-2.23c-3.32-1.91-6.64-4-9.85-5.94-1.58-1-3.16-2-4.74-2.92-3.77-2.29-7.39-4.68-11.08-7.13-8.12-5.41-16.07-10.72-23.95-16.18,3.13-8.1,6.46-16.75,9.77-25.54,12.66,8.5,23.5,15.35,35.15,21.15,8.87,4.41,18.17,8.26,27.16,12l1.36.57a215.16,215.16,0,0,0,22.53,7.86Zm255.6-762-3.89,9.22-2.83,6.7c-4.12,9.87-7.87,20.08-11.49,29.95l-1.59,4.32c-4.48,12.18-8.21,22.35-11.87,33-.67,2-1.36,3.91-2,5.85-1.29,3.68-2.63,7.47-3.85,11.23l-5.78,17.76L2372.4,834c-2.71,8.36-5.52,17-8.32,25.5-6.84,20.71-14.31,43.2-22.85,68.76-3.13,9.39-6.57,18.86-9.89,28l-2.15,5.92c-4.15,11.48-8.24,22.94-12.14,34.09-7.55,21.56-15,43.79-22.63,68q-1.73,5.46-3.43,10.92c-2.14,6.86-4.36,13.95-6.64,20.89l-1.44,4.35c-3.2,9.68-6.5,19.69-9.52,29.61q-3.29,10.8-6.52,21.62c-4.72,15.73-9.6,32-14.73,47.88-2.61,8.11-5.36,16.32-8,24.26q-2.1,6.29-4.18,12.58c-2,6.13-4,12.4-5.87,18.47-1.44,4.64-2.94,9.44-4.45,14.14-3.85,11.94-7.35,22.5-10.69,32.28-1,2.77-1.91,5.55-2.87,8.32-3,8.79-6.15,17.86-9.05,26.85-2.77,8.57-5.53,17.31-8.19,25.76-4.56,14.42-9.27,29.34-14.17,43.93-3.78,11.25-7.94,23.45-12.73,37.3-3.24-1-6.64-2.08-10.41-3.34-6.81-2.26-13.55-5.09-20.07-7.82l-2-.84a275.28,275.28,0,0,1-27.64-13.91c-8.78-5.18-17.37-10.86-25.34-16.23,11.67-32.24,22.71-65.32,33.37-97.31q3.65-10.9,7.29-21.82c8-23.74,14.49-44.67,20-64,6.16-21.58,12.81-44.75,19.67-68,2-6.71,4.12-13.5,6.2-20.07,1.31-4.16,2.62-8.31,3.9-12.48,1.74-5.65,3.44-11.31,5.14-17q2-6.67,4-13.34l3-9.74,2.88-9.42c1.18-3.88,2.53-7.78,3.82-11.56.65-1.89,1.3-3.77,1.94-5.66,3.3-9.88,7-19.79,10.21-28.53,4.66-12.6,8.94-24.37,13.1-36,2.33-6.5,4.63-13.13,6.86-19.54q2.1-6,4.22-12.06l.44-1.26c3.34-9.48,6.78-19.27,10.4-28.81,4.44-11.74,9.1-23.8,13.85-35.87,6.91-17.55,14.24-36.43,22.41-57.72,7.2-18.76,15.08-37.6,22-54.21q7-16.63,14-33.26c4.4-10.44,8.52-21.19,12.5-31.59l.05-.11c3.35-8.75,6.81-18,10.87-29.12.67-1.84,1.36-3.68,2.05-5.52,1.38-3.71,2.81-7.54,4.11-11.35l.84-2.43c.34,1,.67,2,1,3,1.23,3.67,2.35,7.54,4.21,10.94a8.12,8.12,0,0,0,2,2.44l1.62,1.25a8,8,0,0,0,4,1.1,12.32,12.32,0,0,0,6.56-1.81,18,18,0,0,0,2.71-2.07c.61-.49,1.19-1,1.78-1.52.94-.8,1.81-1.68,2.67-2.56,3.1-3.18,6.09-6.45,9.05-9.76.29,2,.52,4,.84,6,.55,3.36,2.43,7,5.48,8.72a11.77,11.77,0,0,0,5.87,1.61,14.17,14.17,0,0,0,6.22-1.74,31.07,31.07,0,0,0,4.49-2.91c.22.8.45,1.6.69,2.39a31.25,31.25,0,0,0,2.84,7,12.45,12.45,0,0,0,6.75,5.2,18.47,18.47,0,0,0,3.84.65,16.77,16.77,0,0,0,4-.45,15.9,15.9,0,0,0,4-1.34C2423.79,695.1,2421.33,700.51,2419,705.94Zm-21.51-38.3.36.46a4.7,4.7,0,0,1-.35-.43Zm58.22-108.51c-.83,11.4-1.48,21.86-2,32-.46,9.17-.87,18.56-1.21,27.93q-.27,7.2-.52,14.4c-.06,1.85-.13,3.7-.19,5.55q-3.4,6.4-6.76,12.75l-.7,1.32c-1.6,3-3.23,6.11-4.82,9.22a8.67,8.67,0,0,0-1.25-.11,8.07,8.07,0,0,0-5.48,2.27c-2.8,2.47-5.63,4.91-8.55,7.25a34.75,34.75,0,0,1-3.64,2.35,83.55,83.55,0,0,0-3.61-10.51,13.14,13.14,0,0,0-4.9-5.83,11.31,11.31,0,0,0-5.58-1.35,10.75,10.75,0,0,0-5.24,1.6,25.93,25.93,0,0,0-4.57,3.61l-.25.23c-.26-1.72-.56-3.43-.88-5.14a28.36,28.36,0,0,0-1.68-5.66,8.83,8.83,0,0,0-1.19-2.52,22.19,22.19,0,0,0-1.72-2.15c-.7-.6-1.43-1.17-2.18-1.72-.82-.36-1.65-.7-2.49-1a5.37,5.37,0,0,0-2.6-.22,7.76,7.76,0,0,0-3.93,1.07,13.5,13.5,0,0,0-3.21,2.16,31.67,31.67,0,0,0-3.19,3.36c-2.3,2.56-4.59,5.11-6.95,7.61-1.44,1.53-2.88,3.05-4.36,4.54-1.29-3.87-2.52-7.75-3.79-11.62l-4-12.22c1.74-5.11,3.48-10.27,5.21-15.44a10.11,10.11,0,0,0,.42-4.15,10.27,10.27,0,0,0,1.88-2.49c3.6-6.65,7.83-14.35,12.59-21.6,3.52-5.36,7.52-11,11.89-16.74l3.78-5q3.8-5,7.6-10c4-5.12,9.18-11.87,14.41-18.71a81.53,81.53,0,0,0,11.19,4.17c8.73,2.57,17.78,3.56,27.07,4.43,2,.19,3.94.3,5.88.33Q2456,556.1,2455.73,559.13Z" transform="translate(-159.31 -407.61)"/><path class="cls-1" d="M673.33,968.4c14.67-.13,29.34.11,44,.89s29.19,1.41,43.8,1.84c14,.41,28,1,42,1.64,13,.6,26,1.41,39.08,1.5,14.28.1,28.58,0,42.85.32q22,.57,44,1.46c27.62,1.15,55.21,2.82,82.8,4.46,13.95.82,27.89,1.68,41.85,2.37,14.71.73,29.43,1.18,44.16,1.61,28.42.82,56.82,2.19,85.23,3.33,27.12,1.09,54.27.54,81.38,1.5,7,.25,14,.42,21,.91s14.12.89,21.13,1.8c.36.09.72.19,1.08.31a20.23,20.23,0,0,1,1.83,1.29,11.53,11.53,0,0,0,5.77,1.89,11.61,11.61,0,0,0,12.18-11,11.3,11.3,0,0,0-3-8.37,39.82,39.82,0,0,0-3.67-3.23,23.45,23.45,0,0,0-4.7-2.65,32.14,32.14,0,0,0-8.24-2.07c-2-.34-4.06-.51-6.09-.76-3.26-.38-6.57-.56-9.85-.78q-10.38-.74-20.77-1.08c-14.57-.51-29.13-.71-43.7-.81-13.54-.09-27.1-.2-40.63-.74-14.23-.56-28.45-1.19-42.68-1.77-14.59-.61-29.18-1.09-43.78-1.55-13.29-.41-26.59-.67-39.87-1.31-28.5-1.36-57-3.29-85.47-4.76s-57.28-2.61-86-3.17c-13.71-.27-27.42-.06-41.14,0s-27.45-.36-41.18-.78q-20.9-.63-41.8-.84c-14-.12-28-.17-42-.48-12.39-.28-24.78-.46-37.18-.46-3.82,0-7.65,0-11.48.05a10.12,10.12,0,0,0-7,2.5,9.75,9.75,0,0,0-3.2,6.73C663.84,963.24,668,968.44,673.33,968.4Z" transform="translate(-159.31 -407.61)"/><path class="cls-1" d="M1806.12,1078a114.6,114.6,0,0,0-14-4c-3.08-.76-6.16-1.48-9.24-2.2-6.75-1.59-13.51-3.11-20.27-4.64-11.08-2.51-22.21-4.91-33.37-7.06l-24.84-4.79c-5.68-1.1-11.4-2-17.12-2.93l-22.21-3.65c-6-1-12.14-1.73-18.2-2.59-25.93-3.67-51.88-7.16-77.84-10.63-2.11-.28-4.25-.43-6.36-.64l-14.64-1.46-7.33-.73c-2.77-.28-5.61-.26-8.39-.39-6.37-.3-12.75-.74-19.13-.87l-23.82-.51c-11.48-.25-23-.5-34.44-.93l-19.65-.74c-6.5-.25-13-.59-19.52-.73-27.72-.61-55.44-.89-83.16-1.25-25.6-.34-51.17-1.45-76.76-2.26-11.52-.37-23.06-.49-34.59-.68q-21-.36-41.92-.75-11.28-.21-22.58-.2c-17.78,0-35.55.32-53.32.6q-37.89.61-75.77,1.6c-27.14.71-54.28,1.24-81.43,1.86-12.84.3-25.67.59-38.51.8-12.63.21-25.26.28-37.89.51-12.34.22-24.69.79-37,1.3-12.58.52-25.15,1-37.73,1.45q-20.69.67-41.37,1.45c-12.3.47-24.61.88-36.89,1.65q-23.73,1.46-47.45,3.1c-6.65.45-13.31.73-20,1.07q-16.42.84-32.86,1.52l-3.14.26a11.69,11.69,0,0,0-5.34,2.75,11.77,11.77,0,0,0-.84,16.62c1.92,2.13,5.16,4,8.13,3.87,16.69-.67,33.37-1.53,50-2.38,6.91-.35,13.8-.92,20.7-1.39q8.29-.56,16.6-1c25.53-1.53,51.09-2.46,76.65-3.24,13-.4,25.9-.78,38.85-1.31,13.14-.53,26.29-1.08,39.44-1.48,25.93-.78,51.88-.73,77.81-1.36,25.25-.6,50.52-1,75.77-1.67,26-.67,52-1.36,77.93-1.77s52-.89,78-.69c26.87.2,53.75.84,80.62,1.35,11.58.22,23.15.66,34.72,1.09,13.43.5,26.87.88,40.31,1.23,12.77.33,25.55.33,38.33.5s25.37.25,38.06.53c12.89.28,25.76.72,38.64,1.21q21.89.82,43.76,1.37c11.24.28,22.5.28,33.74.8l23.59,1.1c1.66.08,3.32.3,5,.47l14.35,1.43c4.27.43,8.54.82,12.8,1.39l23.69,3.17c11.58,1.55,23.14,3.16,34.71,4.74,11.39,1.56,22.77,3.22,34.15,4.84,5.6.79,11.18,1.83,16.77,2.75l17.16,2.81,25,4.84c8,1.55,16,3.33,24,5s16,3.54,24,5.36c3.72.84,7.43,1.74,11.14,2.62,0,.17.07.34.1.5a12,12,0,0,0,5.06,7.33,11.61,11.61,0,0,0,9,1.65c2.49-.69,4.91-1.56,7.32-2.48a23.31,23.31,0,0,0,4.15-1.79,12,12,0,0,0,4.48-4,25.7,25.7,0,0,0,1.85-4.11,11.8,11.8,0,0,0-.73-9.24A12.36,12.36,0,0,0,1806.12,1078Z" transform="translate(-159.31 -407.61)"/><path class="cls-1" d="M1761,1135.37l-1.46-.29c-1.54-.33-3.09-.6-4.65-.79l-2.12-.32-6.57-1c-5-.75-9.93-1.43-14.9-2.07-12.46-1.63-24.92-3.1-37.4-4.53-10.9-1.25-21.84-2.22-32.77-3.21q-20-1.8-39.9-3.66c-10.06-.94-20.11-2.06-30.17-3.09-11.87-1.21-23.74-2.59-35.64-3.57l-41.59-3.41c-5.88-.49-11.8-.62-17.69-.93-4.88-.26-9.75-.53-14.63-.74q-38.28-1.65-76.56-2.7c-22.93-.65-45.84-1.49-68.76-2.3q-36.54-1.29-73.1-1.76c-22.62-.28-45.24-.75-67.87-.9q-9.62-.06-19.24-.06-10.53,0-21.07.07c-10.92.07-21.83.29-32.75.44-25.08.36-50.16.68-75.24,1.18q-69.56,1.4-139.06,4.48c-12.72.56-25.43,1.15-38.15,1.85-12.33.69-24.66,1.53-37,2.36-23.43,1.57-46.85,3.4-70.25,5.3-21,1.7-42,3.56-62.92,5.32-9.34.66-18.67,1.33-28,1.94l-2.81.23a10.52,10.52,0,0,0-5.53,17.32c1.68,1.86,4.64,3.62,7.27,3.45,26.38-1.7,52.73-3.89,79.08-6,23.14-1.88,46.31-3.31,69.48-4.82,22.46-1.45,44.94-2.82,67.44-3.69,25.33-1,50.66-2,76-2.69,23.88-.69,47.77-1.07,71.66-1.57,23-.47,46-.72,69-1q18.38-.21,36.74-.42c11.75-.12,23.52-.32,35.28-.22,25.15.22,50.29.64,75.43,1,22.7.34,45.39.57,68.07,1.39,24.74.89,49.47,1.87,74.21,2.62,22.47.67,45,1.22,67.41,2.19,13,.57,26,1.16,39,1.84,4.79.25,9.61.4,14.4.79l21.24,1.76c11.29.93,22.56,1.86,33.82,3q19.35,2,38.71,4c23.51,2.43,47.06,4.36,70.57,6.7,12.38,1.23,24.78,2.44,37.12,4.05,6.47.84,12.94,1.65,19.4,2.56,3.1.43,6.2.84,9.3,1.29,2.46.37,4.94.69,7.41,1a11.5,11.5,0,0,0,9.79,6.59,11.63,11.63,0,0,0,8.34-3l1.92-2.24a11.58,11.58,0,0,0,1.88-5.75c.7-4.3.07-9-3-12.33A20.3,20.3,0,0,0,1761,1135.37Z" transform="translate(-159.31 -407.61)"/><path class="cls-1" d="M519.93,1255.19l92.38.69q31.83.24,63.66.39c8.44,0,16.87.15,25.31,0l23-.29c4.54-.06,9.1,0,13.64-.18q35-1.23,69.93-2.74c21.3-.92,42.62-1.54,63.92-2.55,2.89-.14,5.77-.34,8.66-.53,2.52-.17,5-.49,7.51-.79a34.2,34.2,0,0,0,7.52-2.23,11.1,11.1,0,0,0,3.13-17.29,10.87,10.87,0,0,0-7.5-3.65h-.17c-5.5.13-11,.21-16.48.46q-9.12.4-18.23.77c-10.52.41-21.05.77-31.57,1.2-22.28.9-44.55,1.92-66.84,2.71l-18.38.66c-4,.14-8,.11-12.07.16-10.56.13-21.13.43-31.69.37-21.65-.11-43.31-.19-65-.36l-78-.59-31.5-.23a12.37,12.37,0,0,0-8.65,3.08,12.06,12.06,0,0,0-3.94,8.3C508.24,1248.91,513.38,1255.14,519.93,1255.19Z" transform="translate(-159.31 -407.61)"/><path class="cls-1" d="M470.47,1312.75q46.44-1.34,92.89-2.6c18.19-.51,36.37-1.09,54.56-1.3l83.28-1c7.37-.08,14.75.12,22.11.22l41.94.53c20.47.27,40.92.84,61.4.91,2,0,4.09-.11,6.13-.17s4.15-.24,6.23-.43a26.4,26.4,0,0,0,9.44-2.47c5.73-2.75,7.86-10.21,5-15.73a11.76,11.76,0,0,0-6.7-5.7l-3.07-.58a11.55,11.55,0,0,0-4.85.79c-.49.1-1,.18-1.48.24-5.94.32-11.93.12-17.86.07-5.75,0-11.51-.14-17.26-.23-11.08-.17-22.17-.42-33.25-.63-10.44-.2-20.88-.27-31.31-.41l-22.81-.28c-2.78,0-5.56-.14-8.34-.14h-1.31q-37.69.49-75.39.88c-8,.09-16,0-23.91.28q-14.19.4-28.4.78-39.75,1.1-79.51,2.21l-26.31.75-3.2.26a12,12,0,0,0-6.31,19.77C464.16,1311,467.42,1312.83,470.47,1312.75Z" transform="translate(-159.31 -407.61)"/><path class="cls-1" d="M1665,1430c-7-2.26-14.54-2.84-21.84-3.32q-9.86-.65-19.71-1.2c-13.33-.75-26.65-1.49-40-2.34-29.49-1.88-59-3.77-88.47-5.51-26-1.53-52-2.73-77.93-3.77q-43.32-1.72-86.63-3.19-81.95-2.81-163.93-4.16-41.61-.66-83.2-2c-27.4-.87-54.79-2-82.19-2.85-13-.42-26-.84-39-1.39-13.73-.58-27.44-1.31-41.16-2-26.54-1.38-53.07-2.83-79.55-5.13s-52.88-5.32-79.42-6.85c-28-1.62-56-2.48-84.08-2.93-3.75-.06-7.49-.11-11.23-.11-2.46,0-4.93,0-7.4.08-7.31.15-14.6.4-21.89.66-13.71.49-27.4,1.16-41.1,1.86-12.32.63-24.62,1.53-36.91,2.49q-21.76,1.7-43.53,3.06-24.8,1.56-49.41,5.1c-8.05,1.18-16.09,2.3-24.1,3.7-12,2.09-24.09,4.17-36.1,6.44-6,1.13-9.77,7.52-8.48,13.31a11.22,11.22,0,0,0,4.78,6.93,11.43,11.43,0,0,0,8.53,1.56c9.33-1.75,18.67-3.39,28-5,5.62-1,11.25-2,16.9-2.83l23.19-3.29c2.59-.37,5.22-.57,7.83-.85l10.38-1.1c5.76-.43,11.52-.89,17.29-1.19q11.37-.62,22.74-1.3c12.9-.77,25.78-1.95,38.69-2.67,27.3-1.52,54.62-2.83,82-3.33,6.22-.11,12.41,0,18.63.08,6.79.12,13.59.13,20.37.36,14.43.47,28.86.92,43.28,1.58,12.69.58,25.41,1.21,38.07,2.32,13.63,1.19,27.24,2.55,40.87,3.81s27.47,2.5,41.22,3.59,27.61,1.76,41.42,2.54c26.12,1.47,52.26,2.89,78.41,3.75q40.9,1.35,81.82,2.79,22.71.82,45.45,1.53c13.82.43,27.66.62,41.48.93,14.12.31,28.25.45,42.37.68,13.9.22,27.81.6,41.71.9,27.58.61,55.17,1.56,82.74,2.43,53.87,1.7,107.72,3.73,161.54,6.52,28.1,1.45,56.18,3.28,84.25,5.1,26.75,1.74,53.5,3.15,80.25,4.84,6.27.4,12.68.51,18.87,1.64a11.37,11.37,0,0,0,5.84-1.26,11.43,11.43,0,0,0-1.66-21Z" transform="translate(-159.31 -407.61)"/><path class="cls-1" d="M1500.13,1537.9a36.82,36.82,0,0,0-4-2.48c-1.3-.75-2.7-1.37-4-2.05a97,97,0,0,0-9.09-4,78.32,78.32,0,0,0-13.18-3.5c-5.14-1-10.31-1.88-15.51-2.37l-12.54-1.16c-4.35-.41-8.68-.83-13-1.06l-24.24-1.27c-24.23-1.27-48.47-2.22-72.7-3.24-23.32-1-46.64-2.1-69.95-3.14-10.69-.47-21.37-1-32.06-1.36l-43.71-1.47c-12.33-.42-24.69-.5-37-.74-11.41-.22-22.82-.32-34.23-.43q-35.5-.33-71-.8-38.85-.52-77.7-1.14c-23.88-.36-47.75-.89-71.63-1.36-11.23-.22-22.48-.67-33.71-1q-16.49-.51-33-1.19c-24.45-1-48.89-2.15-73.33-3.25q-37.85-1.71-75.71-2.95c-23.37-.79-46.75-1-70.13-1.23q-8.5-.08-17-.07c-17.57,0-35.13.26-52.68.93-11.37.43-22.73,1-34.07,1.87-12.57.93-25.08,2.2-37.61,3.5-6.17.64-12.35,1.25-18.52,1.87-2.08.21-4.15.45-6.23.68l-6.18.7c-1.11.12-2.25.2-3.35.38l-17.58,3.09c-2.23.4-4.43.81-6.64,1.3-3.76.83-7.55,1.57-11.25,2.62a8.56,8.56,0,0,0-5.08,3.51,8.27,8.27,0,0,0-1.15,6.26c.93,4.16,5.48,7.44,9.77,6.22,4.53-1.28,9.18-2.15,13.78-3.15,1.36-.3,2.76-.46,4.13-.69l8.16-1.36c1.25-.2,2.51-.38,3.77-.57,2-.29,4-.69,6-.88l12.4-1.15c11.24-.85,22.47-1.7,33.73-2.2,12.05-.54,24.11-1,36.18-1.3,22.72-.56,45.45-.84,68.17-.61q37.62.36,75.2,1.42c23.89.7,47.77,1.72,71.63,2.84q18.18.86,36.33,1.78c11.4.58,22.79,1.28,34.19,1.8l38.38,1.73c13,.59,26.12.89,39.17,1.33,23.46.79,46.94,1.15,70.4,1.66,22.51.49,45,.81,67.53,1.17,50.18.8,100.36,1.34,150.53,2.41,48,1,96.06,3.54,144.06,5.76q36,1.66,72.09,3.17c12.86.56,25.72,1.38,38.57,2.07,4.06.21,8.07.52,12.11.89,8,.75,16,1.36,23.87,2.5q1.85.27,3.66.6a101.77,101.77,0,0,1,13.81,3.76c2.25.81,4.43,1.77,6.61,2.72a35,35,0,0,1,4.83,3.06,11,11,0,0,0,5.48,1.79,11,11,0,0,0,11.58-10.45c.14-2.64-.76-6.12-2.83-7.95C1503.13,1540.37,1501.67,1539.08,1500.13,1537.9Z" transform="translate(-159.31 -407.61)"/></svg>