<svg id="Draw_Layer" data-name="Draw Layer" xmlns="http://www.w3.org/2000/svg" viewBox="0 0 1507.8 1720.54"><defs><style>.cls-1{fill:#2c2c2c;}</style></defs><title>websites</title><path class="cls-1" d="M640,758.85c0,.33.09.66.14,1,0-.39-.11-.77-.16-1.16Z" transform="translate(-576.48 -155.45)"/><path class="cls-1" d="M637.83,742.77l0,.31c0,.27.07.53.1.8l-.15-1.12Z" transform="translate(-576.48 -155.45)"/><path class="cls-1" d="M1729.56,496.16h0l0-.24c0-.1,0-.2,0-.31h0C1729.51,495.8,1729.54,496,1729.56,496.16Z" transform="translate(-576.48 -155.45)"/><path class="cls-1" d="M1872.91,1050.74l-.22-.29,0,0Z" transform="translate(-576.48 -155.45)"/><path class="cls-1" d="M1872.66,1050.41l-.07-.09.1.13,0,0-.66-.86,0,0,.52.68-.67-.87-.1-.14.79,1Z" transform="translate(-576.48 -155.45)"/><path class="cls-1" d="M1891,1035.22l.15.2-.13-.17-.31-.4Z" transform="translate(-576.48 -155.45)"/><path class="cls-1" d="M2084.11,1282.89c-.14-1.06-.28-2.12-.43-3.19a6.14,6.14,0,0,0-.8-2.66l-1.2-2.87a12.16,12.16,0,0,0-4.31-4.3,13.66,13.66,0,0,0-7-2.09c-.36,0-.74,0-1.12,0l-.59.08-.17-.33a11.94,11.94,0,0,0-6.85-5.38c-.48-.74-1-1.47-1.46-2.19-1.23-1.8-2.49-3.57-3.76-5.34-3.16-4.39-6.46-8.66-9.79-12.93-.67-.86-1.34-1.73-2-2.59a12.23,12.23,0,0,0-1.58-2l-.17-.22-2.6-3.37h0l.16.2-.18-.23a12.06,12.06,0,0,0-1.41-1.87c-12.86-17.05-25.43-34.33-37.94-51.63-6.42-8.88-12.52-18-18.73-27-5.82-8.47-11.83-16.81-17.93-25.08-6.76-9.16-13.48-18.34-20.33-27.42-7.42-9.81-15.16-19.33-23-28.81q-15.54-18.76-30.86-37.7c-.53-.76-1.15-1.49-1.87-2.41l-1.67-2.16-4.1-5.31-3.71-4.8-1-1.36-.14-.18.25.32c-1.11-1.43-2.11-3-3.17-4.42q-3.42-4.8-6.86-9.59c-2.49-3.49-5-6.93-7.46-10.48q-10.6-15.66-21.2-31.31c-3.14-4.63-6.19-9.32-9.27-14a12,12,0,0,0-3.94-13.34c0-.91.05-1.82.08-2.73.16-5.8.24-11.61.19-17.41a11.45,11.45,0,0,0-10.67-11.3c-.34-1.6-.69-3.19-1-4.79-3.77-16.45-8.67-32.59-13.65-48.71-2.47-8-4.83-16.06-7.15-24.12s-4.26-16.08-6.28-24.14c-3.87-15.42-7.68-30.89-11.15-46.41-3.82-17.08-7.38-34.23-11.11-51.35-3.34-15.28-6.61-30.58-10-45.86-3.55-16.16-7.13-32.34-9.81-48.68q-4.08-24.88-7.44-49.88L1736,545.5q-1.53-11.93-3-23.86c-.34-2.72-.68-5.45-1-8.17-.07-.61-.15-1.22-.23-1.83v-.09a12.47,12.47,0,0,0-.12-1.73c0-.15,0-.29,0-.44a12.92,12.92,0,0,0-.49-2.82c0-.17,0-.33-.07-.5a12.6,12.6,0,0,0-.38-2.81l-.63-4.63a12,12,0,0,0-.26-2.15,11.88,11.88,0,0,0-.21-2.05,13.51,13.51,0,0,0-.33-2l0-.2c0-.38-.11-.76-.17-1.16q-2-14.07-4-28.17c-1.93-15.85-3.75-31.71-5.65-47.57q-1.63-13.53-3.07-27.05c-.78-7.42-1.4-14.86-2.06-22.3-1.41-15.92-2.73-31.86-4.39-47.76-.92-8.78-1.88-17.54-2.94-26.3-.92-7.67-2-15.32-3-23-2.51-19.22-4.78-38.48-7.08-57.74.24-6.5.35-13,.06-19.51-.14-3.32-.54-6.62-1-9.91-.24-1.75-.48-3.48-.8-5.21a38.89,38.89,0,0,0-3-8.86,26,26,0,0,0-2.83-4.94l-1.87-2.42q-1.63-1.38-3.36-2.65a24.72,24.72,0,0,0-4.67-1.79,17.27,17.27,0,0,0-3.7-.44,14.6,14.6,0,0,0-1.46.08,57.07,57.07,0,0,0-10.59,2.43q-15.82,4.74-31.57,9.76c-10.94,3.5-21.75,7.34-32.58,11.15s-21.85,7.7-32.73,11.71-21.81,8-32.65,12.25q-16.5,6.43-33.13,12.5c-10.81,3.91-21.58,7.91-32.38,11.84-11.12,4.05-22.38,7.7-33.57,11.54-11,3.78-21.91,8.07-32.83,12.17-10.47,3.93-21.06,7.55-31.61,11.29-22,7.79-43.88,15.74-65.55,24.39-11,4.4-22,8.83-33.06,13.07-11.31,4.33-22.67,8.54-34,12.9-20.09,7.75-40.15,15.6-60.21,23.41-10,3.89-20,7.81-29.86,12q-16.21,6.82-32.38,13.72c-22.49,9.37-45,18.6-67.47,28.11q-16.4,7-32.76,14c-10.71,4.61-21.23,9.74-31.76,14.75-10.24,4.88-20.43,9.86-30.68,14.7q-16.1,7.6-32.14,15.28c-10.9,5.21-21.9,10.17-33,15-10.29,4.5-20.43,9.34-30.71,13.84s-20.38,8.79-30.46,13.4-20.38,9.22-30.68,13.59c-5.63,2.36-11.27,4.69-16.85,7.18q-8.7,3.88-17.34,7.92c-10.46,4.86-21,9.46-31.6,14.1-10.75,4.71-21.34,9.82-31.77,15.21-9.83,5.09-19.21,11-28.76,16.61l-8.74,5.12c-3.1,1.81-6.33,3.44-9.48,5.15-5.4,2.93-11,5.52-16.5,8.2-5.06,2.45-10.23,4.7-15.27,7.21-3.64,1.82-7.29,3.63-10.93,5.46a7.34,7.34,0,0,0-1.31.23,8.26,8.26,0,0,0-3.87,2.38c-2.47,1.25-5,2.48-7.41,3.74a7.34,7.34,0,0,0-3.23,3.38c-1.72.5-3.44,1-5.17,1.43a15.78,15.78,0,0,0-1.53.44l-1.83.77a20,20,0,0,0-2.59,1.89,23.76,23.76,0,0,0-2.18,3,22.32,22.32,0,0,0-1.65,4.27,39.51,39.51,0,0,0-1.09,7c-.16,1.63-.16,3.27-.17,4.91a210.65,210.65,0,0,0,1.15,22.74c.77,7.42,1.44,14.84,2.19,22.26.82,8.05,1.8,16.09,2.87,24.12,1.31,9.58,2.81,19.12,4.31,28.68,1.36,8.65,2.51,17.32,3.7,26,1.21,8.87,2.39,17.74,3.69,26.6,1.25,8.51,2.59,17,3.84,25.52q4,27.55,8,55.12c2.28,17.38,4.21,34.8,6.68,52.16,1.25,8.8,2.5,17.6,4,26.36,1.48,8.55,3.08,17.07,4.6,25.6,1.68,9.36,3.38,18.71,5.21,28,1.58,8.07,3.32,16.12,5,24.16,2,9.21,4.08,18.37,6.27,27.52,2,8.23,4,16.43,5.81,24.69,3.76,17.2,7.31,34.45,10.93,51.68q2.93,14,6.17,27.83c2.06,8.76,4.5,17.43,6.86,26.11,4.48,16.48,9.1,33,14.6,49.15,2.7,8,5.35,15.92,7.75,24s4.81,16.06,7.23,24.09c2.51,8.3,4.74,16.72,7,25.11,1.12,4.24,2.22,8.49,3.44,12.71s2.48,8.16,3.72,12.25c2.43,8,4.71,16.07,7.38,24,2.87,8.47,5.75,16.94,8.48,25.46,1.81,5.66,3.54,11.36,5.39,17s4,11.5,6.37,17.12c1.22,3,2.49,5.9,3.78,8.83a10.91,10.91,0,0,0-4.91,9.38,11.54,11.54,0,0,0-5.68,9.72q-.36,14.85-.64,29.71c-.09,4.53-.17,9.05-.33,13.57-.05,1.43-.12,2.86-.19,4.29a9.12,9.12,0,0,0-2.56,1.8,9.26,9.26,0,0,0-2.72,6.54,9.64,9.64,0,0,0,2.72,6.54c5.56,6.36,10.86,12.92,16.07,19.57,6.47,8.62,12.51,17.51,18.3,26.59s11.6,18.4,17.86,27.31c6.13,8.74,12.37,17.42,18.79,26,3.19,4.26,6.44,8.5,9.5,12.87s6.26,9,9.35,13.55c11.75,17.25,23.69,34.39,36.42,50.94l.06.09.54.69-.29-.37.06.08-.54-.7.11.14-.34-.45.22.3-.69-.9c.44.57.87,1.14,1.31,1.7l.18.23-.3-.38,1.5,1.93.1.13v0h0l.05.06,0,.07.05.07.06.07.16.21,1.59,2.06,0,.06.87,1.13-1.86-2.41.41.54c7,9.17,13.9,18.46,21.28,27.34,7.22,8.69,14.43,17.37,21.58,26.12,6.82,8.36,13.83,16.55,20.81,24.77,7.16,8.43,14.66,16.56,22,24.79,6.9,7.69,13.49,15.67,20.48,23.28,7.34,8,14.84,15.84,22.81,23.21,6.12,5.65,12.28,11.28,18.55,16.77,6.08,5.33,12.38,10.39,18.76,15.36l0,0a12.43,12.43,0,0,0,1.74,1.44q.45.36.93.69a13.37,13.37,0,0,0,1.24.89l.32.24.12.1c.64.48,1.27,1,1.92,1.45,1,.75,2,1.48,3,2.21,2.14,1.55,4.32,3,6.52,4.52,1,.69,2,1.38,3.09,2a25.58,25.58,0,0,0,2.43,1.41,15.94,15.94,0,0,0,12,1.12,11.21,11.21,0,0,0,3.63-1.75l1.22.09a22.21,22.21,0,0,0,2.58,0,68.22,68.22,0,0,0,10.27-1.13,123.74,123.74,0,0,0,16.07-4.34,158.11,158.11,0,0,0,16.66-6.61c4.83-2.26,9.6-4.62,14.25-7.26,4.89-2.78,9.69-5.69,14.45-8.7,8.8-5.58,17.46-11.34,26.37-16.75,9.32-5.65,18.58-11.38,28-16.88,9-5.27,18.14-10.36,27.21-15.52,9.23-5.25,18.7-10,28.09-15q14.77-7.82,29.34-16.06c9.64-5.48,19.06-11.36,28.54-17.1,9.06-5.49,18.15-11,27.31-16.28,4.72-2.75,9.46-5.47,14.31-8,5-2.6,10.09-5.1,15.19-7.54q15.09-7.2,30.16-14.42c9.52-4.58,19.07-9.17,28.42-14.11,10.06-5.32,20-10.91,29.87-16.52,18.5-10.46,37-20.88,56-30.53,9.78-5,19.63-9.84,29.29-15.06q14-7.58,27.62-15.82c9.41-5.72,18.91-11.32,28-17.53,8.88-6.06,17.63-12.32,26.67-18.15,9.24-6,18.65-11.61,28-17.4s18.65-11.59,28-17.37c18.54-11.46,36.92-23.21,55.65-34.37,9.18-5.48,18.69-10.38,28.22-15.21s18.92-9.29,28.44-13.79c19.76-9.35,39.51-18.73,59.35-27.92q15.29-7.08,30.67-13.87c9.31-3.89,18.66-7.68,28-11.59,10.09-4.25,20-8.84,30.07-13.15,9.88-4.1,19.72-8.26,29.61-12.33,9.67-4,19.48-7.69,29.28-11.36,10.11-3.78,20.31-7.32,30.4-11.13,10.55-4,21.1-8,31.55-12.22q5-2,10-4.24a11.69,11.69,0,0,0,7.54-1.47,11.74,11.74,0,0,0,4.22-16.09L2075,1339c.49-1.3,1-2.61,1.45-3.92l1.64-4.54a52.61,52.61,0,0,0,2.33-9.49c.44-2.68.77-5.39,1.15-8.08.84-5.83,1.66-11.67,2.28-17.53.28-2.62.34-5.26.45-7.88A41,41,0,0,0,2084.11,1282.89ZM692.91,1173.13v-.27c1.09,4.84,2.14,9.69,3.18,14.54l-.78-2.76C694.55,1180.79,693.74,1177,692.91,1173.13Zm1198.5-137.38-.25-.33.47.61-.62-.81-.86-1.11h0l.57.74-.57-.74h0l.89,1.15C1891.16,1035.42,1891.29,1035.58,1891.41,1035.75Zm-19.94,13.13.09.11-.72-.94Zm-17.59-23.1c1.24,1.74,2.48,3.46,3.76,5.17l.07.11-.69-.89.69.9a12.12,12.12,0,0,0,1.64,2.12l10.34,13.38-.14-.19.25.32a11.53,11.53,0,0,0,1.81,2.35l.15.19-.15-.19h0l.25.33.15.19-.4-.52h0l0,0,.41.53c.08.1.15.2.23.29l.24.32-.18-.24c13.3,17.12,27.67,33.39,41.21,50.32l6.41,8c13.06,17.31,26,34.73,38.5,52.44,6.2,8.78,12.16,17.73,18.32,26.54,6.29,9,12.84,17.75,19.31,26.58,6.24,8.52,12.39,17.12,18.76,25.54l3.16,4.16c.82,1.09,1.6,2.23,2.45,3.3a12,12,0,0,0,1,1.16l.4.51,2.38,3.08.43.6a13.07,13.07,0,0,0,1.23,1.55l.09.11.09.13h0l.07.09,1,1.26q2.17,2.77,4.33,5.57c2.42,3.24,4.81,6.5,7.12,9.81,1.16,1.66,2.3,3.34,3.44,5,.83,1.24,1.66,2.54,2.56,3.75q-4.17,2.29-8.37,4.52c-9.6,5.08-19.24,10-29.18,14.39s-20.27,8.61-30.37,13-20,9.1-29.8,14c-9.61,4.78-19,9.91-28.56,14.9-9.23,4.84-18.53,9.6-27.6,14.75q-15.2,8.64-30.26,17.52-14.13,8.3-28.46,16.23c-9.37,5.23-19,10-28.55,14.9q-15.29,7.88-30.43,16c-19.15,10.24-38.06,20.93-56.88,31.75-18.61,10.7-37.37,21.12-56.18,31.44-19.2,10.52-38.46,20.93-57.89,31-10,5.2-20.07,10.38-30.06,15.63s-19.58,10.6-29.33,16c-9.09,5-18.19,10-27.13,15.21-10,5.86-20,11.75-30.11,17.57-19,11-38.4,21.41-57.84,31.65-19.28,10.14-38.7,20-58,30.19-9.35,4.95-18.66,9.95-28.07,14.79-9.82,5-19.77,9.86-29.65,14.8q-28.87,14.48-57.22,30c-9.27,5.06-18.49,10.27-28,15-10.17,5.07-20.49,9.82-30.74,14.71-19,9-37.73,18.64-56.84,27.45-9.86,4.55-19.89,8.83-29.46,14-5.85,3.15-11.62,6.45-17.21,10.06-8,5.22-15,11.74-22.1,18.16-2.43,2.21-4.64,4.68-6.93,7q-5,5.11-9.76,10.32c-1.46-1.64-2.81-3.43-4.17-5.09-1.68-2.05-3.35-4.11-5-6.16-3.37-4.14-6.75-8.25-10.08-12.41-7.07-8.84-14-17.78-21.08-26.63-6.84-8.59-13.79-17.1-20.6-25.71-6.37-8.06-12.6-16.22-19.09-24.18-14.33-17.54-28.87-34.91-43-52.63-7.49-9.39-15-18.74-22.4-28.22l-7.8-10.08q-14-18.39-28.14-36.68c-6.24-8.2-12.43-16.42-18.46-24.77-6.6-9.15-13.25-18.26-20.06-27.24-7-9.25-13.78-18.65-20.42-28.16-6.26-9-12.28-18.08-18.33-27.18-3.13-4.73-6-9.63-9.06-14.44-2.88-4.6-5.51-9.37-8.24-14.05s-5.41-9.38-8.05-14.1a12.38,12.38,0,0,0,2.42-1.91,52.74,52.74,0,0,0,4.36-5.62,11.63,11.63,0,0,0,1.59-5.88c0-.36,0-.71,0-1.07.22.08.44.16.67.22l3.19.43a11.92,11.92,0,0,0,6.06-1.63c4.86-2.19,9.73-4.35,14.52-6.7,4-2,7.9-4.21,11.71-6.57,4-2.51,8-5.14,12.23-7.42,1.75-.95,3.52-1.83,5.33-2.66a11.38,11.38,0,0,0,2.44-1c1.87-.77,3.74-1.54,5.59-2.35a143.43,143.43,0,0,0,14.16-7.17q7.23-4.12,14.59-8c9.18-4.82,18.57-9.22,27.77-14s18.65-9.61,28-14.26c9.74-4.82,19.25-10.08,28.82-15.22,10.09-5.41,20.23-10.72,30.31-16.13,9.29-5,18.66-9.84,28-14.68q15.7-8.11,31.13-16.72c9.55-5.31,19.07-10.65,28.76-15.68s19.31-9.53,29-14.29c20.43-10.07,40.73-20.4,61.35-30.11s41.09-19,61.83-28.14c15.71-6.89,31.39-13.86,47.16-20.61,20.63-8.55,41.19-17.29,61.76-26,13-5.43,26.11-10.65,39-16.24,11.79-5.09,23.56-10.21,35.38-15.23q26-10.68,51.75-21.7l2.59-1.07a78.33,78.33,0,0,0-9.45,7.33,8.77,8.77,0,0,0-2.36,3.64,12,12,0,0,0-2.36.39c-6.14,1.7-10.33,8.52-8.38,14.77,3.22,10.28,6.45,20.56,9.84,30.79.63,1.91,1.22,3.83,2,5.69s1.56,3.73,2.5,5.53a15.53,15.53,0,0,0,5.58,5.83,18.22,18.22,0,0,0,8,2.21,18.51,18.51,0,0,0,6.14-.86,45.57,45.57,0,0,0,7.68-3.69l6.38-3.45c1.93-1,4-1.94,6-2.89,1.47-.61,3-1.21,4.45-1.75,2.84-1,5.69-2,8.57-2.82a48.31,48.31,0,0,0,6.49-2.51,26.3,26.3,0,0,0,5.54-3.85,12.06,12.06,0,0,0,1.71-1.93c1-1.3,2-2.52,2.86-3.89a42,42,0,0,0,3.57-7.66c1.66-4.23,2.22-8.76,2.78-13.23a77.3,77.3,0,0,0,.62-8.73c0-3,0-5.91-.1-8.88,0-1.43-.26-2.85-.45-4.25s-.37-3.1-.67-4.62a22.82,22.82,0,0,0-1.7-4.29,18.69,18.69,0,0,0-4.19-5.48,33.74,33.74,0,0,0-3.65-2.74,24.21,24.21,0,0,0-5.17-2.24,29.4,29.4,0,0,0-7.52-1.22q-.77-.06-1.53-.06c-1.23,0-2.46.1-3.67.21-2.15.19-4.28.5-6.4.9q7.1-3,14.15-6.18c7.28-3.27,14.51-6.66,21.81-9.89q11.91-5.25,23.89-10.34,27.54-11.47,55-23.13c17.83-7.58,35.59-15.31,53.39-22.92l3-1.2c-1.15.75-2.21,1.6-3.29,2.46a19.07,19.07,0,0,0-3.54,4.2,9.69,9.69,0,0,0-.21,9.42,9.22,9.22,0,0,0-1.16.25,10.94,10.94,0,0,0-7.55,13.3q1.4,5.58,2.81,11.16c.51,2,1,4.08,1.62,6.1a53.35,53.35,0,0,0,2.46,6.44,17.57,17.57,0,0,0,2.5,3.43,16.71,16.71,0,0,0,3.75,3c2.48,1.56,5.72,1.9,8.56,2a37,37,0,0,0,7.68-1.05c2.62-.52,5.2-1.25,7.76-2,2.87-.88,5.74-1.77,8.59-2.69,2.32-.76,4.64-1.53,6.94-2.32,4.39-1.52,8.89-3,12.94-5.24s7-5.71,9.69-9.43a25.55,25.55,0,0,0,2.47-4.72,58.58,58.58,0,0,0,2.92-7.87,106.56,106.56,0,0,0,2.81-17.14,30.25,30.25,0,0,0-.1-6.52c-.39-3.55-.95-7.13-3-10.17a16,16,0,0,0-4.87-4.89,19,19,0,0,0-5.25-2.23,21.78,21.78,0,0,0-5.52-.66,32.35,32.35,0,0,0-4.07.27,94.79,94.79,0,0,0-16.68,3.86c10.59-4,21.21-7.92,31.86-11.79,20.53-7.46,41-15.14,61.24-23.34,5.41-2.19,10.74-4.54,16.08-6.89l1.36-.63a13,13,0,0,0,1.89,1.37,12.17,12.17,0,0,0,4.72,1.55q12,18.06,24.2,36C1841.17,1008.09,1847.54,1016.92,1853.88,1025.78Zm-352.94,84.81a32.66,32.66,0,0,1,4.19-.14,56.82,56.82,0,0,1,.23,5.83c-.06,3.77-.12,7.52-.51,11.26a45.15,45.15,0,0,1-1.94,7.82,29.35,29.35,0,0,1-1.54,2.73l0,0c-.23.13-.46.26-.7.38-1.58.54-3.2,1-4.79,1.46-1.27.4-2.51.84-3.77,1.28-2.75,1-5.43,2.09-8.13,3.2a98.25,98.25,0,0,0-9.43,4.39l-3.33,1.84c-.34-1.07-.68-2.15-1-3.21-.64-1.93-1.29-3.86-1.9-5.8q-2.65-8.42-5.3-16.84a8.77,8.77,0,0,0,.92-.46c1.87-1.07,3.81-2,5.77-2.86l.86-.37C1480.48,1117.18,1490.31,1112.43,1500.94,1110.59Zm169.61-72.84a10.11,10.11,0,0,0-1.26-2.93,14.42,14.42,0,0,0,2.39-.88c1.66-.59,3.36-1.07,5-1.68l3.67-1.36c2.83-1.08,5.66-2.14,8.5-3.2,7.08-2.62,14.34-5.21,21.77-6.67-.09,1.51-.26,3-.44,4.51a67.88,67.88,0,0,1-3.2,13.06,27.77,27.77,0,0,1-1.71,3.06c-.4.44-.81.87-1.25,1.28a31.23,31.23,0,0,1-3.61,1.94c-3.43,1.38-6.88,2.7-10.37,3.9a152.69,152.69,0,0,1-15.51,4.79c-.57-2.08-1.07-4.18-1.6-6.27Q1671.74,1042.53,1670.55,1037.75Zm.77,16.36h0l-.18-.09Zm59.2-550.86h0c0-.33-.08-.66-.13-1C1730.43,502.58,1730.47,502.92,1730.52,503.25Zm-.89-6.56c0,.18,0,.37.08.56l-.08-.56Zm-.14-1.08c0,.1,0,.21,0,.31l0,.25h0l0,.14,0-.14h0l-.07-.54h0v0ZM624.57,607.24c4.74-2.35,9.55-4.54,14.36-6.75s9.46-4.39,14.19-6.6c4.93-2.3,9.73-4.86,14.56-7.35,8.91-4.61,17.57-9.67,26.47-14.28s18.15-8.78,27.41-12.77c11.67-4.83,23.38-9.53,35.05-14.32s23-9.86,34.57-14.78c11.91-4.81,23.79-9.67,35.59-14.74,10.61-4.57,21.15-9.3,31.79-13.8,10.24-4.33,20.33-9,30.51-13.43,11.37-5,22.76-9.9,34.07-15,9.82-4.47,19.51-9.26,29.27-13.86q16.4-7.71,32.74-15.52c10.63-5.09,21.23-10.23,32-15.08,11.09-5,22.27-9.81,33.47-14.56l23.17-9.81c22.81-9.44,45.65-18.8,68.36-28.48q15.8-6.63,31.68-13.06c10.39-4.19,20.91-8.09,31.36-12.16,11-4.27,21.9-8.59,32.88-12.82,11.14-4.3,22.32-8.46,33.47-12.73,22.65-8.67,45-17.95,67.75-26.47,21.93-8.22,44.11-15.78,66.15-23.7,11.06-4,22-8.29,33.06-12.29,10.75-3.89,21.64-7.39,32.42-11.17,11.06-3.87,22-8,33-12s21.76-8,32.57-12.19q32.35-12.54,65.13-24c10.94-3.82,21.85-7.72,32.86-11.36,10.33-3.41,20.76-6.55,31.17-9.72,1.84-.56,3.69-1.16,5.55-1.72.28,1,.51,2.05.73,3.09l-.17.21a12.08,12.08,0,0,0-1.63,6.06q1.27,10.47,2.53,20.94c-.12,4-.24,7.93-.31,11.9-.22,12.83-.31,25.67-.09,38.49a11.45,11.45,0,0,0,7.92,10.72q1,7.63,2.06,15.26c1.93,16.07,3.68,32.15,5.15,48.27q1.2,13.32,2.4,26.64c.67,7.57,1.24,15.16,2,22.72,1.73,16.58,3.79,33.12,5.7,49.68,2,17.54,4.21,35.05,6.72,52.52.38,2.63.75,5.25,1.13,7.88a2.54,2.54,0,0,1,0,.29,11.45,11.45,0,0,0,.14,1.55,10.49,10.49,0,0,0,.34,1.79l0,.38h0v.06h0l.06.5.27,2,0,.2c.16,1.22.33,2.44.49,3.65.09.69.16,1.3.23,1.88,0,.23,0,.46.07.69a11.75,11.75,0,0,0,.31,2.14v.09a11.9,11.9,0,0,0,.23,2s0,.08,0,.11a11.6,11.6,0,0,0,.31,2c4.24,33.71,8.59,67.41,14.09,100.93,2.68,16.33,6.22,32.51,9.77,48.67,3.37,15.35,6.65,30.71,10,46.07,3.72,17.06,7.27,34.16,11.08,51.21,3.47,15.5,7.25,30.94,11.11,46.34,2,8.16,4,16.35,6.35,24.43s4.63,16,7.08,23.93c5,16.06,9.9,32.14,13.65,48.53,1.79,7.82,3.27,15.7,4.67,23.61.53,3,1.06,6,1.6,9l-2.19,1q-7,3.18-14.11,6.21c-20.13,8.14-40.44,15.79-60.85,23.22-21.54,7.84-43,15.77-64.24,24.49-14.14,5.8-28.09,12.08-42.13,18.09q-20,8.58-40.12,17c-17.19,7.21-34.44,14.28-51.49,21.81-7.61,3.36-15.16,6.87-22.75,10.28q-11.94,5.35-24,10.47c-17.18,7-34.25,14.19-51.31,21.43-11.06,4.58-22.13,9.12-33.15,13.78-10.26,4.34-20.47,8.82-30.69,13.24-12.68,5.28-25.4,10.45-38,15.82q-17.71,7.51-35.4,15.07c-10.69,4.42-21.39,8.82-32,13.36-10.8,4.61-21.53,9.38-32.27,14.11-10.1,4.47-20.25,8.85-30.33,13.37q-15.73,7.05-31.35,14.34c-10.39,4.83-20.73,9.79-31,14.8-10,4.84-19.84,9.9-29.79,14.8-19.9,9.81-40,19.22-59.38,30.08-10.46,5.88-20.94,11.7-31.52,17.35-9.24,4.94-18.64,9.6-27.9,14.51-10.1,5.35-20.17,10.78-30.28,16.13-9.88,5.22-19.67,10.58-29.56,15.78-7.43,3.91-15,7.53-22.49,11.33-8.25,4.2-16.42,8.53-24.68,12.71-7.63,3.86-15.35,7.51-22.87,11.58-4.06,2.2-8,4.5-12.05,6.75-3.71,2.06-7.5,3.93-11.38,5.64l-1.74.72-1,.41a12.63,12.63,0,0,0-1.58.62,11.55,11.55,0,0,0-2.06.92l-1.56.68c-1.32.58-2.62,1.21-3.91,1.86-2.66,1.36-5.22,2.88-7.76,4.44-4.82,3-9.56,6.1-14.57,8.74-5.91,3.12-12,5.8-18.09,8.54-2.7,1.22-4.77,4.44-5.52,7.18-.06.23-.1.46-.15.69l-.75-3.47c-.87-4.07-1.71-8.14-2.59-12.2-1.89-8.73-3.85-17.44-5.82-26.15-3.77-16.72-7.35-33.49-11.26-50.18-4.06-17.34-8.45-34.61-12.16-52-3.84-18-7.84-36-11.83-54-3.74-16.82-7.07-33.73-11-50.5-4.14-17.56-8.45-35.08-12.2-52.73q-5.88-27.6-11.72-55.23c-1.86-8.77-3.76-17.54-5.64-26.32-1.66-7.69-3.32-15.39-4.76-23.13l-3.18-17c-.69-3.71-1.23-7.45-1.83-11.17-1.54-9.47-3-18.93-4.38-28.41-2.51-17-5-34-7.57-51-2.66-17.5-5.24-35-8.32-52.44-3.36-19-7-38-10.55-57-.64-3.44-1.16-6.91-1.71-10.37-.75-4.68-1.6-9.36-2.25-14.06-.08-.93-.25-1.87-.4-2.94.11.77.21,1.53.31,2.29l0-.24c-.1-.77-.21-1.54-.31-2.31l.15,1.12c-.1-.7-.19-1.41-.29-2.11l-.06-.48,0,.31-.54-4c-.08-1.4-.36-2.8-.56-4.2-.14-1-.27-2-.4-3,0,.21,0,.42.08.63,0-.27-.07-.54-.11-.8h0v0c-.15-1.13-.3-2.27-.46-3.41l.06.45c0-.42-.11-.83-.16-1.25l0-.29v0l-.05-.39c0,.13,0,.25.05.38,0,0,0-.09,0-.13l-.12-.83-.18-1.37h0c0-.35-.09-.7-.14-1,0,.34.09.69.14,1h0c-2.59-19.15-5.6-38.23-8.39-57.35-1.64-13.25-3.16-26.52-5-39.75-1.55-11.09-3.54-22.11-5.46-33.14ZM855.5,1674l-.17-.22.21.27.15.19Z" transform="translate(-576.48 -155.45)"/><path class="cls-1" d="M854.86,1673.14l-.06-.07.37.48Z" transform="translate(-576.48 -155.45)"/><path class="cls-1" d="M856.8,1675.66l0,0,0,0Z" transform="translate(-576.48 -155.45)"/><path class="cls-1" d="M857,1676l0,0-.18-.23Z" transform="translate(-576.48 -155.45)"/><path class="cls-1" d="M582.86,700.29c-.05-.42-.11-.84-.17-1.26,0-.21-.06-.43-.08-.64C582.69,699,582.78,699.66,582.86,700.29Z" transform="translate(-576.48 -155.45)"/><path class="cls-1" d="M891.87,1462.22c.37-2.78-.32-5.81-.73-8.51a56.79,56.79,0,0,0-4.77-14.53c-2.17-4.78-4.42-9.53-6.82-14.21s-5.1-9.65-9.78-12.6a16.93,16.93,0,0,0-9.16-2.51,24.06,24.06,0,0,0-7,1.09A47.23,47.23,0,0,0,841.7,1417c-3.7,2.43-7.32,5.13-10.77,7.9a47.08,47.08,0,0,0-3.67,3.08,40,40,0,0,0-5.49,6.74,9.67,9.67,0,0,0-1.4,6.24c-1,1.62-2,3.24-3,4.85a8.06,8.06,0,0,0-2.8-1.38,8.82,8.82,0,0,0-10.85,6.16,8.59,8.59,0,0,0,.89,6.79c6.58,9.59,12.9,19.37,18.65,29.48.59,1,1.16,2.1,1.74,3.15a28.3,28.3,0,0,0,1.63,2.69,12.52,12.52,0,0,0,3.76,3.77,11.38,11.38,0,0,0,5.79,1.81c4.24.28,8.27-1.84,11.91-3.77,1.22-.65,2.44-1.31,3.67-2q7.31-3.79,14.74-7.31c4.7-2.22,9.47-4.28,14.18-6.47a27,27,0,0,0,2.46-1.24,19.3,19.3,0,0,0,6.23-6.32C891.13,1468.48,891.45,1465.39,891.87,1462.22Zm-57.64,17.49a4.07,4.07,0,0,1-.61.08l.61-.08Zm32.39-19.19-4.33,2.37c-3.09,1.7-6.16,3.45-9.22,5.21-2.74,1.58-5.49,3.17-8.17,4.85-1.42.89-2.85,1.78-4.26,2.69-.8.52-1.59,1.06-2.39,1.6l-1.59-2.59q-2.56-4.2-5.17-8.37c-2.65-4.25-5.39-8.44-8.18-12.59,1.13-1.28,2.2-2.59,3.23-3.94a10.76,10.76,0,0,0,9.76-.47c1.91-1.12,3.8-2.22,5.66-3.42,1.5-1,2.9-2.16,4.33-3.24a99.69,99.69,0,0,1,12.05-8.33c1.1,2.14,2,4.38,3,6.52,1.34,2.86,2.67,5.73,4,8.62a65.52,65.52,0,0,1,3.1,10.11Zm3-1.62h0l.06-.14A.78.78,0,0,0,869.61,1458.9Z" transform="translate(-576.48 -155.45)"/><path class="cls-1" d="M898.25,1428.66c2.64,4.6,5,9.36,7.38,14.1,1.13,2.26,2.25,4.53,3.37,6.79a13.56,13.56,0,0,0,12.87,7.57,35.75,35.75,0,0,0,8.61-2c4.89-1.6,9.75-3.27,14.64-4.88q3.81-1.26,7.63-2.44c1.27-.39,2.53-.78,3.8-1.19a36,36,0,0,0,5.78-2.4,16.21,16.21,0,0,0,3.43-2.7,13.3,13.3,0,0,0,3-4.33,21.52,21.52,0,0,0,1.59-4.39,40.66,40.66,0,0,0,.63-4.8,25.86,25.86,0,0,0-.29-5.2c-.37-3-.87-6-1.51-9-.52-2.48-1.15-4.92-1.88-7.35-1.61-5.34-3.27-10.66-5.1-15.94-1.16-3.34-2.56-6.6-4-9.83-.26-.59-.54-1.16-.82-1.75a24.85,24.85,0,0,0-3.32-4.94,16.53,16.53,0,0,0-7.16-4.65,13,13,0,0,0-4.84-.84,32,32,0,0,0-4.88.47,33.76,33.76,0,0,0-8.52,3,53.71,53.71,0,0,0-7.1,4.08c-1.66,1.07-3.31,2.17-4.92,3.31q-3.51,2.46-6.89,5.11a18.16,18.16,0,0,0-3,2.86,10.49,10.49,0,0,0-2.1,2.9c-.47,1.09-.93,2.19-1.38,3.29a9.31,9.31,0,0,0-.5,4.34,10.17,10.17,0,0,0-2.33-1,10.65,10.65,0,0,0-8.18,1.07c-4.87,2.85-6.89,9.63-3.81,14.53C891.87,1417.79,895.12,1423.18,898.25,1428.66Zm51.39-4.39-.11.15h0Zm-27.9-19.63h0l-.12.16Zm-8.13,4.51a10.57,10.57,0,0,0,5.35-1.44,10,10,0,0,0,3.59-3.58c1-.63,2-1.24,3-1.9,1.13-.76,2.23-1.55,3.34-2.32a108.5,108.5,0,0,1,9.32-6c1.73,4.52,3.23,9.12,4.7,13.74a128.19,128.19,0,0,1,4.4,16.89c0,.23,0,.46.05.69-4,1.49-8.06,3-12.06,4.5-2.37.92-4.74,1.86-7.1,2.8-1.14.45-2.27.92-3.41,1.38-.55-1.16-1.1-2.31-1.66-3.46q-2.07-4.28-4.33-8.46-3.6-6.66-7.51-13.11A10.76,10.76,0,0,0,913.61,1409.15Z" transform="translate(-576.48 -155.45)"/><path class="cls-1" d="M1030.86,1404.66c2-.77,4-1.47,6.05-2.12,1.31-.41,2.59-.81,3.86-1.34a36.2,36.2,0,0,0,4.11-1.84c.23-.13.47-.28.71-.44a7,7,0,0,0-.3,4.39,6.77,6.77,0,0,0,3.09,4,6.46,6.46,0,0,0,5.16.68c3.29-1.25,6.64-2.34,10-3.44l4.32-1.39c.84-.28,1.68-.55,2.52-.8a52.55,52.55,0,0,1,6.64-1.59,22.58,22.58,0,0,1,2.73-.12c.4.09.8.19,1.2.32l.6.34c.23.38.45.78.66,1.18a19.07,19.07,0,0,1,.53,2c.24,2.53.31,5.06.35,7.6a76.2,76.2,0,0,1-.38,8.8,30.52,30.52,0,0,1-1.1,4.53c-.24.47-.49.91-.77,1.36l-.39.38a73.74,73.74,0,0,1-6.54,3.58c-1.54.8-3.09,1.58-4.63,2.37-3,1.56-6.16,3-9.29,4.34-.7.28-1.41.56-2.13.82-1.34-3.62-2.54-7.31-3.78-11q-2.86-8.34-5.71-16.69a8.4,8.4,0,0,0-3.71-4.82,8.09,8.09,0,0,0-11.05,2.9,7.93,7.93,0,0,0-.81,6.22c2.12,6.19,4.21,12.39,6.35,18.57,1.29,3.73,2.5,7.52,3.95,11.19a34.4,34.4,0,0,0,2.39,5.24,11,11,0,0,0,3.33,3.38,17,17,0,0,0,3.28,1.55l.75.16a10,10,0,0,0,3,.27,15.14,15.14,0,0,0,3.87-.69,54.14,54.14,0,0,0,5.68-2c5.61-2.28,11-5,16.41-7.75l3.5-1.82a32.48,32.48,0,0,0,4.24-2.56,23.29,23.29,0,0,0,2.86-2.38,20.42,20.42,0,0,0,2.78-3.79c2.33-3.85,3-8.43,3.51-12.82a61,61,0,0,0,.22-6.76,76.65,76.65,0,0,0-.68-9.21,33.16,33.16,0,0,0-1.36-6.84,23.6,23.6,0,0,0-4.5-7.74,14,14,0,0,0-3.43-2.61,19.71,19.71,0,0,0-8.53-2.51,8.27,8.27,0,0,0-1.11-.07c-.85,0-1.71.11-2.55.19a51.47,51.47,0,0,0-12,2.72c-2.09.75-4.17,1.49-6.21,2.35-2.64,1.12-5.22,2.28-7.75,3.58a24.17,24.17,0,0,0,5.43-10.86,45.64,45.64,0,0,0,.73-12.67,98.61,98.61,0,0,0-1.88-13.46c-.62-2.87-1.28-5.72-2-8.57a55.69,55.69,0,0,0-2.23-6.76c-1.18-2.91-2.21-6-4.08-8.55a28.08,28.08,0,0,0-2.75-3.39,25.81,25.81,0,0,0-3.77-2.89,21.7,21.7,0,0,0-4.42-1.91,23.05,23.05,0,0,0-5.79-1c-.54,0-1.07-.06-1.6-.06a42.3,42.3,0,0,0-6,.58c-1.77.26-3.51.62-5.25,1a85.85,85.85,0,0,0-13.13,4.94c-4,1.73-7.93,3.65-11.87,5.54q-3.55,1.71-7,3.63a61.38,61.38,0,0,0-9.44,6.82,10.89,10.89,0,0,0-2.8,4.81,10.22,10.22,0,0,0-.36,2.19,11.63,11.63,0,0,0-9.63,11.48c.14,1,.27,2.06.41,3.09a11.5,11.5,0,0,0,3,5.14c6.8,8.25,13.27,16.76,19.86,25.18,1.55,2,3.1,4,4.67,6a38.9,38.9,0,0,0,2.65,3.09,26.62,26.62,0,0,0,3.5,2.85,17,17,0,0,0,4.06,2c3.21,1.33,6.71,1,10,.48,3.49-.59,6.8-2.25,10-3.78,1.24-.59,2.47-1.18,3.7-1.79C1026.79,1406.6,1028.81,1405.61,1030.86,1404.66Zm-12.44-20.52c-3.38,1.55-6.64,3.31-10,4.89-1.6-1.82-3-3.8-4.55-5.65q-3.39-4.19-6.76-8.39c-2.85-3.6-5.69-7.2-8.56-10.78l.35-.19.06,0c4-1.62,7.93-3.29,11.81-5.16,4.74-2.29,9.47-4.62,14.29-6.74a64,64,0,0,1,11.83-3.72l.63,0a2,2,0,0,0,.1.21,94.82,94.82,0,0,1,5,19.14,54.57,54.57,0,0,1,.36,10.06c-.06.29-.14.59-.22.88l0,.07-.22.12c-1.93.67-3.9,1.23-5.83,1.92C1023.84,1381.73,1021.11,1382.91,1018.42,1384.14Z" transform="translate(-576.48 -155.45)"/><path class="cls-1" d="M1068.23,1344.49c2.25,2.42,4.38,4.88,6.49,7.42q1.85,2.41,3.65,4.85l2.09,2.79c1.42,1.89,2.85,3.79,4.46,5.54a19.68,19.68,0,0,0,8.36,4.92,25.83,25.83,0,0,0,4.82.71,14.25,14.25,0,0,0,2.53,0,42.06,42.06,0,0,0,7.39-1.14,34.59,34.59,0,0,0,4.94-1.67c2.68-1.07,5.3-2.23,7.87-3.54s5.27-2.85,7.86-4.35c2.08-1.2,4.14-2.41,6.09-3.81a39.11,39.11,0,0,0,5.33-4.44,44.23,44.23,0,0,0,4.79-6.12,31.66,31.66,0,0,0,2.43-4.47,43.14,43.14,0,0,0,2.64-7,34.6,34.6,0,0,0,.67-13.33,101.35,101.35,0,0,0-2.11-11.2A70.78,70.78,0,0,0,1146,1302c-.32-.89-.67-1.77-1-2.65a39.49,39.49,0,0,0-3.84-8.19c-.78-1-1.58-2.06-2.4-3.07a19.58,19.58,0,0,0-3.68-3,8.47,8.47,0,0,0-1.5-.84,21.18,21.18,0,0,0-4.45-1.7,22.77,22.77,0,0,0-5.5-.64,36,36,0,0,0-7.73.94,57.59,57.59,0,0,0-8.33,2.84c-3.49,1.37-6.9,3-10.28,4.57-2.37,1.13-4.67,2.38-7,3.59-3.61,1.87-7.17,3.84-10.68,5.88-2.09,1.21-4.16,2.43-6.2,3.73-.84.52-1.65,1-2.44,1.65l-1.57,1.19a28.76,28.76,0,0,0-2.32,1.8,18.3,18.3,0,0,0-2.45,3.13,10.6,10.6,0,0,0-1.45,5.39c0,.26,0,.51,0,.76a11.74,11.74,0,0,0-3.14,2.25c-4.49,4.49-4.68,12.31,0,16.77C1062.82,1339.09,1065.63,1341.7,1068.23,1344.49Zm15.26-20.11c1.39-.61,2.72-1.4,4.06-2.1,2.4-1.24,4.78-2.56,7.16-3.85,6.49-3.54,13-7.11,19.78-10.1a51.75,51.75,0,0,1,7.74-2.6,90.8,90.8,0,0,1,4.74,17,32,32,0,0,1,.11,4.38,28.67,28.67,0,0,1-.9,3.17,34.93,34.93,0,0,1-2.28,3.93,26.63,26.63,0,0,1-2.11,2.14,83.15,83.15,0,0,1-7.48,4.58c-2.9,1.62-5.79,3.25-8.81,4.65a35.71,35.71,0,0,1-5.14,1.54c-1.29-1.75-2.54-3.54-3.84-5.29-2.33-3.13-4.69-6.23-7.15-9.25a95.51,95.51,0,0,0-7.09-7.69Z" transform="translate(-576.48 -155.45)"/><path class="cls-1" d="M1162.13,1308.47c.52,1.23,1,2.47,1.59,3.7l1.07,2.33.46,1a22.08,22.08,0,0,0,3,4.18,11.78,11.78,0,0,0,3.26,2.55,13.66,13.66,0,0,0,6.58,1.7,37.31,37.31,0,0,0,4.47-.65,19.35,19.35,0,0,0,4.21-1.82c2.13-1.12,4.08-2.61,6.12-3.89a139.89,139.89,0,0,1,13.82-7.66c2.47-1.19,4.95-2.34,7.44-3.48,1.72-.7,3.45-1.38,5.21-2,3.88-1.42,7.64-2.92,10.49-6.06,4.14-4.55,5.57-10.65,5.79-16.63a71.77,71.77,0,0,0-1.2-13.25c-.31-2-.71-4-1.14-6-.63-2.86-1.26-5.7-2-8.53a88.44,88.44,0,0,0-6.6-17.29,30.35,30.35,0,0,0-5.07-7.46,19.6,19.6,0,0,0-7.45-4.45,19.37,19.37,0,0,0-6.85-1.1h-1a36.91,36.91,0,0,0-12.66,3,77.1,77.1,0,0,0-9.63,4.57c-3.18,1.82-6.32,3.65-9.4,5.64a87.16,87.16,0,0,0-11,8.62c-3.18,2.87-3.87,7.83-2.25,11.69a11.63,11.63,0,0,0-4.31.35,11.75,11.75,0,0,0-7,5.37c-.39.93-.79,1.86-1.18,2.8a11.69,11.69,0,0,0,0,6.21C1151.89,1284.1,1156.92,1296.32,1162.13,1308.47Zm12.28-46.32c3.52-2.4,7.23-4.49,10.94-6.57,4.41-2.46,8.82-5,13.42-7.14a40.65,40.65,0,0,1,5-1.65c.08.17.15.35.23.52a98.41,98.41,0,0,1,3.86,11.63c1.34,5.31,2.57,10.65,3.42,16.06a47,47,0,0,1,.31,6.91c-3,1.18-6,2.39-9,3.66s-5.84,2.72-8.73,4.12-5.86,3.07-8.72,4.72c-1,.57-2,1.15-2.93,1.75l-1.47-3.4c-1.42-3.3-2.82-6.61-4.23-9.91q-3.6-8.58-7.17-17.16l-.89-2.1A9.66,9.66,0,0,0,1174.41,1262.15Z" transform="translate(-576.48 -155.45)"/><path class="cls-1" d="M1345.67,1200.12c1.14,4.23,2.3,8.44,3.52,12.65a72,72,0,0,0,2.29,6.93,22.69,22.69,0,0,0,2.65,5.22c.68.95,1.4,1.86,2.16,2.75a14.76,14.76,0,0,0,3.24,2.52,15.21,15.21,0,0,0,7,1.92,19.08,19.08,0,0,0,6-.7,42.22,42.22,0,0,0,5.62-2.25c1.24-.53,2.45-1.1,3.68-1.64,1.66-.71,3.33-1.42,5-2l8.64-3.19c5-1.86,10.15-3.51,15.24-5.21,2.71-.91,5.44-1.72,8.08-2.84a34.39,34.39,0,0,0,4-1.84,31.55,31.55,0,0,0,3.64-2.67,21.93,21.93,0,0,0,5.09-6,30.47,30.47,0,0,0,2.81-6.74,36.45,36.45,0,0,0,1.11-7.2,52.55,52.55,0,0,0-.61-12c-1.11-8.34-3-16.55-4.79-24.75-.47-2.12-1-4.23-1.52-6.33-.13-.48-.25-1-.37-1.46a37.17,37.17,0,0,0-2.19-6c-2-4.39-6.34-7.15-10.79-8.47a17.69,17.69,0,0,0-5.06-.68,53.73,53.73,0,0,0-8.37.92,59,59,0,0,0-9.81,2.81,117,117,0,0,0-14.23,6l-7.61,3.8c-2,1-4,2.2-5.94,3.3s-3.87,2.29-5.79,3.46c-.75.45-1.42,1-2.12,1.5l-1.66,1.25c-.83.63-1.68,1.22-2.47,1.91l-.44.55-.48.63a10.5,10.5,0,0,0-1.46,1.82,10.74,10.74,0,0,0-2.76.38,11.22,11.22,0,0,0-6.7,5.15,11.57,11.57,0,0,0-1.13,8.64C1341.29,1181.55,1343.18,1190.92,1345.67,1200.12Zm25.92-30.61c2.42-1.31,4.83-2.61,7.24-3.93,5.26-2.85,10.61-5.57,16.09-8a73.63,73.63,0,0,1,11.64-3.8c.18.76.35,1.53.52,2.28q.86,3.62,1.66,7.24c1.38,6.15,2.78,12.32,3.73,18.55a46.87,46.87,0,0,1,.21,8.12,20.92,20.92,0,0,1-.6,2.23c-.09.17-.18.35-.28.51l-.25.25c-.5.31-1,.6-1.55.87-6.54,2.6-13.32,4.66-19.89,7.17l-9.06,3.46c-3.34,1.28-6.61,2.75-9.89,4.21-.28-1.06-.55-2.12-.84-3.18-.43-1.6-.87-3.19-1.29-4.8-.88-3.32-1.75-6.64-2.57-10-1.36-5.59-2.65-11.19-3.91-16.8A65.7,65.7,0,0,0,1371.59,1169.51Z" transform="translate(-576.48 -155.45)"/><path class="cls-1" d="M1808.07,984.76a17.33,17.33,0,0,0-1-3.3c-1.07-2.56-2.18-5.11-4.41-6.93a14.33,14.33,0,0,0-5.56-3.16,22.17,22.17,0,0,0-4.48-.74c-.45,0-.91,0-1.36,0a30.66,30.66,0,0,0-6.67.88,69.92,69.92,0,0,0-12.06,4.41c-1.86.81-3.71,1.66-5.53,2.56-2.55,1.25-5.13,2.47-7.64,3.81s-5.18,2.86-7.74,4.4a64.9,64.9,0,0,0-8.93,6.71c-3.5,3.08-3.9,8.82-1.64,12.69a10.54,10.54,0,0,0,6.26,4.81,6.94,6.94,0,0,0,1,.21l2.58,5.62,2.13,4.6c1.9,4.06,4.19,8.35,7.71,11.22a21.71,21.71,0,0,0,3.68,2.63,26.69,26.69,0,0,0,4.17,1.68,24.09,24.09,0,0,0,4.63.71c.78,0,1.56,0,2.35,0a65.17,65.17,0,0,0,9.5-1.31,43.07,43.07,0,0,0,8.44-2.25,32.31,32.31,0,0,0,4.46-2.06,28.42,28.42,0,0,0,3.77-2.9,12,12,0,0,0,1.64-1.78,31.71,31.71,0,0,0,2.73-3.81c2.66-4.55,3.55-9.61,4.13-14.74a55.41,55.41,0,0,0-.36-12.93C1809.33,992.08,1808.84,988.4,1808.07,984.76Zm-21.33,22.47a29.63,29.63,0,0,1-.94,3.68l-.37.68a56.1,56.1,0,0,1-8.34,1.83l-1.2.1c-1.82-3.13-3.24-6.49-4.74-9.77l-1.05-2.28c4.45-2.17,8.9-4.36,13.44-6.34,1-.41,2.08-.8,3.14-1.16A83.87,83.87,0,0,1,1786.74,1007.23Z" transform="translate(-576.48 -155.45)"/><path class="cls-1" d="M1630.38,1427c-.76-1.13-1.56-2.24-2.34-3.36-1.47-2.13-2.88-4.3-4.26-6.49a278.1,278.1,0,0,1-15-27.44c-4.75-9.75-9.25-19.62-14.59-29.07-1.32-2.33-2.82-4.57-4.34-6.77-3.62-5.21-7.56-10.25-12.52-14.26a58,58,0,0,0-6.06-4.39,39.09,39.09,0,0,0-6.72-3.06,30.88,30.88,0,0,0-7.31-1.46,33.48,33.48,0,0,0-4.22-.28c-.71,0-1.42,0-2.14.08a39.81,39.81,0,0,0-7.28,1.21,45.75,45.75,0,0,0-6.29,2.45c-1.32.57-2.62,1.15-3.91,1.79-9.74,4.81-18.81,10.92-28.1,16.53s-18.57,10.84-27.7,16.51c-4.71,2.93-9.32,6-13.95,9.09s-9.33,5.92-14.07,8.78c-4.43,2.67-8.95,5.2-13.39,7.85s-8.61,5.59-12.93,8.33c-4.87,3.07-9.76,6-14.71,9s-10,5.57-15.07,8.3c-13.08,7.08-26.61,13.33-40.11,19.57-2.69,1.25-4.75,4.42-5.51,7.18a12,12,0,0,0-.33,4.74c-.38.61-.74,1.23-1.07,1.85a28.92,28.92,0,0,0-1.86,4.28,21,21,0,0,0-.83,4.67,20.16,20.16,0,0,0,1.32,8.41c.8,2.36,1.65,4.7,2.51,7,3.75,10.33,7.67,20.59,11.58,30.86,4.15,10.9,8.78,21.65,13.49,32.32,2.12,4.79,4.29,9.61,6.8,14.21,1.4,2.56,2.83,5.08,4.33,7.58,1.34,2.24,2.93,4.35,4.48,6.44,1.77,2.4,3.58,4.76,5.5,7a46.55,46.55,0,0,0,10,8.7,35,35,0,0,0,6.51,3,26.88,26.88,0,0,0,4.74,1.32,33.41,33.41,0,0,0,7.72.68,39.11,39.11,0,0,0,8-1.35,61.27,61.27,0,0,0,9.92-3.7c2.5-1.15,5-2.37,7.38-3.66,9.24-4.92,17.89-10.84,26.49-16.77,8.78-6.06,17.65-12,26.74-17.54s18.46-10.8,27.55-16.43c9.52-5.89,18.91-12,28.35-18q13.75-8.74,27.42-17.61c9.91-6.43,19.45-13.3,28.76-20.57a85.74,85.74,0,0,0,13-12.06,39.57,39.57,0,0,0,6.57-9.93,28.17,28.17,0,0,0,2.24-6.67c.56-3.52.76-7-.43-10.45A37,37,0,0,0,1630.38,1427Zm-19.07,15.23a31,31,0,0,1-2,3.31c-4.51,5.35-10,9.72-15.46,14-4.11,3-8.21,6.06-12.44,8.9q-7.22,4.83-14.49,9.55c-9,5.85-18.1,11.6-27.17,17.38s-18,11.61-27.23,17.13-18.8,11-28,16.78-18,11.85-26.88,18a222.12,222.12,0,0,1-26.7,16c-.37.19-.75.36-1.12.54a51.89,51.89,0,0,1-7.7,2.37c-.49,0-1,0-1.47,0a28.84,28.84,0,0,1-3.3-.93,20.44,20.44,0,0,1-2.16-1.28,50.42,50.42,0,0,1-5.77-6.1c-1.89-2.55-3.75-5.11-5.39-7.83-2-3.42-3.91-6.9-5.7-10.45-3.24-6.41-6-13-8.87-19.64q-5.73-13.74-11-27.67c-1.81-4.82-3.66-9.62-5.47-14.45-.85-2.3-1.68-4.6-2.52-6.91s-1.72-4.38-2.41-6.63c.4-.65.82-1.27,1.27-1.89a46.24,46.24,0,0,1,3.88-4.28c.47-.13,1-.23,1.43-.33a44.13,44.13,0,0,1,6.9-.07,10.85,10.85,0,0,0,10.47-8,11,11,0,0,0,.34-1.87q3-1.53,6.08-3.1c10.07-5.23,20-10.69,29.75-16.48,9-5.32,17.47-11.48,26.54-16.68,4.75-2.73,9.54-5.43,14.16-8.39s9.11-5.94,13.67-8.91c9.38-6.11,19-11.75,28.68-17.43q7-4.14,14-8.41c4.38-2.69,8.71-5.47,13.19-8,3.13-1.75,6.27-3.43,9.51-4.93a30.45,30.45,0,0,1,3.75-1.11,30,30,0,0,1,3.67,0,24.33,24.33,0,0,1,2.37.63,29.93,29.93,0,0,1,3.59,2.19,52.93,52.93,0,0,1,6.51,6.71c6.14,8.38,10.65,17.79,15.14,27.12,4.7,9.77,9.46,19.5,14.66,29,2,3.71,4.32,7.29,6.58,10.86,1.19,1.86,2.43,3.68,3.68,5.49s2.51,3.52,3.56,5.39C1611.38,1442,1611.35,1442.09,1611.31,1442.2Z" transform="translate(-576.48 -155.45)"/><path class="cls-1" d="M949,1504.19a105.38,105.38,0,0,0-.54-12.68c-.21-2.46-.58-4.94-1-7.39a19.79,19.79,0,0,0-2.15-6.45c-.56-.73-1.13-1.46-1.7-2.18a26.38,26.38,0,0,0-2.18-1.74,18.33,18.33,0,0,0-4-1.83,17.09,17.09,0,0,0-3.64-.52l-.75,0a22.07,22.07,0,0,0-2.45.2,40.62,40.62,0,0,0-7.56,1.65c-2.65.8-5.23,1.86-7.81,2.88a60.22,60.22,0,0,0-10.25,5.21,7.15,7.15,0,0,0-3.24,8,7.08,7.08,0,0,0,3.24,4.22,7.44,7.44,0,0,0,5.43.71,55.87,55.87,0,0,0,8.38-2.56c4.31-1.57,8.57-3.51,13.09-4.39l.28,0c.27,2.6.43,5.22.59,7.84a89,89,0,0,1,0,13.66,29.91,29.91,0,0,1-1.2,4.83c-.27.55-.57,1.08-.89,1.6s-.74.75-1.12,1.1A73.79,73.79,0,0,1,917,1523c-1,.41-2,.84-3,1.22-.29-.59-.56-1.18-.84-1.76-.6-1.21-1.14-2.46-1.69-3.7-1.2-2.63-2.35-5.28-3.52-7.92-2.62-6-5.2-12-7.8-18a6.12,6.12,0,0,0-3.83-2.94,6.41,6.41,0,0,0-7.89,4.47c-.08.58-.16,1.14-.23,1.71a6.26,6.26,0,0,0,.88,3.24c2.59,6,5.17,12,7.8,17.94,1.17,2.64,2.32,5.29,3.53,7.92.52,1.14,1,2.29,1.57,3.42a34.25,34.25,0,0,0,2.69,5.17,9.37,9.37,0,0,0,2.92,2.89l.72.38a6.6,6.6,0,0,0,3.27.88,15.6,15.6,0,0,0,5.66-.81c1.42-.4,2.84-.81,4.23-1.28,3-1,6.07-2.11,9-3.42,1.16-.52,2.34-1,3.48-1.56.73-.36,1.46-.73,2.2-1.08a23.79,23.79,0,0,0,4.24-2.74C947.18,1521.68,948.68,1512.38,949,1504.19Z" transform="translate(-576.48 -155.45)"/><path class="cls-1" d="M958.23,1455.71a6.81,6.81,0,0,0-.71,5.41q3.45,9.39,7,18.75a67.39,67.39,0,0,0,2.93,7,17.6,17.6,0,0,0,3.07,4.24,14,14,0,0,0,2.79,2,15.49,15.49,0,0,0,4.08,1.55,26,26,0,0,0,6.29.49,40.14,40.14,0,0,0,6-.61,69.41,69.41,0,0,0,11.73-3,34,34,0,0,0,5.58-2.41,19,19,0,0,0,4.29-3.4,21,21,0,0,0,3.28-4.69,29.47,29.47,0,0,0,2.38-6.22,50.14,50.14,0,0,0,1.49-9.67c.1-1.49.26-3,.29-4.48,0-1.32.06-2.64.08-4a39.68,39.68,0,0,0-.29-5.23c-.14-1.23-.33-2.46-.55-3.68a13.63,13.63,0,0,0-1.59-4.06,20.18,20.18,0,0,0-2.18-2.88,16.34,16.34,0,0,0-1.73-1.7,22.71,22.71,0,0,0-4.71-3.25,25,25,0,0,0-11.63-2.72c-.38,0-.76,0-1.14,0-6.75.26-13.3,2.26-19.57,4.63a71.62,71.62,0,0,0-9.76,4.67,6.4,6.4,0,0,0-2.92,7.19,6.17,6.17,0,0,0,1.4,2.55,7.42,7.42,0,0,0-1.68.25A7.09,7.09,0,0,0,958.23,1455.71Zm12.3-1.58c7.49-1.77,14.61-4.89,22.21-6.24a29.78,29.78,0,0,1,5.42-.17,19.24,19.24,0,0,1,2.36.67,17.33,17.33,0,0,1,1.92,1.1,19,19,0,0,1,1.43,1.41c.08.34.15.67.21,1a83.34,83.34,0,0,1,.08,8.8c-.06,2.41-.25,4.85-.54,7.25a33.92,33.92,0,0,1-1.44,5.8,23.22,23.22,0,0,1-1.17,2.06q-.39.42-.81.81a18.47,18.47,0,0,1-1.9,1.06,59.59,59.59,0,0,1-11.65,3.24,36.26,36.26,0,0,1-5.71.16c-.23,0-.46-.11-.68-.18a21.45,21.45,0,0,1-1.21-2.27c-1.13-2.77-2.17-5.57-3.21-8.37q-2.4-6.43-4.78-12.88a8.73,8.73,0,0,0-1.8-3.08A6.94,6.94,0,0,0,970.53,1454.13Z" transform="translate(-576.48 -155.45)"/><path class="cls-1" d="M1183.36,1354.27a15.64,15.64,0,0,0-9.11-2.5,27.08,27.08,0,0,0-2.73.15,75.1,75.1,0,0,0-13.09,2.69c-4.68,1.34-9.2,3.14-13.73,4.92-2.24.88-4.43,1.84-6.63,2.83a34,34,0,0,0-10.29,6.91l-.12.12a7.37,7.37,0,0,0-5.44.73,7.16,7.16,0,0,0-3.29,4.27,7.36,7.36,0,0,0,.72,5.51c1.69,3.24,3.4,6.47,5.09,9.71a50.47,50.47,0,0,0,5.43,8.43,21.67,21.67,0,0,0,4.36,4,20.52,20.52,0,0,0,6,2.77,19.22,19.22,0,0,0,6.18.59,28.33,28.33,0,0,0,6.32-1.07,34.63,34.63,0,0,0,5.58-2.29,35.05,35.05,0,0,0,5-3,65.21,65.21,0,0,0,8.56-7.35c1.35-1.37,2.61-2.81,3.9-4.23a99,99,0,0,0,7.13-8.83,28.29,28.29,0,0,0,4.46-9.78,22.28,22.28,0,0,0,.52-3.57,12.88,12.88,0,0,0,0-2.56,11,11,0,0,0-1.3-4.54A11.54,11.54,0,0,0,1183.36,1354.27Zm-11.11,13.88a35.46,35.46,0,0,1-3.28,5.31,85.56,85.56,0,0,1-12.53,13.2,37.36,37.36,0,0,1-5.81,3.45,22.9,22.9,0,0,1-3.73,1,20.68,20.68,0,0,1-2.08,0c-.46-.1-.91-.23-1.35-.37s-.73-.39-1.08-.61a20.26,20.26,0,0,1-1.59-1.62,66.15,66.15,0,0,1-4.15-7l.41-.26a44.24,44.24,0,0,1,6.81-3.67l4.12-1.76c8-3.2,15.91-6.6,24.4-8.1Z" transform="translate(-576.48 -155.45)"/><path class="cls-1" d="M1269.13,1316.25c-.25-1.32-.46-2.65-.76-4-.94-4-1.74-8.34-3.91-11.88a14,14,0,0,0-11.91-6.31c-.4,0-.8,0-1.2.05a35.44,35.44,0,0,0-6.52,1.19A56.46,56.46,0,0,0,1238,1298c-2.39,1-4.8,2-7.16,3.11-1.1.51-2.2,1-3.27,1.59a32.53,32.53,0,0,0-4.58,3.09,18.77,18.77,0,0,0-3.37,3.84,7.8,7.8,0,0,0-1.07,4,7.89,7.89,0,0,0,1.76,5,8.4,8.4,0,0,0-2.23,1.61,8.18,8.18,0,0,0-2.51,6.07c.42,3.86.87,7.71,1.38,11.57a60.34,60.34,0,0,0,2.74,13c1.53,4.18,4.15,8.16,8.17,10.3s8.8,2.2,13.21,1.65a52.76,52.76,0,0,0,10.87-2.1,36.16,36.16,0,0,0,3.57-1.53,16.49,16.49,0,0,0,3.16-2.19,26.75,26.75,0,0,0,4.57-5,23.39,23.39,0,0,0,2.6-4.73,51,51,0,0,0,2.34-6.21,53.36,53.36,0,0,0,1.88-13.12,47.4,47.4,0,0,0-.13-5.46A50.69,50.69,0,0,0,1269.13,1316.25Zm-33.55,29.62q-.21-.15-.42-.33l.44.34Zm16.68-13.42a40.62,40.62,0,0,1-2,7.56,26.3,26.3,0,0,1-1.66,3c-.33.37-.67.72-1,1.06l-.84.46a40.17,40.17,0,0,1-6.2,1.31,30.6,30.6,0,0,1-4.28.21h0c-.1-.18-.21-.36-.31-.55a47.67,47.67,0,0,1-2-8.84q-.66-5.22-1.21-10.44c-.1-.77-.21-1.52-.31-2.29a8.49,8.49,0,0,0-2-3.6,25.24,25.24,0,0,1,4.05-2.13c2-.83,4-1.68,5.94-2.53a79.21,79.21,0,0,1,10-3.73c.33,1.32.6,2.67.9,4,.36,1.64.7,3.29,1,5A56.83,56.83,0,0,1,1252.26,1332.45Z" transform="translate(-576.48 -155.45)"/><path class="cls-1" d="M1284.38,1313.52a28.59,28.59,0,0,0,5,4,30.79,30.79,0,0,0,6.82,3.15,27.68,27.68,0,0,0,6.46,1.06,29.29,29.29,0,0,0,6.67-.45,38.19,38.19,0,0,0,12.25-4.19,41.3,41.3,0,0,0,9.11-6.71,73.82,73.82,0,0,0,8.26-9.88c1.59-2.15,3.09-4.4,4.57-6.63.69-1,1.36-2.08,2-3.14.4-.65.81-1.3,1.2-2a46.32,46.32,0,0,0,2.91-6.17,24.62,24.62,0,0,0,2.07-11.33,18.28,18.28,0,0,0-.72-3.86,25,25,0,0,0-1.51-3.49,16.56,16.56,0,0,0-2.23-3,25.36,25.36,0,0,0-3.58-3,17,17,0,0,0-5.73-2.4,34,34,0,0,0-6.44-.83l-1.26,0c-1.21,0-2.43.1-3.63.22.4-.38.79-.78,1.16-1.18a24.38,24.38,0,0,0,4.93-8.78,35.09,35.09,0,0,0,1.4-7.38,47.35,47.35,0,0,0,.34-5.32,76.75,76.75,0,0,0-.43-9.82c-.41-3.82-.85-7.63-1.42-11.43a146.14,146.14,0,0,0-3.31-15.9c-1-3.86-2.73-8.27-6-10.81a20.54,20.54,0,0,0-3.62-2.52,27.27,27.27,0,0,0-4.14-1.65,15,15,0,0,0-4.41-.61,41.06,41.06,0,0,0-6,.6c-5,.74-9.74,2.83-14.43,4.63-5.77,2.22-11.48,4.55-17.12,7.1a57.69,57.69,0,0,0-15.06,10.51,8.5,8.5,0,0,0-1.54,1.9,10.47,10.47,0,0,0-1.56.3,10.85,10.85,0,0,0-6.45,5,11.29,11.29,0,0,0-1.08,8.31c1.32,6.43,2.63,12.87,4.11,19.27,1.23,5.32,2.48,10.64,4.2,15.83a38.15,38.15,0,0,0,3.69,8.31,15,15,0,0,0,5.93,5.57,17.42,17.42,0,0,0,4.15,1.53,27.65,27.65,0,0,0,5.53.54,78.86,78.86,0,0,0,11.26-1.06c2-.24,4-.57,6-1q-2.13,1.25-4.23,2.53c-4.75,2.93-9.55,6.13-13.3,10.3a8.62,8.62,0,0,0-2.45,5.9,8.26,8.26,0,0,0,.28,2.11,9.07,9.07,0,0,0,.39,2.66q.82,2.75,1.72,5.47c.82,2.51,1.72,4.88,2.74,7.32a51.66,51.66,0,0,0,2.34,4.86A29.71,29.71,0,0,0,1284.38,1313.52Zm48.84-40.74c.35.07.68.16,1,.25v.13a29.36,29.36,0,0,1-1.25,4.13,66.69,66.69,0,0,1-5.24,8.44c-1.56,2.26-3.17,4.5-4.83,6.69a48.74,48.74,0,0,1-6.48,6.76,36.33,36.33,0,0,1-5.21,3.07,31.22,31.22,0,0,1-4.63,1.3,25.31,25.31,0,0,1-3.14,0c-.42-.1-.84-.22-1.26-.34-.57-.32-1.12-.65-1.66-1s-1-.93-1.42-1.42a37.2,37.2,0,0,1-2.62-4.9c-1.15-2.93-2.09-5.93-3-8.94.68-.4,1.36-.78,2-1.16,5.69-3.11,11.38-6.2,17.31-8.81a69.58,69.58,0,0,1,14.26-4.1A33.72,33.72,0,0,1,1333.22,1272.78ZM1285,1246.05c-1.9.43-3.83.7-5.76,1-.82.09-1.63.17-2.45.23-1.56-4.72-2.61-9.65-3.71-14.47s-2.11-9.49-3.11-14.25c.24-.12.47-.24.7-.38a58.31,58.31,0,0,1,5.38-2.79c4.28-1.72,8.59-3.41,12.89-5.09l7.91-3.08c3.52-1.37,7-2.81,10.65-3.83l.27,1.2c.42,1.87.8,3.73,1.17,5.6.48,2.48.84,5,1.2,7.46.69,6.11,1.43,12.28.93,18.42-.14.76-.31,1.52-.52,2.26l-.18.09c-2.64,1-5.35,1.91-8,2.81-3,1-5.92,1.91-8.92,2.8C1290.66,1244.83,1287.84,1245.41,1285,1246.05Z" transform="translate(-576.48 -155.45)"/><path class="cls-1" d="M1405.52,1223c-2.86,1.77-5.68,3.55-8.46,5.45-1.82,1.23-3.61,2.48-5.35,3.82a24.56,24.56,0,0,0-5.86,5.87,16.48,16.48,0,0,0-1.79,3.91,20.29,20.29,0,0,0-.63,4.19,7.12,7.12,0,0,0,.11,1.23,37.6,37.6,0,0,0-.8,6.38,78.07,78.07,0,0,0,.76,12c.5,4.17.84,8.47,2.79,12.26a16.43,16.43,0,0,0,3.27,4.4,10,10,0,0,0,2.66,1.8,12.63,12.63,0,0,0,2.43,1,21.08,21.08,0,0,0,2.11.34c-1.7.67-3.39,1.4-5,2.17a79,79,0,0,0-14.69,9.08,124.58,124.58,0,0,0-13.3,11.6,61.85,61.85,0,0,0-9,11.29,6.92,6.92,0,0,0,6,10.39,6.63,6.63,0,0,0,4.88-2l.28-.35,1.44,8.12c.52,3,1.09,5.92,1.63,8.87.51,2.77.87,5.66,2.63,8a12.68,12.68,0,0,0,3.43,3.42,13.3,13.3,0,0,0,3,1.4,9.39,9.39,0,0,0,3.87.21c-.12.12-.24.23-.35.35a7.88,7.88,0,0,0,0,11,7.66,7.66,0,0,0,5.71,2.23q.19,3.58.41,7.17a69.94,69.94,0,0,0,1.11,9.89c1,5,4.66,9.19,9,11.55a19.91,19.91,0,0,0,7.64,2.21,24.53,24.53,0,0,0,6.4-.31,32.39,32.39,0,0,0,11.37-4.44,56.22,56.22,0,0,0,5.52-3.92,37.29,37.29,0,0,0,6.94-6.27,31.22,31.22,0,0,0,3.49-5.29,43,43,0,0,0,2.44-6.07,44.91,44.91,0,0,0,2-12.56,48.8,48.8,0,0,0-.43-6.84,38,38,0,0,0-.88-5.49c-.36-1.4-.75-2.78-1.19-4.15a32,32,0,0,0-2.8-6.5,11.48,11.48,0,0,0-3.92-3.89l0,0c1.56-2,2-4.46,2.31-6.92a24.87,24.87,0,0,0-.37-7.09c-.76-5.09-2.1-10.1-3.35-15.09-.64-2.56-1.32-5.1-2-7.65a66.62,66.62,0,0,0-2.84-8.38,13.72,13.72,0,0,0-2.75-4.69,14.21,14.21,0,0,0-4.37-3.25,11.49,11.49,0,0,0-2.19-.87l7.63-1.88a100.55,100.55,0,0,0,10.27-2.82,31.81,31.81,0,0,0,5.42-2.53,30.12,30.12,0,0,0,4.93-3.85,34.82,34.82,0,0,0,4-4.92,31.1,31.1,0,0,0,3-5.44,61.88,61.88,0,0,0,5.25-24.44,44.76,44.76,0,0,0-1.31-11.87,19,19,0,0,0-2.33-5.43,22,22,0,0,0-5.61-5.54,11.4,11.4,0,0,0-2.11-1.16,19.27,19.27,0,0,0-4.08-1.39,26.4,26.4,0,0,0-5.53-.55c-.48,0-1,0-1.43,0a42.87,42.87,0,0,0-14.13,3.44A109.81,109.81,0,0,0,1405.52,1223Zm-7,47.87.18.13h0Zm.56.14,0,0h0Zm.53.49,0,0,0,0Zm13.8,25.83h0l-.61-.26A6.5,6.5,0,0,1,1413.46,1297.36Zm.09.27h0l-.37-.05Zm-28,46.51.21.27a1.39,1.39,0,0,1-.21-.27Zm40.53,21.49a41.05,41.05,0,0,1-1.87,7,27.5,27.5,0,0,1-1.8,3.17,29.28,29.28,0,0,1-3.09,2.9,51.55,51.55,0,0,1-8,5.16,24.92,24.92,0,0,1-3.06.89c-.56,0-1.11,0-1.67,0l-.56-.15-.32-.19,0,0c-.16-.62-.29-1.23-.4-1.86-.2-2.33-.28-4.68-.41-7q-.24-4-.45-8a9.54,9.54,0,0,0-1.56-5c6-3.85,12-7.8,18.55-10.74a34.23,34.23,0,0,1,3.64-1.17c.36,1.39.64,2.81.9,4.22A55.88,55.88,0,0,1,1426.13,1365.63ZM1422,1326a4.17,4.17,0,0,1-.41.53h0Zm-1.48,1.16c-.52.28-1,.54-1.59.8-5.79,2.32-11.66,4.42-17.65,6.17-5.56,1.63-11.14,3.18-16.58,5.14-.23-1.23-.45-2.46-.68-3.69q-.49-2.7-1-5.4-1.37-7.76-2.74-15.51l2.83-2.24a96.7,96.7,0,0,1,18.93-11.6,51.75,51.75,0,0,1,9.57-2.9c.67-.06,1.34-.11,2-.12a113,113,0,0,1,3,11.17c1.4,5.65,2.86,11.35,3.8,17.11C1420.5,1326.48,1420.51,1326.83,1420.51,1327.19Zm15.78-101.12a26,26,0,0,1,4.14-.08c.37.09.73.18,1.09.29s.52.31.78.47.53.5.78.77l.21.37a27.59,27.59,0,0,1,.89,3.47,53.43,53.43,0,0,1-.14,11,56.63,56.63,0,0,1-3,11.57,34.22,34.22,0,0,1-3.22,5.64,24.58,24.58,0,0,1-2.49,2.51,22.78,22.78,0,0,1-2.78,1.64,120,120,0,0,1-12.94,3.52c-5.73,1.42-11.47,2.89-17.3,3.81a24.49,24.49,0,0,1-2.84.08,27,27,0,0,1-.84-3.66,77.34,77.34,0,0,1-.86-15.42,44.24,44.24,0,0,1,1.65-6l.12-.1c2.21-1.56,4.54-3,6.79-4.51,1.33-.89,2.66-1.76,4-2.61,5.76-3.66,11.49-7.41,17.77-10.16A41.35,41.35,0,0,1,1436.29,1226.07Z" transform="translate(-576.48 -155.45)"/><path class="cls-1" d="M1480.48,1206.64a62.72,62.72,0,0,0,2.36,6.2,43.27,43.27,0,0,0,2.34,4.85,17.25,17.25,0,0,0,3.82,4.56,22.14,22.14,0,0,0,6.55,3.84,22.85,22.85,0,0,0,6.15,1.17,30,30,0,0,0,6.14-.17,124.58,124.58,0,0,0,18.43-3.82c6.07-1.63,12.33-3.42,16.53-8.42a30.71,30.71,0,0,0,3.55-5.16,38.74,38.74,0,0,0,2.56-6.22,78.22,78.22,0,0,0,2.79-11.71c.65-3.76,1.17-7.53,1.71-11.32.43-3,.86-6,1.14-8.93l.41-4.33c.13-1.43.16-2.86.2-4.29a15.91,15.91,0,0,0-.16-2.39,20.3,20.3,0,0,0-.45-3,11.53,11.53,0,0,0-1.18-2.6c-2.07-3.57-6.31-5-10.22-5h-.51c-3.93.12-7.47,1.75-11,3.39a126.21,126.21,0,0,0-13.65,7.47c-3.74,2.39-7.57,4.68-11.25,7.16-3.42,2.32-6.85,4.61-10.24,7-1.78,1.25-3.58,2.47-5.33,3.76-1,.79-2.12,1.57-3.18,2.35-1.32,1-2.6,2-3.83,3.11a10.91,10.91,0,0,0-1.61,1.85c-4,1.61-6.63,6.27-5.29,10.55C1478.36,1199.91,1479.42,1203.27,1480.48,1206.64Zm18.55-8.11a7.85,7.85,0,0,0,4.44-3.41,7.49,7.49,0,0,0,1-4.21l.65-.44c3.2-2.17,6.41-4.32,9.61-6.48s6.23-4,9.35-6c4.3-2.76,8.65-5.43,13.16-7.78,0,.45-.1.89-.14,1.34-.21,2-.54,4-.81,6,.11-.78.21-1.55.31-2.33-.39,2.6-.77,5.2-1.16,7.8a86.46,86.46,0,0,1-4,17.16,27.18,27.18,0,0,1-1.67,2.92c-.22.24-.44.47-.67.69-.53.31-1.07.6-1.63.87-2.67,1-5.49,1.58-8.22,2.31a116.83,116.83,0,0,1-12.12,2.64,35,35,0,0,1-5.12.1l-.72-.19-.65-.38-.22-.22a29.25,29.25,0,0,1-1.75-3.44c-.77-2-1.4-4-2-6l0-.11C1497.46,1199.08,1498.24,1198.81,1499,1198.53Z" transform="translate(-576.48 -155.45)"/><path class="cls-1" d="M1798.4,1054.37a29.21,29.21,0,0,0-1.4-3.49,14.43,14.43,0,0,0-2.21-3,16.91,16.91,0,0,0-1.83-1.76,25.45,25.45,0,0,0-3.12-2.25,26,26,0,0,0-4.24-1.82,25.52,25.52,0,0,0-4.82-1.1,50,50,0,0,0-6.8-.65h-.85a82.83,82.83,0,0,0-12.58,1.22c-8,1.24-16.1,3.12-23.23,7.12a76,76,0,0,0-8.88,6,46.41,46.41,0,0,0-4.94,4.24,8.23,8.23,0,0,0,0,11.53,8.15,8.15,0,0,0,5.77,2.39,8.29,8.29,0,0,0,5.76-2.39c.44-.4.87-.78,1.32-1.16.24,1.5.52,3,.87,4.44,1.11,4.6,3.83,8.62,7,12.08a31,31,0,0,0,4.82,4,28.75,28.75,0,0,0,4.77,2.55c1.69.79,3.4,1.53,5.14,2.17l-2.48.93c-3.9,1.45-7.77,3-11.57,4.67-3.46,1.55-6.83,3.29-10.22,5-2.73,1.36-5.4,2.81-8.09,4.24a68.64,68.64,0,0,0,.74-8.92,61.7,61.7,0,0,0-.29-7.32,69.07,69.07,0,0,0-1.13-8.48,14.6,14.6,0,0,0-2.28-5.54,15,15,0,0,0-2.58-2.91,13.84,13.84,0,0,0-4.51-2.64,20.22,20.22,0,0,0-6.31-1.15c-.41,0-.82,0-1.23,0a46,46,0,0,0-6.31.63,77.36,77.36,0,0,0-10.83,2.53,108,108,0,0,0-10.62,3.76c-3.69,1.49-7.26,3.21-10.86,4.9-.88.42-1.73.9-2.59,1.36-1.12.61-2.32,1.15-3.39,1.85l-3.78,2.43a41.76,41.76,0,0,0-4.44,3.54,24.78,24.78,0,0,0-3,3.32,7.78,7.78,0,0,0,4.88,13.27l2.67,7.24c1.62,4.4,3.06,8.9,4.94,13.19a34.17,34.17,0,0,0,2,4,15,15,0,0,0,5.21,5.18c2.26,1.37,4.78,1.6,7.32,1.94a17,17,0,0,0,4.25-.39c1.18-.18,2.36-.37,3.53-.61a113.68,113.68,0,0,0,11.5-3c.68-.21,1.34-.44,2-.68a8,8,0,0,0,8.6,3,8.62,8.62,0,0,0,4.81-3.69l.09-.14c.37-.41.75-.81,1.15-1.19,3.53,5.33,7,10.67,10.59,16,2.2,3.27,4.31,6.65,6.69,9.79a30.56,30.56,0,0,0,3.91,4.66,12.08,12.08,0,0,0,4.73,2.76,21.26,21.26,0,0,0,3.82.6c2.5.27,5.25-.89,7.4-2a14.39,14.39,0,0,0,1.83-1.29c1.32-1,2.65-2,3.95-3,3.06-2.44,5.93-5.19,8.86-7.79,1.91-1.7,3.79-3.43,5.69-5.15s3.62-3.3,5.41-5c4.12-3.82,8.51-7.52,11.23-12.53,2.31-4.25,3.49-8.91,4.59-13.58.27-1.12.48-2.31.64-3.45.34-2.52.79-5,.91-7.57a14.43,14.43,0,0,0-1.58-7.53,18.61,18.61,0,0,0-2.08-3,12.52,12.52,0,0,0-2.68-2.42,14.45,14.45,0,0,0-4.38-2.12,27.15,27.15,0,0,0,6-6.23,43.11,43.11,0,0,0,5.16-10.09,39.53,39.53,0,0,0,2.46-12.55,29.39,29.39,0,0,0-.23-5A28.17,28.17,0,0,0,1798.4,1054.37Zm-89.22,34.19-.36-.28a4.22,4.22,0,0,1,.36.27Zm-.12-.48v0l-.33-.43C1708.85,1087.81,1709,1087.94,1709.06,1088.08Zm-26.21,35.5h0Zm7.44-2.46c-2.5.56-5,1.17-7.53,1.6-.1-.2-.19-.4-.29-.61-1.27-3.31-2.38-6.71-3.6-10l-3.81-10.36,1.72-.84c3.73-1.84,7.48-3.64,11.29-5.29a95,95,0,0,1,19.13-5.83c.74-.06,1.48-.1,2.22-.1,0,.26.1.51.14.77a68,68,0,0,1,.15,14.26,36.28,36.28,0,0,1-1.63,6.43,24.81,24.81,0,0,1-1.66,2.93,22.07,22.07,0,0,1-1.63,1.58,33.52,33.52,0,0,1-4.61,2.48A66.79,66.79,0,0,1,1690.29,1121.12Zm66.16-48.86a21,21,0,0,1-1.33-2.17,37.52,37.52,0,0,1-1.29-6c-.07-.69-.13-1.37-.2-2.06l-.21-1.55c.9-.24,1.8-.46,2.71-.66,3.29-.74,6.62-1.38,9.95-1.89a52.28,52.28,0,0,1,11.11-.34,26.86,26.86,0,0,1,3.77.9c.25.13.49.27.72.41l.15.14,0,.15a32.35,32.35,0,0,1-.12,3.94,29.27,29.27,0,0,1-5.13,12.59,17.34,17.34,0,0,1-1.32,1.39l-.82.46a25.07,25.07,0,0,1-3.19.76,20.43,20.43,0,0,1-2.59.08,38.69,38.69,0,0,1-6.1-2,31.22,31.22,0,0,1-4.26-2.3A20.74,20.74,0,0,1,1756.45,1072.26ZM1744.38,1150l-.28,0,.29,0Zm33.65-36.73a64,64,0,0,1-2.32,7.72,26.59,26.59,0,0,1-1.69,3.1,93.58,93.58,0,0,1-8.44,7.85c-1.71,1.52-3.44,3-5.16,4.55-4.31,3.78-8.58,7.63-13,11.28-1.89-2.72-3.69-5.53-5.52-8.28q-4.73-7.11-9.44-14.21l2.56-1.36c6.63-3.51,13.26-7.06,20.13-10.07,2.78-1.13,5.6-2.16,8.41-3.19a59.31,59.31,0,0,1,9.84-2.8,32.85,32.85,0,0,1,5.61-.06l.23,0C1778.87,1109.67,1778.46,1111.47,1778,1113.28Zm1.41-7-.06-.15.06.13Z" transform="translate(-576.48 -155.45)"/><path class="cls-1" d="M1017.23,1512a15,15,0,0,0-9.91-8.91,14.47,14.47,0,0,0-3.62-.62c-.39,0-.76,0-1.13,0s-.88,0-1.34.06a37.21,37.21,0,0,0-13.43,4.13c-3.28,1.63-6.46,3.55-9.57,5.47-2.18,1.33-4.33,2.71-6.5,4.05q-3.62,2.23-7.22,4.48c-3,1.89-6.11,3.76-9.09,5.74a86.4,86.4,0,0,0-9.64,7.5,7.12,7.12,0,0,0-1.65,7.6,7.71,7.71,0,0,0-1,.49,8.37,8.37,0,0,0-3.82,5,8.06,8.06,0,0,0,.84,6.4q8.33,11.49,16.65,23c2.4,3.3,4.8,6.61,7.24,9.89l2.26,3a33.17,33.17,0,0,0,3.56,4.7,6.08,6.08,0,0,0,2.15,1.52,8.23,8.23,0,0,0,4.19,1.13c.89-.1,1.78-.22,2.67-.35a10.79,10.79,0,0,0,4.18-2.39c2.13-1.74,2.85-4.26,3.74-6.71a40.78,40.78,0,0,1,5.13-8.69,186.17,186.17,0,0,1,13.6-14.35,76.65,76.65,0,0,0,9.08-10.38,35.41,35.41,0,0,0,4.9-11.08,48.64,48.64,0,0,0,1.14-6.88,51.35,51.35,0,0,0,.34-5.82,50,50,0,0,0-1.42-11.62A39.12,39.12,0,0,0,1017.23,1512Zm-46.45,71.08a2.88,2.88,0,0,1-.3.39l.31-.41Zm33-47.63a36,36,0,0,1-1.64,6.3,33.29,33.29,0,0,1-2.72,4.6c-3.25,3.87-7,7.31-10.5,11-2.59,2.71-5.19,5.41-7.64,8.26a72.86,72.86,0,0,0-6,8c-1.82-2.5-3.65-5-5.46-7.51q-7.64-10.48-15.22-21c2.88-1.62,5.86-3,8.82-4.51s5.53-2.95,8.25-4.5,5.6-3.3,8.39-5c2.29-1.38,4.54-2.81,6.81-4.22,1.84-1.14,3.72-2.2,5.59-3.27s3.49-2,5.3-2.85a30.61,30.61,0,0,1,4.27-1.24c.12.21.23.42.33.64a34.2,34.2,0,0,1,1.39,5.51A49.07,49.07,0,0,1,1003.74,1535.47Z" transform="translate(-576.48 -155.45)"/><path class="cls-1" d="M1029.85,1521.6a40,40,0,0,0,1.43,6.94,23.73,23.73,0,0,0,1.7,3.74,10.68,10.68,0,0,0,3.73,3.65,9,9,0,0,0,6.84.84,21.59,21.59,0,0,0,3.88-1.71c.91-.51,1.89-.93,2.81-1.43s1.93-1,2.92-1.48c5.92-2.32,12.1-3.78,18.12-5.79a44,44,0,0,0,5.69-2.43,30.54,30.54,0,0,0,5-3.48,23.14,23.14,0,0,0,4.15-4.52,23.56,23.56,0,0,0,2.75-4.63,33,33,0,0,0,2.08-6,51,51,0,0,0,1-6.48,72.39,72.39,0,0,0,.21-10.92c-.12-3.28-.38-6.54-.61-9.81-.17-2.36-.49-4.71-.83-7.05a23.44,23.44,0,0,0-1.12-4.75,19,19,0,0,0-3.54-6.29,19.91,19.91,0,0,0-4.41-3.61,21.85,21.85,0,0,0-3.32-1.46,12.56,12.56,0,0,0-2.43-.62,34.68,34.68,0,0,0-6.43-.62,43.79,43.79,0,0,0-5.36.51c-2.32.29-4.6.65-6.88,1.13a56.27,56.27,0,0,0-11.35,3.79,23,23,0,0,0-8.81,6.86l-1.13,1.45a7.19,7.19,0,0,0,6.21,10.81l1.91-.25a7.37,7.37,0,0,0,3-1.71,23.67,23.67,0,0,1,3.22-1.83,73.49,73.49,0,0,1,15.76-4.2,34,34,0,0,1,6-.2,14.36,14.36,0,0,1,1.47.37l.25.15.17.17.14.24a24.28,24.28,0,0,1,.83,3.59c.34,3,.48,6.05.67,9.07a93.83,93.83,0,0,1,0,15.18,32.86,32.86,0,0,1-1.3,5.26,22.77,22.77,0,0,1-1.55,2.66,21.29,21.29,0,0,1-1.91,1.89,25,25,0,0,1-3.16,1.77c-3.4,1.25-6.94,2.12-10.4,3.17-2.16.65-4.31,1.29-6.44,2.05-1.75.62-3.49,1.3-5.19,2.06l-.15-.88-.9-5q-.63-3.48-1.25-7-2.17-12.4-4.36-24.81a7.85,7.85,0,0,0-3.76-4.89,8.17,8.17,0,0,0-11.19,2.93,8.72,8.72,0,0,0-.82,6.31c1.52,8.71,3,17.43,4.6,26.13Q1028.85,1516.1,1029.85,1521.6Z" transform="translate(-576.48 -155.45)"/><path class="cls-1" d="M1265.1,1382.49a22.46,22.46,0,0,0-2.2-5.32,18.12,18.12,0,0,0-9-8.11,27.36,27.36,0,0,0-5.77-1.86,28.82,28.82,0,0,0-5.14-.47c-.43,0-.85,0-1.28,0-4.42.21-8.76,1.37-13,2.41a83,83,0,0,0-10.33,3.36c-4.11,1.57-8.17,3.28-12.14,5.19-3.17,1.53-6.2,3.32-9.27,5-1.64.92-3.25,1.94-4.82,3a9.26,9.26,0,0,0-6.12-.43,9.36,9.36,0,0,0-5.53,4.25c-.31.74-.62,1.48-.94,2.21a9.58,9.58,0,0,0,0,4.93l.22.52a6.9,6.9,0,0,0,3.31,8.13q3.12,7.66,6.25,15.32c1.38,3.4,2.82,6.77,4.23,10.15.44,1,.83,2.08,1.23,3.13a43.52,43.52,0,0,0,1.88,4.31,17.6,17.6,0,0,0,2.74,3.62,14.23,14.23,0,0,0,3.57,2.73,12.13,12.13,0,0,0,5.87,1.45c3.13.05,5.86-1.63,8.63-2.84l-1.28.53c3.79-1.61,7.51-3.39,11.27-5.09,2-.78,3.94-1.57,5.94-2.3a115.45,115.45,0,0,0,14.23-5.77c3.71-2,6.47-5,8.94-8.3a48.93,48.93,0,0,0,5.55-10,51.9,51.9,0,0,0,3.78-11.14,39.15,39.15,0,0,0,.67-6.3,48.54,48.54,0,0,0-.46-6.25A55.39,55.39,0,0,0,1265.1,1382.49Zm-14.71,12.83a39.63,39.63,0,0,1-2.22,7.14,56.07,56.07,0,0,1-5.37,9.83,25.32,25.32,0,0,1-2.25,2.38,26.17,26.17,0,0,1-3.09,1.65c-4.21,1.57-8.53,2.84-12.76,4.37-1.64.6-3.27,1.2-4.88,1.87-2.81,1.16-5.58,2.39-8.36,3.6-1.65-4.07-3.34-8.13-5-12.19q-3.14-7.71-6.28-15.4c.84-.49,1.7-1,2.55-1.44,5.22-2.92,10.47-5.75,15.94-8.16a101.13,101.13,0,0,1,22-6.69,27.12,27.12,0,0,1,3.93-.09,20.45,20.45,0,0,1,2.63.71c.47.24.93.49,1.38.77l.19.19q.45.72.84,1.47a21,21,0,0,1,.6,2.7A39.47,39.47,0,0,1,1250.39,1395.32Z" transform="translate(-576.48 -155.45)"/><path class="cls-1" d="M1458.61,1271.09a88.46,88.46,0,0,0,4.07,10.81,24.09,24.09,0,0,0,3.37,4.92,20.38,20.38,0,0,0,5.32,4.37c3.82,2.23,8.29,2.85,12.62,3.25a59,59,0,0,0,7.16.21l-1.64.82a70.56,70.56,0,0,0-13.52,8.47l-.3.26a8.55,8.55,0,0,0-2.39-1.09,8.09,8.09,0,0,0-9.94,5.64,8.46,8.46,0,0,0,.82,6.23l8.37,17c.93,1.88,1.85,3.78,2.77,5.67l.44.9-.65.88a14.66,14.66,0,0,0-1.84,4.18c-1.32,3.8.83,8.25,4.14,10.2s8.26,1.59,10.94-1.41c.22-.25.44-.48.67-.7,2.54-1.63,5.28-3,7.92-4.45s5.21-2.83,7.82-4.24c2.45-1.33,5-2.56,7.42-3.84,2.07-1.06,4.18-2,6.26-3.07,1.49-.75,2.91-1.62,4.35-2.46a19.91,19.91,0,0,0,6.63-6,15.11,15.11,0,0,0,2.45-7.39,13.06,13.06,0,0,0-2.26-7.79,38.06,38.06,0,0,0-6.34-7.25,90.2,90.2,0,0,0-9.23-8,25.9,25.9,0,0,0-7.78-4.14c.53-.12,1.06-.26,1.58-.43a18.64,18.64,0,0,0,5.13-2.5,23.53,23.53,0,0,0,5.78-5.87,26.06,26.06,0,0,0,2.45-4.57,48,48,0,0,0,2.25-6.1,85.76,85.76,0,0,0,2.37-12.93c.34-2.74.67-5.47.94-8.21s.58-5.43-.08-8.09a9.8,9.8,0,0,0-3.36-5.38l-1.52-1.18a11.29,11.29,0,0,0-2.47-1.14,14.52,14.52,0,0,0-4.19-.84,4.45,4.45,0,0,0-.53,0,18.66,18.66,0,0,0-3.11.4c-.86.15-1.68.35-2.51.58-1.7.47-3.39,1-5,1.61a97.34,97.34,0,0,0-9.63,4.15l-8.92,4.36c-2.44,1.19-4.81,2.53-7.21,3.8a145.07,145.07,0,0,0-14.78,9.06,7.29,7.29,0,0,0-3.17,4.12l0,.12A7.52,7.52,0,0,0,1458.61,1271.09Zm56-20,.25.21-.26-.21Zm-27.79,65.56v0h0Zm22.87,1.16c-1.27.66-2.57,1.28-3.87,1.87-1.79.81-3.55,1.65-5.3,2.53-2.67,1.34-5.34,2.67-8,4.1l-.93.51,0-.13c-.66-1.74-1.32-3.47-2-5.2s-1.55-3.6-2.16-5.45h0a71.78,71.78,0,0,1,10.61-5.72c.63-.24,1.26-.46,1.91-.64h.55l.36.1a22.14,22.14,0,0,1,2.41,1.51A60.91,60.91,0,0,1,1509.64,1317.76Zm-22.48-54.46c6.71-3.38,13.4-6.87,20.28-9.9,1.46-.59,2.94-1.15,4.45-1.62-.09.79-.2,1.58-.31,2.36-.93,6.32-1.8,12.71-4.09,18.7a24.63,24.63,0,0,1-1.81,3.26c-.42.45-.85.88-1.3,1.29-.27.17-.54.34-.83.49a30.29,30.29,0,0,1-4.9,1,83.66,83.66,0,0,1-15.18,0,27.33,27.33,0,0,1-3.68-.87c-.45-.24-.9-.49-1.34-.76s-.63-.61-.92-.94a21.93,21.93,0,0,1-1.66-2.9c-.49-1.29-.95-2.6-1.39-3.91C1478.69,1267.44,1483,1265.43,1487.16,1263.3Z" transform="translate(-576.48 -155.45)"/><path class="cls-1" d="M1588.36,1265.09c2.32-2.34,4.87-4.48,7.3-6.7,2-1.79,3.89-3.61,5.83-5.42,3.89-3.63,7.69-7.36,11.46-11.11,4.07-4.06,9.14-9,8.3-15.3a14.83,14.83,0,0,0-.44-2.72,18.93,18.93,0,0,0-1.32-3.33c-.33-.71-.65-1.41-1-2.13l-.78-1.82c-.53-1.35-1.06-2.7-1.56-4-.4-1.08-.81-2.15-1.19-3.23-.91-2.53-1.91-5.27-3.82-7.25a16.11,16.11,0,0,0-2.67-2.27,15.85,15.85,0,0,0-3.87-1.79,9.81,9.81,0,0,0-1.53-.28,25.35,25.35,0,0,0-2.76-.33c-.43,0-.86,0-1.29,0-.66,0-1.33,0-2,0a53.56,53.56,0,0,0-8.25,1.26c-2.34.47-4.64,1-6.95,1.61q-5.58,1.45-11.1,3.16c-1.48.46-2.92,1-4.38,1.57a32,32,0,0,0-5.87,2.88,12.8,12.8,0,0,0-3.11,2.71,7.44,7.44,0,0,0-1.92,3.31,5.48,5.48,0,0,0-.3.89,7.38,7.38,0,0,0,3.29,8.22,8.6,8.6,0,0,0,.22,2.41q2.73,11.41,5.5,22.83c.32,1.33.64,2.66,1,4,.53,2.3,1.14,4.58,1.71,6.88a35.26,35.26,0,0,0-4.14-.53l-.69,0a16.56,16.56,0,0,0-6.67,1.82c-2.41,1.08-4.42,3-6.49,4.64-1.9,1.48-3.75,3.07-5.58,4.65-1.24,1.06-2.49,2.12-3.7,3.22a22.9,22.9,0,0,0-4.43,5.32,11.47,11.47,0,0,0-1.39,4.8,15.46,15.46,0,0,0,.32,4,17.18,17.18,0,0,0,.8,2.8c.23.69.45,1.39.69,2.09.51,1.45,1,2.89,1.6,4.34,1.19,3.14,2.58,6.25,4.08,9.26.83,1.68,1.65,3.36,2.55,5s1.92,3.3,3,4.87c1.68,2.48,4.08,4.68,7.15,5.12a8.44,8.44,0,0,0,7.92-1.89l1-.29c.78-.2,1.53-.41,2.29-.68,1.4-.51,2.82-1,4.21-1.53,4.08-1.6,8.13-3.26,12.15-5a61.43,61.43,0,0,0,8.9-4.78,37.29,37.29,0,0,0,5.32-4.21,30.75,30.75,0,0,0,2.83-3.42,18.32,18.32,0,0,0,2.47-4.65,10.63,10.63,0,0,0,.66-2.41,15.76,15.76,0,0,0,0-6.27,7.7,7.7,0,0,0-.53-1.89,14.64,14.64,0,0,0-2.92-5.06,22.56,22.56,0,0,0-5-4.17c-.79-.55-1.59-1.07-2.39-1.61-2.07-1.42-4.14-2.84-6.22-4.23.53-.41,1-.84,1.4-1.15C1586.91,1266.55,1587.63,1265.83,1588.36,1265.09Zm18.73-37.43c-.06.13-.12.27-.19.4l.18-.42Zm-35.77,64.92c-2.51,1-5,2-7.57,3l-3.4,1.34-.67.26c-.17-.44-.35-.88-.52-1.31q-2.51-6.21-5-12.4l-.45-1.06c.89-.65,1.78-1.31,2.68-2a51.55,51.55,0,0,1,5.8-3.78c.41.11.82.24,1.22.37a72.74,72.74,0,0,1,11.61,7.8l2.71,2.14,1.71,1.37A58.17,58.17,0,0,1,1571.32,1292.58Zm11.2-1.54v0l.09.23Zm-1.64-39.23c-.49-2.11-.92-4.24-1.4-6.35q-.66-2.82-1.34-5.62-2.19-9.3-4.4-18.6a7,7,0,0,0-.78-1.92c1.91-.71,3.83-1.39,5.76-2,6-2,12-4,18.28-5a26,26,0,0,1,3.53-.1c.11.21.22.43.32.65.86,2.29,1.77,4.56,2.71,6.81,1.06,2.56,2.25,5.06,3.4,7.58l.06.18a110.42,110.42,0,0,1-8.49,8.41c-2.19,2-4.35,4.07-6.56,6.06s-4.47,4.08-6.74,6.09Z" transform="translate(-576.48 -155.45)"/><path class="cls-1" d="M1707,1168a33.79,33.79,0,0,0,.38-3.87,21.58,21.58,0,0,0-.48-3.66,16.63,16.63,0,0,0-2-5.31,15.57,15.57,0,0,0-4.68-4.64,19.11,19.11,0,0,0-5.09-2.34,12.71,12.71,0,0,0-2.36-.5,29.71,29.71,0,0,0-3.76-.36h-.37a41,41,0,0,0-6.06.64,58.3,58.3,0,0,0-10.44,3c-5.46,1.91-10.8,4.19-16.1,6.5a7.53,7.53,0,0,0-7.24-5.49,7.57,7.57,0,0,0-5.31,2.2,7.9,7.9,0,0,0-1.18,1.55,90.68,90.68,0,0,0,.89-10.14c.08-2.91.11-5.79.06-8.7-.06-4.38-.63-9-3.15-12.75a17.59,17.59,0,0,0-5.87-5.48,21.82,21.82,0,0,0-8.67-2.49,26.38,26.38,0,0,0-3.08-.18,44,44,0,0,0-8.93,1.07c-.31.06-.62.14-.93.22l1.61-.8q3.83-1.9,7.71-3.66a34.21,34.21,0,0,0,10.26-7,36.78,36.78,0,0,0,7.35-11.1,54.46,54.46,0,0,0,2.27-5.93,36.73,36.73,0,0,0,1.31-7.27,49.91,49.91,0,0,0-.82-12.67,43.49,43.49,0,0,0-2.55-9.17,30.53,30.53,0,0,0-3-6.07,22.13,22.13,0,0,0-6.09-6.22,23.4,23.4,0,0,0-12.37-3.71H1618a17.86,17.86,0,0,0-2.31.21c-1.56.19-3.09.39-4.62.68a36.22,36.22,0,0,0-5.12,1.4,144.38,144.38,0,0,0-13.3,5.73q-7.23,3.36-14.45,6.75c-2.1,1-4.21,1.92-6.3,2.9l-4.18,2a24.36,24.36,0,0,0-3.76,2.12c-1.11.8-2.19,1.65-3.24,2.54l-.43.54c-.66.84-1.31,1.68-2,2.53a9.81,9.81,0,0,0-1.32,4.9,9.71,9.71,0,0,0,2.51,6.51,10.58,10.58,0,0,0-3,3.25,10.23,10.23,0,0,0-1.06,8.1c2.18,6.16,4.34,12.33,6.56,18.48l1.55,4.26c.5,1.4,1,2.81,1.54,4.19s1.1,2.63,1.75,3.93a24.18,24.18,0,0,0,2.76,3.93l.49.39a10.4,10.4,0,0,0,4.62,2.69,13,13,0,0,0,4.06.73,19.81,19.81,0,0,0,2.87-.16c-1.23.89-2.46,1.8-3.64,2.75a10.72,10.72,0,0,0-12.89,4.67c-.36.85-.71,1.71-1.07,2.56a10.57,10.57,0,0,0,0,5.69c4.92,11.82,9.8,23.66,14.82,35.44.38.91.8,1.8,1.21,2.69.24.54.49,1.08.74,1.62a13.15,13.15,0,0,0,5,6,12.23,12.23,0,0,0,9.92,1.39,15.9,15.9,0,0,0,4.38-2.32l3.79-2.26c1.09-.66,2.3-1.17,3.44-1.74.93-.47,1.85-.93,2.8-1.37,2.09-.94,4.18-1.88,6.28-2.8,2.62-1.07,5.24-2.13,7.84-3.26a47.41,47.41,0,0,0,5.74-2.89,23.06,23.06,0,0,0,8.9-10.41,41.59,41.59,0,0,0,2.35-6.46c.05-.19.09-.39.14-.58q.93,9.3,1.89,18.61.56,5.29,1.1,10.57c.22,2.07.51,4.14.83,6.19a20.52,20.52,0,0,0,1.72,5.6,13.27,13.27,0,0,0,10,7.4,22.94,22.94,0,0,0,6,.27,50.71,50.71,0,0,0,6.37-1.07c2-.49,4-1.22,6-1.9a42.46,42.46,0,0,0,8.41-3.81,46.69,46.69,0,0,0,9.19-7.91c1.7-1.86,3.21-3.89,4.73-5.9.83-1.1,1.61-2.18,2.35-3.34A43.45,43.45,0,0,0,1707,1168Zm-131.26-79.86a12.78,12.78,0,0,0-2.5-4.4c1.28-.44,2.56-.87,3.81-1.37,2.12-.85,4.25-1.69,6.34-2.62,2.86-1.26,5.71-2.52,8.54-3.85,5.88-2.74,11.71-5.57,17.65-8.17a43.33,43.33,0,0,1,7.54-2.27,11.55,11.55,0,0,1,1.18,0l.08,0c.23.38.45.76.66,1.16a45.93,45.93,0,0,1,2.07,8.17,37.77,37.77,0,0,1,.13,6.2,34,34,0,0,1-1.42,5,32.69,32.69,0,0,1-2.39,4.24,23.85,23.85,0,0,1-1.72,1.76,100.79,100.79,0,0,1-10.64,5.48c-2.3,1.13-4.58,2.3-6.87,3.45-5.09,2.56-10,5.56-15,8.29-.25-.72-.5-1.44-.76-2.16-.51-1.41-1-2.81-1.52-4.23C1579.26,1097.93,1577.51,1093,1575.78,1088.12Zm47.17,53.23c-.18,3.44-.32,6.88-.67,10.3a42.53,42.53,0,0,1-1.69,7.22c-.27.54-.56,1.05-.87,1.56l-.39.4c-1,.59-2,1.12-3,1.62-4.58,1.84-9.2,3.55-13.72,5.52-2,.88-4,1.77-5.93,2.71l-8.93-21.42c2.38-1.31,4.85-2.47,7.31-3.62,4.7-2.2,9.39-4.45,14.15-6.52a57.34,57.34,0,0,1,11-3.51,28.87,28.87,0,0,1,2.94-.09C1623.12,1137.47,1623,1139.44,1623,1141.35Zm36.84,52.66-.13-.18.14.18Zm30.66-24.09a62,62,0,0,1-5.27,8.72,64.87,64.87,0,0,1-8.69,9.38,31.92,31.92,0,0,1-5.25,3,50.12,50.12,0,0,1-9.72,3c-.41,0-.82,0-1.23,0a32,32,0,0,1-.64-3.38c-.81-6.44-1.48-12.89-2.13-19.34a26.47,26.47,0,0,0,3.75-.86c1.64-.52,3.26-1,4.87-1.62,2.18-.77,4.35-1.55,6.52-2.36s4.58-1.63,6.91-2.38a47.8,47.8,0,0,1,6.11-1.62,29.87,29.87,0,0,1,4.23-.16q.6.14,1.2.33l.75.41c.05.19.1.38.14.57s0,.58,0,.88A32.68,32.68,0,0,1,1690.45,1169.92Z" transform="translate(-576.48 -155.45)"/><path class="cls-1" d="M1099.09,1539.69a12.76,12.76,0,0,0-2.7-4.68,11.86,11.86,0,0,0-6.43-3.84,17.12,17.12,0,0,0-4-.43c-.79,0-1.58,0-2.36.1a40.09,40.09,0,0,0-7.75,1.44,96.69,96.69,0,0,0-11.64,4.3c-3.72,1.58-7.36,3.35-10.93,5.26s-7.24,4.06-10.82,6.18c-2,1.15-3.86,2.36-5.78,3.59a48,48,0,0,0-7.83,6.08,8.35,8.35,0,0,0-2.17,3.74,9.4,9.4,0,0,0-.91,10.55c5.88,10.52,11.72,21.06,17.63,31.56q2,3.46,4,6.92c.44.76.81,1.56,1.27,2.3a11.55,11.55,0,0,0,3.76,3.73,11.07,11.07,0,0,0,5.26,1.44,12,12,0,0,0,5.29-1.31,13.58,13.58,0,0,0,2.72-2.11c.56-.56,1.07-1.2,1.63-1.77a110.8,110.8,0,0,1,10.17-9.08c2.06-1.47,4.13-2.94,6.31-4.24a45,45,0,0,0,5.07-3.52,24.72,24.72,0,0,0,4.15-4.68,21.72,21.72,0,0,0,2.41-4.35,50.18,50.18,0,0,0,2.53-7.08,48.59,48.59,0,0,0,1-5.23c.35-2.42.61-4.84.78-7.28.12-1.92.18-3.84.25-5.76.09-2.54.18-5.08.17-7.62,0-3.47,0-6.93-.34-10.39A18.91,18.91,0,0,0,1099.09,1539.69Zm-17.66,16.22c-.2,4.69-.38,9.4-.89,14.08a45.94,45.94,0,0,1-2.08,8.33,23.88,23.88,0,0,1-1.56,2.74c-.26.28-.54.55-.82.81-2,1.4-4.15,2.65-6.11,4.12q-3.95,3-7.74,6.12c-1,.79-1.89,1.62-2.8,2.47l-.63-1.13q-2.62-4.65-5.23-9.33l-9-16.11c2-1.21,4-2.46,6-3.63a233.56,233.56,0,0,1,22.73-12,67.91,67.91,0,0,1,8.32-2.83C1081.61,1551.67,1081.52,1553.8,1081.43,1555.91Z" transform="translate(-576.48 -155.45)"/><path class="cls-1" d="M1182,1498.5a39.09,39.09,0,0,0-3.85-8.36c-.7-1.14-1.5-2.23-2.26-3.33a19.47,19.47,0,0,0-3.51-4.16,20.83,20.83,0,0,0-9.07-4.43,21.45,21.45,0,0,0-4.42-.44c-.32,0-.63,0-1,0l.25-.14a28.06,28.06,0,0,0,9.34-9,38.64,38.64,0,0,0,4.69-10.39,61.72,61.72,0,0,0,2.15-10.79,97.11,97.11,0,0,0,1-16.34,40.49,40.49,0,0,0-.41-4.67,16.5,16.5,0,0,0-2.55-6.35,22.25,22.25,0,0,0-5.78-5.79,19.92,19.92,0,0,0-2.67-1.19,9.83,9.83,0,0,0-1.5-.42,23.83,23.83,0,0,0-4.61-.5h-.51a30.52,30.52,0,0,0-6.79.94,41.59,41.59,0,0,0-6.13,2.14,73.44,73.44,0,0,0-12.12,6.08c-2.68,1.71-5.42,3.36-8,5.21-2.07,1.49-4.14,3-6.13,4.56a38.34,38.34,0,0,0-4.54,4.19,26.48,26.48,0,0,0-2.57,3.48,27.52,27.52,0,0,0-1.77,3.91,6.85,6.85,0,0,0-.16,2.88,8,8,0,0,0-.27,4.84l3.06,11.77c.32,1.21.63,2.42,1,3.62.46,1.64.9,3.27,1.44,4.88a26.91,26.91,0,0,0,2.82,6.43,13.23,13.23,0,0,0,4.82,4.46,14.19,14.19,0,0,0,7.07,1.29c2.39-.07,4.8-.48,7.19-.74,2.14-.23,4.29-.43,6.43-.63-3.08,1.24-6.09,2.67-9,4.15s-5.76,3.11-8.6,4.76a65.4,65.4,0,0,0-11.41,8.35,1.07,1.07,0,0,0-.16.14,9.83,9.83,0,0,0-8.38.74,10.11,10.11,0,0,0-3.6,13.71c6.66,10.74,13.22,21.55,19.93,32.25a41.55,41.55,0,0,0,3.68,5.08,18.6,18.6,0,0,0,3.22,2.7,11.83,11.83,0,0,0,3.77,1.82,27.4,27.4,0,0,0,4.24.6,21.92,21.92,0,0,0,4.33-.47,29.62,29.62,0,0,0,7.24-2.46,85.12,85.12,0,0,0,12.27-7q3-1.93,5.75-4.08c1.95-1.49,3.92-3,5.8-4.54a30.83,30.83,0,0,0,8-10,57.07,57.07,0,0,0,3.3-9,27.81,27.81,0,0,0,1-9.08A41.88,41.88,0,0,0,1182,1498.5Zm-48-31.43c-1.45.15-2.9.33-4.35.41-1.12-3.24-1.94-6.58-2.8-9.89q-1.47-5.65-2.93-11.29c2-1.44,4.18-2.76,6.29-4.11,1.34-.86,2.68-1.73,4-2.57,5-3.06,9.91-6.29,15.27-8.66a37.88,37.88,0,0,1,7-2.27c.7,0,1.4-.07,2.1,0l.44.44.27.46c0,.13.08.27.11.4a87.92,87.92,0,0,1-.7,16.69,56.51,56.51,0,0,1-2.65,10.58,32.89,32.89,0,0,1-2.52,4.38,20.87,20.87,0,0,1-2,2.06,19.59,19.59,0,0,1-2.29,1.38,31.16,31.16,0,0,1-3.81.94c-2.43.25-4.86.43-7.28.67Zm5.63,69.49h0l.25.11Zm25.22-25.43a34.73,34.73,0,0,1-1.72,5.13,30.11,30.11,0,0,1-1.72,3.22,36.39,36.39,0,0,1-4,3.74c-2.17,1.59-4.37,3.14-6.59,4.67a81.21,81.21,0,0,1-11.8,6.87l-.46.17c-.44-.71-.88-1.42-1.32-2.11-.76-1.21-1.53-2.41-2.29-3.61q-2.43-3.92-4.88-7.82l-6.27-10.07a77,77,0,0,1,9.07-5.23c4.76-2.48,9.67-4.71,14.6-6.85a52.07,52.07,0,0,1,10-3c.55,0,1.09,0,1.64,0l.73.2.26.14a38.47,38.47,0,0,1,3.2,5.43,35,35,0,0,1,1.5,5.5A27.16,27.16,0,0,1,1164.87,1511.13Z" transform="translate(-576.48 -155.45)"/><path class="cls-1" d="M1265,1461.38c-.4-3.29-.79-6.58-1.32-9.85-.26-1.62-.53-3.23-.79-4.84a16.58,16.58,0,0,0-1.89-5c-1.72-3.16-5.33-4.73-8.76-4.93l-.79,0c-3.92,0-7.4,1.71-10.86,3.43-1.33.65-2.66,1.28-4,1.94-4.63,2.27-9.26,4.54-14,6.67l-7.71,3.49c-3.6,1.61-7.34,3.18-10,6.27a7.77,7.77,0,0,0-1.65,2.42,9.28,9.28,0,0,0-9.51,2.24c-.48.63-1,1.26-1.45,1.88a9.36,9.36,0,0,0-1.27,4.7c1,8.28,2.13,16.55,3.16,24.83.34,2.73.59,5.47,1,8.19.28,2,.7,3.92,1,5.88a14.31,14.31,0,0,0,3.65,7.08c2.26,2.51,6.25,3.44,9.5,3.15a15.12,15.12,0,0,0,3.94-.76,38.45,38.45,0,0,0,4.37-2c.63-.33,1.3-.59,2-.86l2.85-1.21c2.32-.8,4.62-1.67,7-2.37,2.74-.83,5.47-1.64,8.18-2.52,5.58-1.82,11.25-3.83,16.09-7.2a26.05,26.05,0,0,0,4.82-4.13,28.93,28.93,0,0,0,3.71-5.29c2.24-4.16,2.94-8.7,3.49-13.32a57.39,57.39,0,0,0-.1-11.12C1265.55,1465.82,1265.29,1463.6,1265,1461.38Zm-16.86,17.29a31.71,31.71,0,0,1-1.19,4.82,20.38,20.38,0,0,1-1.13,1.91,18.26,18.26,0,0,1-1.32,1.32,35.37,35.37,0,0,1-5.23,2.87c-2.84,1.1-5.74,2-8.66,2.87-2.13.65-4.32,1.14-6.45,1.84-2.29.74-4.67,1.36-6.9,2.27l-4,1.62c-.52-4.32-1-8.64-1.57-13l-1.71-13.39a7.26,7.26,0,0,0,4.51-1.06c.44-.28.88-.53,1.34-.77l3.7-1.37c1.49-.55,2.93-1.23,4.4-1.84,3-1.28,6-2.62,9-4,2.61-1.25,5.25-2.47,7.84-3.77,2.11-1,4.2-2.14,6.31-3.2.14,1.25.27,2.5.38,3.75C1248.05,1465.88,1248.79,1472.32,1248.16,1478.67Z" transform="translate(-576.48 -155.45)"/><path class="cls-1" d="M1347.82,1422.77a72.47,72.47,0,0,0,1.6-7.3,77.58,77.58,0,0,0,1.08-8.32,11.28,11.28,0,0,0-.26-4.14,15,15,0,0,0-1.65-3.57,14.72,14.72,0,0,0-8.08-5.59,10.3,10.3,0,0,0-1.53-.29,25.81,25.81,0,0,0-2.77-.32c-.25,0-.51,0-.77,0a23.82,23.82,0,0,0-2.66.21,52.23,52.23,0,0,0-8.92,1.8,73.26,73.26,0,0,0-7.95,3.13l-.92.44,2.62-1.87q7.08-5.13,14.26-10.13c1.19-.83,2.43-1.59,3.59-2.46,1.61-1.2,3.19-2.45,4.67-3.8a31.2,31.2,0,0,0,4-4.83,41.11,41.11,0,0,0,3.18-5.4,77.6,77.6,0,0,0,4.41-11.34c.71-2.24,1.33-4.5,2-6.77.51-1.92,1-3.83,1.39-5.78a34.14,34.14,0,0,0,.7-6.21,21.69,21.69,0,0,0-.4-3.64,17.86,17.86,0,0,0-1.47-4.09,14.09,14.09,0,0,0-2-3,9.8,9.8,0,0,0-1.63-1.59,22.47,22.47,0,0,0-2.85-2,29.13,29.13,0,0,0-3.25-1.39,21.17,21.17,0,0,0-5.91-1.12,12.23,12.23,0,0,0-1.48-.08,35.87,35.87,0,0,0-4.65.42,59.07,59.07,0,0,0-6.64,1.16c-1.86.46-3.68,1.06-5.51,1.63-1.42.44-2.83,1-4.24,1.44-2.56.9-5.12,1.78-7.66,2.73-5.23,2-10.37,4.11-15.6,6.07-.7.26-1.43.48-2.15.7a6.81,6.81,0,0,0-3,11.38l.07.07a8,8,0,0,0-1.83,2.13l-.81,1.92a8.27,8.27,0,0,0,0,4.25l3.66,20.89c1,5.45,2,10.9,3.15,16.31.17.8.35,1.6.57,2.39a26.39,26.39,0,0,0,1.3,3.22,7.61,7.61,0,0,0,1.79,2.67c1.13.93,2.35,2.13,3.88,2.36l.5.07a7.93,7.93,0,0,0,3.75.1c-2.65,1.68-5.25,3.42-7.85,5.16a8.07,8.07,0,0,0-3.73-2.27,7.57,7.57,0,0,0-9.3,5.28l-.27,2a7.46,7.46,0,0,0,.75,3.3,6.35,6.35,0,0,0-2.45,2.38,6.68,6.68,0,0,0,2.41,9.17l1.6.68a6.72,6.72,0,0,0,3.56,0l.4,0c1,2.13,1.94,4.25,2.93,6.37,1.12,2.41,2.28,4.81,3.43,7.21.58,1.22,1.17,2.42,1.86,3.58a26.68,26.68,0,0,0,2,2.82,8.54,8.54,0,0,0,2.54,2.23,19,19,0,0,0,3.07,1.24,14.39,14.39,0,0,0,3.41.39l.85-.11a10.8,10.8,0,0,0,2.94-.52,34.43,34.43,0,0,0,4.33-1.7,66.35,66.35,0,0,0,8.81-4.59c1-.64,2.13-1.24,3.12-1.95q2.05-1.46,4.1-2.92c1.48-1,2.9-2.24,4.33-3.37a38.08,38.08,0,0,0,6.31-5.92,25.48,25.48,0,0,0,3.35-5.3A36.64,36.64,0,0,0,1347.82,1422.77Zm-47.7-69.77a6.6,6.6,0,0,0-1.67-3.14c1.34-.29,2.67-.64,4-1.06,2.78-.87,5.54-1.76,8.29-2.71l8.13-2.82a86.64,86.64,0,0,1,14.41-4.19,28.56,28.56,0,0,1,4.71-.19c.53.12,1,.26,1.56.43l.54.3,0,.06c0,.55,0,1.1,0,1.65-.48,2.73-1.24,5.38-2,8.06a116.79,116.79,0,0,1-4,11.94,40.25,40.25,0,0,1-3.86,6.71,29.69,29.69,0,0,1-3.51,3.31c-2.33,1.7-4.77,3.27-7.14,4.92-1.86,1.3-3.72,2.63-5.57,4s-4,2.88-6,4.26l-2.11,1.46-.54-2.7c-.61-3.06-1.11-6.14-1.66-9.21C1302.53,1367,1301.34,1360,1300.12,1353Zm10.12,87.59,0,0,.38.29A2.42,2.42,0,0,1,1310.24,1440.59Zm24.45-29.17a76.31,76.31,0,0,1-2.56,9,23.56,23.56,0,0,1-1.51,2.63,57.43,57.43,0,0,1-7.78,6.64l1-.76c-2.3,1.64-4.59,3.25-7,4.76a83.06,83.06,0,0,1-8,4.49c-1-1.84-1.94-3.75-2.89-5.63-1.07-2.1-2-4.23-3.07-6.35-.41-.85-.82-1.7-1.22-2.56l1.24-.8,6.94-4.49a104.21,104.21,0,0,1,14.3-7.8,48.2,48.2,0,0,1,9.55-2.73q.9-.09,1.8-.09C1335.24,1409,1335,1410.21,1334.69,1411.42Zm1.89-3.56h0l.06.16Z" transform="translate(-576.48 -155.45)"/><path class="cls-1" d="M1684.41,1229.28a18.16,18.16,0,0,0-2.27-3,13.81,13.81,0,0,0-4.91-3.23c-1.54-.71-3.12-1.33-4.7-2-2.53-1-5.09-2-7.64-3-3.25-1.27-6.52-2.57-9.86-3.6a32,32,0,0,0-6.43-1.22q-.72-.06-1.44-.06a22.92,22.92,0,0,0-5.07.63,28,28,0,0,0-5.43,2.19,26,26,0,0,0-5.58,3.64,18,18,0,0,0-3.7,4.23c-1.31,2-1.58,4.47-1.84,6.79a8.84,8.84,0,0,0,.22,2.55,8.59,8.59,0,0,0-1.93.83,8.85,8.85,0,0,0-3.15,12c1.94,3.19,3.87,6.37,5.82,9.56.53.88,1.07,1.75,1.6,2.64,1,1.56,1.88,3.15,2.89,4.68a44.74,44.74,0,0,0,3.81,4.77,8.59,8.59,0,0,0,7.89,2.4,7.68,7.68,0,0,0,4.89,4.11c1.77.49,4.36.4,5.9-.78a79.84,79.84,0,0,1,7.28-4.76,69.09,69.09,0,0,0,10-7.4,43,43,0,0,0,3.54-3.73c1.19-1.32,2.32-2.68,3.41-4.09,1.39-1.79,2.79-3.57,4-5.47a34.64,34.64,0,0,0,3.36-7.13,18.77,18.77,0,0,0,.68-4,11.14,11.14,0,0,0,0-2.16A12.29,12.29,0,0,0,1684.41,1229.28Zm-19.65,10.27a90.58,90.58,0,0,1-8.85,9.42c-1.45,1.34-3,2.6-4.4,4-.77.75-1.56,1.5-2.31,2.28-.1-.46-.22-.92-.34-1.37-.34-1.24-.69-2.48-1-3.72-.5-1.92-1-3.84-1.52-5.76s-1.06-3.86-1.61-5.78c-.68-2.36-1.48-4.72-2.11-7.12a26.44,26.44,0,0,1,2.55-1.43c.42-.15.85-.28,1.29-.4h1a44.29,44.29,0,0,1,6.63,2.17c2.31,1,4.61,2,6.9,3.11,1.75.8,3.52,1.62,5.24,2.51C1665.72,1238.16,1665.25,1238.86,1664.76,1239.55Zm3.67-1.17h0l0,0h0Z" transform="translate(-576.48 -155.45)"/><path class="cls-1" d="M1754.23,1183.51c-4.69-2.86-9.18-6-13.62-9.23-1.68-1.23-3.37-2.46-5.16-3.52a27.93,27.93,0,0,0-5.86-2.54,12.51,12.51,0,0,0-3.73-.53,17.65,17.65,0,0,0-4.69.66c-2.55.71-4.58,2.43-6.56,4.09a26.52,26.52,0,0,0-3.07,3.2c-1.27,1.54-2.53,3.07-3.72,4.67s-2.13,2.88-3.11,4.41a45.85,45.85,0,0,0-4.8,10.34,24.54,24.54,0,0,0-.34,12.21,32.27,32.27,0,0,0,2.23,6.76,108.83,108.83,0,0,0,9,17.41,10.41,10.41,0,0,0,6,4.64,10,10,0,0,0,9.5-2.29,19.11,19.11,0,0,0,3.66-.7,56.12,56.12,0,0,0,6.34-2.46,61.56,61.56,0,0,0,8.2-4.59,81.61,81.61,0,0,0,9.94-7.75,44.67,44.67,0,0,0,3.62-3.79,34.1,34.1,0,0,0,4.67-6.55,21.33,21.33,0,0,0,2.6-8.53c.23-3.05-.77-5.63-2.06-8.31C1761.51,1187.45,1757.54,1185.51,1754.23,1183.51Zm-17.31,21.08c-3.19,2.34-6.55,4.44-10,6.46l-2.4,1.43q-1.24-3.06-2.5-6.11l-1-2.43a10.14,10.14,0,0,0-3.65-3.65l-.11-.06c.23-.93.52-1.84.84-2.75a54,54,0,0,1,4.7-7.69c.93-1.09,1.87-2.16,2.88-3.17.54.34,1.06.69,1.58,1.07,2.49,2,4.89,4.1,7.37,6.1s5,4,7.56,5.94A51.93,51.93,0,0,1,1736.92,1204.59Zm7.16-5.32v0h0v0Z" transform="translate(-576.48 -155.45)"/><path class="cls-1" d="M664.06,691.79q1,11.82,2.52,23.59c1.07,8.48,2.37,16.94,3.64,25.4,2.32,15.45,5,30.82,7.82,46.19s5.15,30.68,7.76,46c2.49,14.62,4.56,29.32,7.33,43.89,3.12,16.37,6.33,32.72,9.4,49.1,2.82,15,5.88,30,8.91,45,3,14.77,6.24,29.48,9.51,44.2,3.57,16.07,6.74,32.21,9.93,48.36,3,15.26,5.87,30.55,8.65,45.85,2.72,14.94,5.61,29.84,8.24,44.78,2.66,15.11,4.65,30.33,7.33,45.43,5.39,30.33,12.29,60.39,19,90.44q4.05,18.09,8.87,36c1.57,5.75,3.2,11.49,4.85,17.22.94,3.25,1.87,6.51,2.82,9.76.3,1,.61,2.06.93,3.08.19.56.4,1.1.63,1.64a19.9,19.9,0,0,0,2,4.19,11.89,11.89,0,0,0,4.27,4.27,18.83,18.83,0,0,0,4.54,2.07c2.28.8,4.93.36,7.22,0,.86-.14,1.7-.3,2.55-.51a10.88,10.88,0,0,0,5.4-3.31,7,7,0,0,0,1.75-.89c8.87-6.39,17.82-12.63,26.95-18.63,4.17-2.75,8.53-5.24,12.85-7.75,4-2.31,8.06-4.5,12.21-6.42,4.7-2.17,9.47-4.17,14.21-6.24,4.35-1.9,8.55-4.2,12.77-6.36,8.91-4.57,18-8.66,27.21-12.67s18.22-7.88,27.15-12.19c9.12-4.4,18.08-9.09,27.12-13.62,18.07-9,36.55-17.22,54.57-26.36,4.23-2.14,8.42-4.38,12.63-6.56s8.65-4.42,12.91-6.74c9-4.91,17.9-10,26.86-15,8.59-4.77,17.15-9.62,25.81-14.25,9.07-4.85,18.27-9.47,27.41-14.2,8.92-4.63,17.74-9.45,26.69-14s17.7-8.8,26.65-13,17.77-8.38,26.55-12.78q14.46-7.27,29.09-14.21c8.57-4,17.16-8.11,25.88-11.85,9.44-4.06,18.89-8.09,28.24-12.36s18.83-8.57,28.25-12.85c8.88-4,17.67-8.26,26.48-12.46q28.18-13.47,56.77-26.1c9-4,18-7.89,26.85-12.09s17.73-8.66,26.67-12.82c19.27-9,38.48-18,58-26.41,18.83-8.09,37.47-16.63,56.23-24.88C1596,985,1609,979.2,1622.14,973.55c18.18-7.38,36.59-14.18,54.77-21.59,9.22-3.76,18.42-7.57,27.67-11.25,8.64-3.43,17.4-6.47,26.26-9.27,3.21-1,6.41-2.06,9.58-3.2a54.3,54.3,0,0,0,5.11,8.78l1.78,2.31a11.37,11.37,0,0,0,13.78,1.77,11.51,11.51,0,0,0,4.09-15.56c-.7-1.26-1.34-2.53-1.93-3.82s-1.06-2.87-1.56-4.3a11.61,11.61,0,0,0,2.13-10.14,11.46,11.46,0,0,0-7.57-7.76q-2.38-9-4.62-18.1c-3.37-13.65-7.38-27.12-10.75-40.76q-2.55-10.35-5.17-20.69c-1.81-7.12-3.49-14.27-5.31-21.38-3.66-14.3-7.51-28.55-11-42.9s-7-28.63-10.06-43.05c-3.23-15.28-6.09-30.62-8.85-46-2.56-14.17-5.6-28.25-8.18-42.41q-2-11.09-4-22.18c-1.29-7.4-2.65-14.8-3.75-22.24q-.7-4.74-1.4-9.49c-1.8-14.3-3.6-28.59-5.56-42.87-3.32-26-6.56-52.09-10.29-78.08-.84-6.64-1.68-13.29-2.25-20q-1-11.87-2-23.74c-1.2-14.86-2.84-29.68-4.08-44.54-.6-7.35-1.25-14.71-1.71-22.07-.49-8-.87-16-1.22-24-.63-14.52-1.88-29-2.21-43.56q-.37-17.52-.38-35a12,12,0,0,0-11.86-11.86,11,11,0,0,0-1.72.15,11.62,11.62,0,0,0-3.26-1.59,16.75,16.75,0,0,0-4.83-.7,19.74,19.74,0,0,0-5.67.86c-1.25.37-2.47.77-3.7,1.18-2.17.74-4.3,1.6-6.46,2.35-4.94,1.74-9.92,3.35-15,4.79-9.87,2.82-19.77,5.56-29.61,8.45s-19.71,6.09-29.59,9.05-19.72,5.84-29.55,8.86c-9.37,2.88-18.72,5.85-27.93,9.19-9.77,3.54-19.48,7.22-29.16,10.95s-19.15,7.48-28.77,11.09c-10.1,3.79-20.21,7.49-30.26,11.41-9.57,3.73-19.09,7.61-28.65,11.37q-13.38,5.26-26.79,10.44c-9.93,3.8-19.86,7.62-29.71,11.64-10.66,4.34-21.22,8.94-31.78,13.5-17.34,7.49-34.52,15.34-51.89,22.74-9.11,3.82-18.27,7.54-27.49,11.09s-18.49,7.15-27.63,11c-10.6,4.47-21.13,9.06-31.55,14-9.22,4.35-18.4,8.79-27.58,13.24-9,4.36-17.85,9.05-26.84,13.45-9.88,4.83-19.89,9.4-29.84,14.07-18.71,8.77-37.38,17.61-56.11,26.31-8.88,4.13-17.83,8.08-26.7,12.23-9.48,4.42-18.93,8.91-28.39,13.38-18.59,8.81-37,18-55.73,26.54-4,1.85-8.07,3.64-12.14,5.4l-7.23,2.8c-2.57,1-5.22,1.79-7.82,2.67-4.81,1.63-9.7,3.05-14.55,4.55-10,3.08-20.19,5.7-30.23,8.74-4.91,1.49-9.74,3.29-14.57,5s-9.51,3.44-14.28,5.13c-10.13,3.59-19.58,8.94-29.13,13.83-5.39,2.77-10.86,5.31-16.4,7.75q-9.17,3.83-18.28,7.74c-5.73,2.48-11.53,5-17.06,7.88-6.18,3.25-12.22,6.68-18.23,10.23-2.58,1.52-5.08,3.2-7.6,4.8a94.37,94.37,0,0,0-10.94,8.25,31.79,31.79,0,0,0-7.58,10,7.59,7.59,0,0,0-.74,5.52,8.42,8.42,0,0,0-1.68,5.24C661.66,658.14,662.62,675,664.06,691.79Zm19.84-63.21c10-7.16,21-12.8,32.15-17.92q14.73-6.1,29.8-11.31c5.7-2,11.3-4.14,16.88-6.45,5.28-2.19,10.49-4.54,15.74-6.82,4.11-1.7,8.24-3.37,12.46-4.79,4.87-1.63,9.77-3.15,14.64-4.76,5.2-1.72,10.37-3.43,15.59-5,5-1.53,10-2.71,15.05-4,10-2.49,20-5.31,29.88-8.21A242,242,0,0,0,896.45,548c9.47-4.21,19-8.42,28.31-12.91,9.59-4.61,19.19-9.22,28.82-13.73,9.07-4.24,18.12-8.54,27.2-12.76,9.4-4.38,18.9-8.57,28.31-12.93q28.39-13.14,56.68-26.49c9.29-4.41,18.72-8.56,28-13.08,9.79-4.78,19.48-9.76,29.23-14.6,8.52-4.23,17.15-8.24,25.72-12.36s17.37-8.09,26.16-11.91,17.66-7.29,26.58-10.73c9.28-3.58,18.55-7.15,27.71-11,10.94-4.62,21.87-9.24,32.73-14.06,9.29-4.12,18.56-8.28,27.88-12.34q8.48-3.69,17-7.33c8.54-3.58,17.09-7.09,25.72-10.44,9.93-3.84,19.87-7.64,29.78-11.51q14.4-5.64,28.77-11.35c8.9-3.56,17.81-7.1,26.81-10.42,19.41-7.17,38.64-14.81,58-22.11,10-3.79,20.12-7.42,30.32-10.74,9.52-3.1,19.11-6,28.71-8.89,8.64-2.56,17.28-5.09,25.89-7.76,8.1-2.51,16.2-5,24.36-7.33s16.2-4.51,24.25-6.91c4.4-1.3,8.75-2.71,13.08-4.23,2.51-.88,5-1.87,7.41-2.91,0,12.89.22,25.78.91,38.64q1.23,22.91,2.27,45.81c.69,15.15,2.15,30.27,3.57,45.36,1.4,14.74,2.61,29.5,3.86,44.25.77,9,1.66,18,2.79,26.94s2.44,17.65,3.68,26.47c2.84,22.15,5.55,44.33,8.6,66.45.87,6.64,1.69,13.28,2.53,19.92q1.62,13,3.54,25.95c1.09,7.45,2.48,14.86,3.77,22.27s2.61,14.77,4,22.15c2.67,14.63,5.79,29.17,8.43,43.8,2.74,15.24,5.63,30.43,8.83,45.58,6.11,28.88,13.83,57.39,21.15,86,1.79,7,3.44,14,5.21,21s3.44,13.79,5.16,20.68c3.43,13.78,7.45,27.4,10.86,41.19,1.31,5.32,2.62,10.64,4,15.94-3.23,1.14-6.51,2.15-9.77,3.2q-13.64,4.37-26.92,9.63c-18.12,7.21-36.07,14.82-54.3,21.77-10.17,3.87-20.36,7.74-30.36,12q-13.93,6-27.81,12.18-15,6.63-30,13.23c-8.9,3.94-17.73,8-26.64,11.91-9.8,4.28-19.64,8.5-29.42,12.82-9.29,4.09-18.44,8.49-27.64,12.78-8.85,4.11-17.7,8.24-26.48,12.5-9.2,4.48-18.42,8.93-27.78,13.06q-28.29,12.45-56.34,25.46c-8.77,4.07-17.43,8.37-26.19,12.47-9.31,4.36-18.69,8.57-28,12.84s-18.4,8.54-27.71,12.53c-9.65,4.13-19.28,8.26-28.8,12.66-8.81,4.07-17.63,8.15-26.33,12.47-9.65,4.78-19.25,9.64-28.94,14.32-8.81,4.24-17.71,8.28-26.49,12.59q-13.47,6.58-26.72,13.64t-26.71,13.92c-9.16,4.65-18.14,9.63-27.12,14.61q-12.51,6.91-25,13.95c-8.67,4.9-17.45,9.53-26.27,14.14s-17.82,9.33-26.91,13.66c-9.3,4.44-18.66,8.75-27.94,13.25-8.95,4.34-17.8,8.88-26.63,13.44-9,4.65-18.17,9-27.4,13.14s-18.31,8.11-27.39,12.35c-8.66,4-16.86,9-25.53,13-5.42,2.51-10.9,4.88-16.12,7.77s-10.4,5.89-15.39,9.16c-10,6.53-19.72,13.44-29.4,20.43-.28-1-.56-2.06-.86-3.08-1.09-3.82-2.2-7.65-3.29-11.47-2.09-7.39-4-14.82-6-22.25-3.85-14.77-6.89-29.77-10.21-44.67-3.23-14.51-6.39-29-9.39-43.6-3.13-15.24-5.75-30.55-8.14-45.92-2.37-15.14-4.88-30.24-7.74-45.3-2.94-15.46-5.73-31-8.63-46.42-2.95-15.69-6.14-31.34-9.27-47-3-14.94-6.54-29.75-9.81-44.62-6.82-31-12.73-62.14-18.89-93.25-2.92-14.75-6-29.47-8.55-44.29-2.63-15.3-5.41-30.57-8.24-45.83-1.41-7.63-2.78-15.27-4.34-22.87s-3.23-15.38-4.79-23.08c-1.51-7.45-3-14.91-4.39-22.38-1.44-7.68-3-15.35-4.21-23-.91-5.63-1.75-11.24-2.53-16.88-.91-8-1.85-16-2.42-24q-1.1-15.59-1.67-31.19a9.73,9.73,0,0,0-2-5.63c.41-.71.84-1.4,1.3-2.09A48.38,48.38,0,0,1,683.9,628.58Z" transform="translate(-576.48 -155.45)"/></svg>