<svg xmlns="http://www.w3.org/2000/svg" viewBox="0 0 2732 2048"><defs><style>.cls-1{fill:#2c2c2c;}.cls-2{font-size:328px;fill:#fff;stroke:#fff;stroke-miterlimit:10;stroke-width:32px;}.cls-2,.cls-6{font-family:MyriadPro-Regular, Myriad Pro;}.cls-3{letter-spacing:0em;}.cls-4{letter-spacing:0em;}.cls-5{letter-spacing:-0.01em;}.cls-6{font-size:327px;fill:#ef3b39;}.cls-7{letter-spacing:0em;}.cls-8{letter-spacing:0em;}.cls-9{letter-spacing:-0.01em;}</style></defs><title>Artboard 1</title><g id="Draw_Layer-6" data-name="Draw Layer"><path class="cls-1" d="M1311.81,778l1.6-.21a22.63,22.63,0,0,0,4.3,1,50.88,50.88,0,0,0,7.51.27c.93,0,1.86-.08,2.79-.14s1.76-.18,2.64-.31a15.29,15.29,0,0,0,6.9-2.65,11.22,11.22,0,0,0,4.72-9.41,10.93,10.93,0,0,0-.19-6.67,6.42,6.42,0,0,0-1.63-2.77l-1.74-1.9c-.91-.61-1.83-1.2-2.77-1.77a20.42,20.42,0,0,0-4.81-1.78,15.68,15.68,0,0,0-4.27-.47l-1.28,0a28.17,28.17,0,0,0-5.31,1c-1,.23-1.9.47-2.83.78s-1.9.64-2.84,1c-2.77,1.12-5.67,2.57-7.64,4.9-.27.32-.53.67-.77,1a9.15,9.15,0,0,0-2.59,2.13,9.78,9.78,0,0,0-2.26,7.07C1301.76,774.23,1306.57,778.71,1311.81,778Z"/><path class="cls-1" d="M2163.56,1194.5c-1.59-5.06-2.82-10.26-4.17-15.4-1.25-4.77-2.44-9.57-3.63-14.36-3.08-12.39-6-24.8-8.91-37.23a15.57,15.57,0,0,0-1-2.79c.44-1.1.86-2.22,1.22-3.36a25.15,25.15,0,0,0,1.32-7.12,16.8,16.8,0,0,0-4-11.65c-3.43-3.82-8.15-4.72-12.95-4.72-2.46,0-4.94.24-7.29.44-6.61.56-13.16,1.71-19.68,2.87s-13,2.37-19.51,3.45q-10.47,1.72-20.95,3.36c-13.45,2.12-27,3.34-40.54,4.58s-27,2.47-40.48,3.86c-9.3,1-18.55,2.32-27.84,3.34-5.25.57-10.5,1.29-15.75,1.71l-16.59,1.31c-6.14.31-12.27.59-18.4,1-7.57.48-15.12,1-22.68,1.67-7,.59-13.91,1.25-20.85,1.9-6.11.56-12.24.93-18.36,1.39-5.72.29-11.43.61-17.16.79l-22,.69c-13.59.43-27.16,1.17-40.73,2.07l-13.41.89c-11.9.62-23.82,1.09-35.71,1.84-6.33.4-12.68.68-19,1.25l-8.68.78a11.63,11.63,0,0,0-3.61-4.06,12,12,0,0,0-6.86-2.11,11.74,11.74,0,0,0-9.85,5.09q-13.43,20.22-26.48,40.7c-7,10.85-13.67,21.85-20.68,32.66l-6.61,10.2c-1.93,3-4,5.84-6,8.75-4.11,6-8.34,11.8-12.56,17.67-4.88,6.79-9.82,13.53-14.76,20.27l-4.3-4.1c-8.91-8.67-17.65-17.49-26.38-26.33s-17.85-17.48-26.78-26.22l-.57-.57c0-.66-.09-1.32-.11-1.92a7.75,7.75,0,0,0-.3-1.64c-.6-2.2-1.2-4.39-1.92-6.55-.86-2.6-2-5.12-3.09-7.63s-2.25-4.79-3.46-7.15c-1.1-2.15-2.26-4.29-3.48-6.38-1.81-3.11-3.57-6.27-5.65-9.2a86.56,86.56,0,0,0-10.29-12c-2.63-2.57-5.29-5.12-8-7.6-1.92-1.75-4-3.34-6-5a78.31,78.31,0,0,0-15-9.29c-4.85-2.32-9.79-4.75-15-6.05-5.75-1.42-11.49-2.82-17.32-3.87q-7.05-1.27-14.12-2.38c-4.3-.66-8.62-1.21-12.91-1.94-4.47-.76-8.93-1.52-13.41-2.2-4.28-.66-8.54-1.38-12.77-2.28-1.67-.45-3.31-.93-4.94-1.53-2-.74-4-1.61-6-2.48-3.91-1.72-7.7-3.69-11.45-5.72l.63.34c-5-2.76-10.09-5.45-15.24-8-.09,0-.18,0-.26-.09a7.77,7.77,0,0,0-1.84-1,7.54,7.54,0,0,0-5.6.08,7.47,7.47,0,0,0-4,4.14c-.62,1.6-.84,4,.08,5.59,1.94,3.29,4,6.59,5.61,10,.81,1.7,1.58,3.37,2.26,5.11.55,1.4,1,2.82,1.44,4.24.53,2,1,4.05,1.43,6.11.5,2.57,1,5.15,1.44,7.73,1,5.38,2.22,10.72,3.42,16.07a289.89,289.89,0,0,0,9.66,33.58,175,175,0,0,0,13.26,28.36c1.9,3.28,3.81,6.56,5.81,9.78,1.48,2.37,3,4.67,4.61,7a136.3,136.3,0,0,0,10.18,12.82,79.39,79.39,0,0,0,12,10.81c2,1.55,4.08,3,6.16,4.53,1.82,1.3,3.71,2.48,5.59,3.69,1.07.7,2.27,1.25,3.39,1.87a69.43,69.43,0,0,0,8.18,4,47.91,47.91,0,0,0,6.21,1.8,29.64,29.64,0,0,0,5.47.84,43.5,43.5,0,0,0,11.66-1,73.39,73.39,0,0,0,8.43-2.34,6.52,6.52,0,0,0,1.11.9c6,3.78,11.82,7.68,17.55,11.8q7.4,5.34,14.5,11c4.62,3.68,9,7.61,13.42,11.55,4.13,3.71,8.1,7.6,12.31,11.22,5.21,4.49,10.58,8.79,16,13q-5.13,6.5-10.26,13c-8.67,11.06-17.31,22.14-25.7,33.41q-13.15,17.64-26.13,35.38-11.43,15.56-23.09,30.94-13.37,17.71-26.51,35.6-12.23,16.59-24.67,33c-8.41,11.08-16.92,22.09-25.21,33.26-8.05,10.85-16,21.77-24.23,32.5q-8.16,10.66-16.27,21.39c0-3.46-.12-6.93-.22-10.39-.34-12.75-1.06-25.47-1.75-38.2q-.42-9.95-.7-19.86c-.19-6.66-.19-13.33-.26-20-.14-13.39.1-26.78.18-40.16.08-13,0-25.94-.1-38.91s0-26.14.1-39.21q.16-21.25.31-42.52c0-5.71.18-11.41.22-17.11l.09-12.78c0-3-.1-6-.16-9-.24-12.12-1-24.22-1.76-36.31-.62-12.76-1.16-25.51-1.55-38.28-.41-13.93-.51-27.86-.6-41.79,0-6.64-.25-13.28-.38-19.92,0-2.36-.21-4.72-.34-7.08-.21-4.27-.44-8.53-.66-12.8-.37-7.25-1-14.48-1.61-21.72-.48-6.26-.9-12.54-1.35-18.81-.29-5.75-.61-11.5-.84-17.26-.29-7-.52-14-.92-21.07s-.76-13.87-1.32-20.8c-.32-4.08-.7-8.15-1-12.24l.12-.23a39.19,39.19,0,0,0,2.65-6,45.41,45.41,0,0,0,1.57-7.48,31.26,31.26,0,0,0,0-6.63c2.77-9.88,5.4-19.78,8-29.69,2.74-10.42,6.1-20.63,9.44-30.86l2.64-8.12c6.92-20.95,14.57-41.65,21.78-62.51,3.46-10,7.12-19.89,10.69-29.83,3.65-10.13,7.08-20.33,10.52-30.52,3.59-10.62,7.15-21.24,10.79-31.85,1.73-5,3.6-10,5.44-14.93.81-2.21,1.81-4.36,2.72-6.53,1.39-3.29,2.79-6.56,4.26-9.82a7.07,7.07,0,0,0-3.3-9.32,6.93,6.93,0,0,0-2.95-.66,7.34,7.34,0,0,0-2.7.53,25.31,25.31,0,0,0-6.07-15.63,33.53,33.53,0,0,0-5.08-4.89,51.43,51.43,0,0,0-7.08-4.37,44.18,44.18,0,0,0-5.79-2.36c-2.7-.94-5.42-1.77-8.2-2.44a114.7,114.7,0,0,0-15.32-2.22,109.74,109.74,0,0,0-19.52-.31c-1.7-.18-3.44-.23-5.13-.29l-1.7,0c-1.56,0-3.1.07-4.66.19a80.43,80.43,0,0,0-23.81,5.69,84.22,84.22,0,0,0-10.73,5.31,53.48,53.48,0,0,0-9.66,7.57,44.81,44.81,0,0,0-7.11,9.26,49.42,49.42,0,0,0-4.75,10.47,58.14,58.14,0,0,0-1.92,6.86,32.81,32.81,0,0,0-.48,7.34c0,.52.06,1,.12,1.57l-1.29,6.73c-1,5.07-2.2,10.09-3.32,15.13-.58,2.64-1.37,5.25-2.06,7.86-.55,2.08-1.07,4.17-1.68,6.23q-2.48,8.34-5,16.66c-3.06,10.22-6,20.49-9,30.72-3.29,11.2-6.67,22.36-10.24,33.47-.11.33-.21.66-.32,1-1.73,5.21-3.45,10.42-5.12,15.66-1.83,5.73-3.55,11.49-5.23,17.28-.7,2.38-1.27,4.8-1.89,7.2s-1.17,4.49-1.66,6.76q-1.18,5.45-2.28,10.89c-3.37-.22-6.75-.37-10.13-.42-2,0-4,0-5.93,0l-3.14,0c2.64-8.82,5.28-17.66,8.16-26.4,3.69-11.23,7.68-22.36,11.55-33.52q5.43-15.63,11.59-31c4.3-10.67,8.5-21.39,12.22-32.28,1.84-5.37,3.62-10.76,5.61-16.08,2.13-5.71,4.26-11.41,6.35-17.13,3.87-10.6,8.13-21,12.29-31.51s8.55-20.9,12.55-31.46c2-5.29,3.86-10.64,5.77-16,2-5.48,4-10.94,5.91-16.43,3.75-10.58,7.23-21.27,10.18-32.1,3-11.19,6.38-22.28,9.68-33.39,1.6-5.37,3.48-10.65,5.29-16,1.76-5.12,3.37-10.31,5.23-15.4,1.16-3.2,2.32-6.39,3.52-9.58.29-.46.58-.94.85-1.43a28,28,0,0,0,2.64-6.46,25.72,25.72,0,0,0-.35-14.29,30.07,30.07,0,0,0-2.89-6.47,30.73,30.73,0,0,0-4.43-5.66,41.11,41.11,0,0,0-5.31-4.35,42.32,42.32,0,0,0-6.46-3.4c-7.13-3.32-15-4.62-22.73-5.69-3.18-.45-6.41-.63-9.61-.92-3.94-.36-7.91-.45-11.87-.45l-3.7,0c-1.94,0-3.88.3-5.81.5-1.24.13-2.44.27-3.66.5a79,79,0,0,0-8.33,2,9,9,0,0,0-3.25,1.47,91.59,91.59,0,0,0-11.38,2.77c-7.3,2.27-14.67,5.41-20.46,10.51-.2.18-.38.36-.57.55a9.47,9.47,0,0,0-2.91,1.81l-1.56,1.86a9.47,9.47,0,0,0-1.5,4.73c-.19,1.13-.38,2.27-.58,3.4q-.88,4.68-1.79,9.36c-.5,2.56-1.14,5.07-1.77,7.59-1.44,5.69-3,11.31-4.93,16.87q-3,9-6.38,17.83c-2,5.34-4.29,10.58-6.51,15.83-2.32,5.47-4.54,11-6.71,16.51s-4,11.37-5.71,17.12c-3,9.69-6,19.35-8.89,29.06,0-.55.07-1.11.11-1.66.44-7.09.65-14.18.9-21.27q.82-23.73,1.31-47.46c.33-14.68,1.46-29.35,2.34-44,.93-15.41,2.32-30.78,3.21-46.19.91-15.8,2.1-31.57,3.18-47.36.47-6.85.9-13.73,1.69-20.55.87-7.55,1.8-15.1,2.57-22.67q1.63-16.2,3.16-32.41a10.72,10.72,0,0,0,4.91-4.26l.25-.46a11.76,11.76,0,0,0,1.86-5.87,8.9,8.9,0,0,0,0-1.93c-.14-1.79-.3-3.58-.55-5.37-.22-1.51-.45-3-.68-4.54-.36-2.37-.72-4.75-1.09-7.12-.84-5.35-1.71-10.69-2.43-16.05-1.49-11.09-2.73-22.21-4.3-33.29-1.52-10.69-2.8-21.41-4.45-32.09s-3.21-21.37-4.92-32c-.62-3.92-1.29-7.84-1.84-11.77-.29-2.14-.6-4.27-.86-6.4-.14-1.17-.29-2.34-.43-3.5-.18-1.43-.41-2.85-.68-4.27a14.8,14.8,0,0,0-3.69-7.16,12.08,12.08,0,0,0-5.15-3.31l-3.17-.56H1140a11.94,11.94,0,0,0-5.6,1.39c-2,1.36-3.53,2.29-4.87,4.38a13.24,13.24,0,0,0-1.56,3.55c-.14.59-.32,1.17-.47,1.75-.31,1.2-.62,2.4-.94,3.59-.66,2.42-1.34,4.84-2,7.27-1.32,5-2.71,10-4.06,15-2.83,10.48-5.67,21-8.4,31.47-1.33,5.13-2.41,10.33-3.59,15.49-1.23,5.43-2.42,10.85-3.65,16.28-1.12,4.92-2.3,9.83-3.37,14.77-1.2,5.56-2.37,11.14-3.61,16.69-1.94,8.76-4.37,17.42-6.62,26.1-2.51,9.69-5,19.38-7.16,29.16a10.37,10.37,0,0,0,.67,7.56,9.5,9.5,0,0,0,2.13,2.7c-.42,8.66-.9,17.3-1.39,26-.4,7-1,13.93-1.57,20.89-1.06,13.39-2.57,26.75-3.81,40.12-1.36,14.63-2.41,29.26-3.4,43.91q-.72,10.74-1.46,21.49c-1.5-8-3.08-15.92-4.61-23.88-2-10.14-3.73-20.32-5.76-30.44-2.28-11.44-4.71-22.85-6.93-34.31-1.06-5.46-1.92-11-2.82-16.44-.39-2.35-.67-4.71-1-7.06-.37-2.57-.78-5.15-1.09-7.74-1.27-10.54-2.53-21.08-3.55-31.66-1.09-11.3-2.13-22.61-3-33.94s-1.63-22.84-2.21-34.28c-.52-10.29-1-20.58-1.53-30.86-.61-10.9-1.44-21.78-2.31-32.66-.15-1.94-.32-3.88-.47-5.83,1.59-1.05,3.14-2.14,4.67-3.28a6.37,6.37,0,0,0,2.28-7.31,6.07,6.07,0,0,0-.43-.89,10.29,10.29,0,0,0-1.91-6.76l0-.05c-2.08-4.85-4.4-9.6-6.37-14.5s-4-10-5.58-15.17c-3.22-10.56-6.19-21.22-9.52-31.74-1.75-5.54-3.51-11.06-5.35-16.56-1.62-4.83-3.28-9.69-5.25-14.4-4.39-10.53-8.9-21-13.65-31.38-1-2.18-2.07-4.29-3.18-6.41a44,44,0,0,0-2.76-4.54,17.91,17.91,0,0,0-6.15-5.39,10.71,10.71,0,0,0-4.57-1,5.74,5.74,0,0,0-.6,0,10.45,10.45,0,0,0-4.84,1.74,11.85,11.85,0,0,0-3.31,3.77,17.58,17.58,0,0,0-1.13,3.17,41,41,0,0,0-1,4.26c-1.09,5.47-1.85,11-2.63,16.53-1.53,10.7-2.6,21.44-4.26,32.12-.78,5-1.76,10-2.76,15-1.07,5.28-2.13,10.55-3.39,15.79s-2.76,10.73-4.06,16.11q-1.08,4.45-2.17,8.91c-.63,2.62-1.1,5.29-1.64,7.93-1.55,7.51-3,15.05-4.44,22.58a8.38,8.38,0,0,0,6.2,9.59l1.12.87c.77,11.44,1.58,22.89,2.68,34.3,1.06,11,2.22,22,3.33,32.95s2.13,22,3.26,33q1.71,16.88,3.8,33.71c1.34,10.88,2.69,21.77,3.93,32.66s2.49,22.05,3.8,33.07c1.32,11.2,2.68,22.4,4,33.61,1.19,10.52,2.13,21.09,3.55,31.59,2.93,21.64,6.21,43.23,9.05,64.87q1.06,8.06,2,16.12l-.85.09a69.66,69.66,0,0,0-11.37,2.31,74.66,74.66,0,0,0-9.79,3.65l-1.25-3.12q-7.51-18.76-15.07-37.53c-4.92-12.28-10.45-24.32-15.76-36.44-10.94-25-20.71-50.46-30.76-75.83-9.9-25-19.23-50.25-28.19-75.61-4.15-11.77-8-23.7-11.54-35.66q-6.28-21.12-12.36-42.29-1.11-3.87-2.2-7.76A10.31,10.31,0,0,0,852,338a5.11,5.11,0,0,0-1.09-1.69c-1.25-1.92-2.44-3.89-3.82-5.71-1.7-2.25-3.52-4.4-5.31-6.58-3.38-4.12-6.62-8.35-9.8-12.63s-6.17-8.41-9-12.79c-1.48-2.3-3-4.59-4.45-6.9-1.57-2.47-3.08-5-4.73-7.42L809,277.22c-1.59-2.31-3.33-4.53-5-6.79-3.34-4.56-6.78-9.05-10.18-13.57-2.91-3.88-5.85-7.75-8.69-11.67q-5.19-7.2-10.18-14.5c-3.09-4.52-6.06-9.12-9-13.72-3.35-5.19-6.14-10.75-9.68-15.81a22.28,22.28,0,0,0-4-4.44,11.52,11.52,0,0,0-2.54-1.51,10.7,10.7,0,0,0-4.27-.72h-.13a7.25,7.25,0,0,0-5,2.63,7.43,7.43,0,0,0-1.44,2.33,10.06,10.06,0,0,0-.73,4.41c.09.77.14,1.55.23,2.33.3,2.47.61,4.94,1,7.4.84,5.36,1.8,10.69,2.65,16,1.65,10.35,2.86,20.75,4.77,31.06,2,11,4.46,21.93,6.66,32.9,2.16,10.75,4,21.54,5.85,32.35.9,5.4,1.85,10.77,2.76,16.16.88,5.16,1.51,10.36,2.11,15.56,1.65,14.4,2.94,28.85,4.45,43.26a6.23,6.23,0,0,0,6.65,5.63,6.13,6.13,0,0,0,1.22-.24q5,19.4,10.35,38.72c3.48,12.6,6.83,25.22,9.92,37.92,1.42,5.84,2.77,11.71,4.37,17.51.87,3.14,1.66,6.31,2.62,9.42l3,9.79c2,6.38,4.12,12.72,6.17,19.08,1.84,5.67,3.71,11.34,5.65,17,4.28,12.44,8.86,24.76,13.16,37.19,4.06,11.71,8.06,23.44,12.15,35.14C848.09,640,852,652,856.27,664s8.74,23.6,13.17,35.38c4.55,12.09,9.15,24.15,14.1,36.08s10,24.14,14.71,36.34c2.13,5.57,4.25,11.15,6.57,16.64s4.81,11.27,7.15,16.93c4.85,11.77,9.42,23.64,14.07,35.48,4.54,11.57,9.53,22.94,14.41,34.37,4.7,11,9.13,22.13,13.71,33.19s9,22.26,13.65,33.32c2.43,5.76,4.84,11.52,7.16,17.32,2.16,5.41,4.36,10.79,6.68,16.12-5.06.5-10.13,1-15.19,1.56-2.37.27-4.74.55-7.11.86l-.19-.08a28,28,0,0,0-6.08-1.33,33.48,33.48,0,0,0-6.41-.11c-1.77.08-3.53.22-5.29.41l-.12-.18c-3.29-4.87-6.47-9.78-9.66-14.71-5.51-8.53-10.62-17.32-15.88-26q-17.44-28.81-35.54-57.21c-5.64-8.79-11.62-17.36-17.39-26.07-6.06-9.16-12.11-18.32-18-27.57Q827.1,797,809.94,769c-2.84-4.69-5.65-9.39-8.56-14s-5.79-9.42-8.83-14q-10-15.23-20.3-30.29c-3-4.44-6.09-8.85-9.14-13.27-1.47-2.13-3-4.22-4.56-6.29a6.91,6.91,0,0,0-.94-2,6.69,6.69,0,0,0-2-1.89c-.28-.37-.58-.74-.87-1.11a11.45,11.45,0,0,0,0-1.31,10.62,10.62,0,0,0-3.57-6.92c-2.57-2.49-5.22-4.88-7.8-7.35s-5-5-7.46-7.56q-6.6-6.81-13-13.78-10.5-11.87-20.9-23.83c-7.4-8.48-14.68-17.07-22-25.58-5.75-6.66-11.39-13.39-16.89-20.26-3.19-4-6.4-7.95-9.67-11.87-1.44-1.73-3-3.37-4.46-5s-2.85-3.11-4.4-4.55c-.4-.33-.79-.68-1.18-1a10.11,10.11,0,0,0-2.49-1.77,8.81,8.81,0,0,0-3.13-.87,3.92,3.92,0,0,0-.59.05,13.23,13.23,0,0,0-2.41.58c-2.33.86-4.3,3.49-3.87,6.07a70.87,70.87,0,0,0,3.07,10.31q1.23,3.77,2.44,7.53c1.66,5.12,3.44,10.18,5.31,15.22,2,5.41,3.94,10.84,5.94,16.25,1.86,5.05,3.94,10,6,15,1.91,4.57,3.68,9.21,5.21,13.93,1.65,5.12,3.24,10.25,4.9,15.36,3.35,10.35,7.09,20.56,10.45,30.9,2.71,8.34,5.35,16.69,7.74,25.13,1.65,5.8,3.14,11.65,4.62,17.5l0,.08a6.62,6.62,0,0,0,2.14,8.18c0,.13.07.26.11.4.51,2,2.73,3,4.67,2.85,7.41,9.63,14.81,19.29,22.1,29,3.14,4.19,6.3,8.39,9.37,12.64s6.42,8.72,9.44,13.2,6.26,9.12,9.19,13.8c3,4.85,6.06,9.68,9,14.55q8.57,14,17.6,27.71c5.94,9,11.93,18,17.59,27.23q8.84,14.34,17.39,28.83c11.21,19,22.07,38.27,32.9,57.52q8.58,15.28,17.12,30.57l3.48,6.25-.24.13c-5.69,3.28-11.16,6.86-16.5,10.68a105.85,105.85,0,0,0-11.64,9.92c-2,1.94-4,3.93-6,5.94-1.58,1.61-3.06,3.37-4.58,5a52.92,52.92,0,0,0-5.63,7.9,147.57,147.57,0,0,0-8.84,16.79,44.7,44.7,0,0,0-2.65,7.32,48.86,48.86,0,0,0-1.35,7.3c-.08.82-.1,1.65-.1,2.49l-.29,0a12,12,0,0,0-7.79,2.87c-2.21,1.88-4.25,5.15-4.18,8.17.3,14.48.61,29,.43,43.48q-.27,20.58-.95,41.15c-.41,12.7-.55,25.41-.82,38.11-.31,14.05-.69,28.09-.94,42.14-.1,5.92,0,11.85.07,17.77.05,7.34.09,14.66.09,22,0,12.69-.29,25.39-.06,38.08.25,13.29.59,26.57.85,39.86.27,14.22.54,28.43,1,42.64.51,14.39,1.36,28.77,2.15,43.15,1.29,26.71,2.56,53.43,3.51,80.16.47,13.35.52,26.73.65,40.1.12,14.21.72,28.39,1.53,42.59.69,12.11,1.48,24.24,2.75,36.3.56,5.37,1.2,10.73,1.86,16.08-.12.09-.24.17-.35.27a12.06,12.06,0,0,0-4.18,8.17c-.23,2.9.65,6.64,2.83,8.74,1.57,1.52,3.13,3.07,4.69,4.6a20.77,20.77,0,0,0,2.41,7.66,11.94,11.94,0,0,0,9.82,6.73,12.46,12.46,0,0,0,2.28-.06c2.45,2.45,4.91,4.89,7.35,7.35,3.93,4,7.93,7.84,12,11.68,4.42,4.2,8.91,8.39,13.61,12.29,2.31,1.93,4.57,4,7,5.8l7.77,5.82c2.22,1.65,4.63,3.07,6.95,4.58,2.1,1.37,4.23,2.6,6.42,3.83,3.07,1.72,6.12,3.5,9.29,5l8.92,4.29c2.75,1.32,5.67,2.37,8.48,3.54,2.32,1,4.7,1.77,7.08,2.62s4.68,1.67,7.07,2.39c2.73.82,5.44,1.77,8.21,2.45l9.67,2.37c3.82.93,7.72,1.56,11.57,2.3,11.13,2.13,22.48,3.22,33.74,4.39,5.2.54,10.46.73,15.69.9,6.17.21,12.35.32,18.53.43q7.41.12,14.82,0l9.69-.11c3.18,0,6.38-.31,9.55-.46a306,306,0,0,0,36.45-4.42c11-1.85,21.83-4.34,32.61-7.07,5.1-1.29,10.23-2.57,15.26-4.11q9-2.74,18-5.69,8.61-2.83,17.14-5.93c5.34-1.94,10.73-3.84,16-6,10.5-4.29,20.87-8.81,31.13-13.65,4.5-2.11,9-4.27,13.41-6.55-2.12,3.6-4.2,7.23-6.33,10.83-2.42,4.12-4.82,8.25-7.32,12.31q-1.82,2.94-3.67,5.86c-.65,1-1.32,2-2,3.07a33.77,33.77,0,0,0-2.37,4.64,14.73,14.73,0,0,0-.5,8.44,11.48,11.48,0,0,0,2.82,5.52c.8,23.06,1.46,46.16,4,69.1a66.26,66.26,0,0,0,3.94,15.89,10.17,10.17,0,0,0,.85,1.43,12.07,12.07,0,0,0,4.55,6.19,12.54,12.54,0,0,0,9.13,2q21.23-2.75,42.51-5c11.69-1.21,23.41-2.11,35.13-2.93,3.41-.24,6.82-.41,10.23-.6l17-.85c6.22-.31,12.47-.59,18.68-1.19,3.06-.29,6.13-.48,9.17-.87l10.56-1.33c5.45-.7,10.89-1.5,16.34-2.23,12.25-1.64,24.47-3.34,36.69-5.25,5.55-.87,11.09-1.79,16.64-2.66s11-1.66,16.54-2.64c11.92-2.13,23.78-4.51,35.66-6.88,12.2-2.43,24.43-4.76,36.64-7.16,23.34-4.58,46.71-8.9,70.18-12.78,11.06-1.82,22.21-3.31,33.35-4.61,12-1.4,23.94-2.65,36-3.65q17.22-1.44,34.43-2.9c10.13-.87,20.28-1.85,30.43-2.44l3.43-.18h0c4.93-.19,9.87-.35,14.81-.37h2.22a64.91,64.91,0,0,0,7.9-.28c2.84-.32,5.64-.86,8.46-1.26,4.37-.63,7.73-4.74,8.07-9a9.83,9.83,0,0,0-.26-3.17,75.65,75.65,0,0,0,5-5.73h0a12.84,12.84,0,0,0,2.74-2.72c2.28-3,4.33-6.27,6.32-9.52l6.84-9.49a9.54,9.54,0,0,0,1.71-4.41c1.94-3.12,3.88-6.24,5.86-9.33,6.84-10.72,13.39-21.62,19.9-32.54,6.72-11.28,13.41-22.58,20.27-33.77s13.57-22.53,20.52-33.68c3.28-5.26,6.82-10.34,10.21-15.52,3.63-5.57,7.28-11.13,10.82-16.76,2.24-3.56,4.5-7.11,6.75-10.66q4.47,2.72,9,5.41,15.83,9.49,31.12,19.78c9.67,6.48,19.22,13.14,29,19.52,4.78,3.13,9.57,6.23,14.24,9.52,2.19,1.54,4.35,3.12,6.5,4.7,2.53,1.85,5,3.77,7.72,5.38a11.84,11.84,0,0,0,9.13,2.09l2.16,1.06c5.22,2.57,10.53,5,15.78,7.48,5.54,2.67,11.07,5.32,16.79,7.6,2.72,1.08,5.46,2.16,8.23,3.12,1.57.55,3.14,1,4.74,1.52,2,.58,4,1.06,6,1.44a32.46,32.46,0,0,0,9,.13,24.67,24.67,0,0,0,4.61-1.22l.79-.42a12,12,0,0,0,5-4,15.76,15.76,0,0,0,2.23-3.75c.83-1.58,1-4.92.76-6.62-.62-4.47-3.11-8-6.18-11.16-2.65-2.7-5.42-5.33-8.24-7.85-9-8-18.56-15.19-28.1-22.48-4.76-3.63-9.45-7.36-14.25-10.94s-9.92-7.26-14.94-10.81c-10-7.07-20.08-14.13-29.89-21.51s-19.47-14.7-29.3-21.92c-7.19-5.29-14.39-10.57-21.48-16l3.1-5.15c6.78-11.16,13.55-22.33,20-33.69q9.81-17.3,19.32-34.73c6.27-11.4,13-22.54,19.44-33.86,3.19-5.62,6.4-11.23,9.68-16.8s6.63-10.92,10-16.37c6.5-10.65,12.57-21.55,19.11-32.19,6.69-10.9,13.63-21.66,20.32-32.56,6.8-11.07,13.41-22.25,20.47-33.16s14.08-22.06,20.92-33.22,13.79-22.66,21.11-33.72c3.37-5.1,6.81-10.15,10.16-15.26,3.53-5.39,6.89-10.9,10.25-16.41q6.09-10,11.85-20.14a11.21,11.21,0,0,0,13-4.16l1.35-2.59A11.3,11.3,0,0,0,2163.56,1194.5Zm-541.79,52.78c8-11.06,15.32-22.55,22.56-34.09q11.64-18.56,23.5-37c5.17-8.07,10.46-16.06,15.76-24q7.47-.69,15-1.34c3.12-.28,6.26-.39,9.38-.59l10-.62q15.78-.75,31.57-1.53c10.28-.52,20.55-1.23,30.82-1.83,13.76-.52,27.51-.87,41.26-1.19,6.91-.15,13.82-.46,20.72-.73s13.73-.86,20.58-1.31c5.68-.37,11.35-.92,17-1.39,4.94-.4,9.89-.72,14.84-1.07,6-.28,12.07-.56,18.11-.77,4.27-.15,8.55-.22,12.82-.49l11.12-.7c13.06-.82,26-2.35,39.08-3.57,13.94-1.31,27.91-2.29,41.88-3.34l20.49-1.5c6.39-.47,12.82-.81,19.18-1.55,12.81-1.49,25.59-3.26,38.36-5,9.34-1.29,18.65-3,28-4l-.44.89c-3,5.62-6.25,11.11-9.61,16.51-3.65,5.86-7.59,11.5-11.67,17.06-3.95,5.38-8,10.65-12,16-3.8,5.08-7.57,10.19-11.39,15.25-8.17,10.85-16.35,21.68-23.88,33q-6.33,9.51-12.72,19c-3.73,5.51-7.61,10.92-11.46,16.35-3.57,5-7.19,10.06-10.62,15.2q-6.32,9.54-12.39,19.19-10.12,16.08-20.83,31.78c-15.74,23.07-31.11,46.39-46.56,69.65q-5.71,8.63-11.33,17.33c-3.85,6-7.54,12-11.24,18-6.87,11.25-13.37,22.73-20,34.14q-10.59,18.27-21,36.68c-3,5.23-6,10.41-8.93,15.65l-.31.56-1.91-1.66q-14-12.32-28-24.62c-9.07-8-18.08-16-27.21-23.9-19-16.47-37.68-33.39-57.11-49.38l-1.48-1.21c.77-.44,1.54-.9,2.3-1.38a56.44,56.44,0,0,0,18.07-18,45.13,45.13,0,0,0,3.19-6.74,34,34,0,0,0,1.66-5.31,33.32,33.32,0,0,0-.09-14.87,16.85,16.85,0,0,0-.85-2.51c-.59-1.48-1.22-2.93-1.92-4.35a35.11,35.11,0,0,0-4-5.93,85,85,0,0,0-7.39-8.14,86.3,86.3,0,0,0-9.66-8.36,27,27,0,0,0-4.25-2.57,29.23,29.23,0,0,0-7.44-2.7c-1.56-.3-3.15-.46-4.74-.61a7.56,7.56,0,0,0-.83,0,25.91,25.91,0,0,0-3.86.44,15.69,15.69,0,0,0-2.33.53,27.16,27.16,0,0,0-4.16,1.7,34.17,34.17,0,0,0-5.47,3.86,30.63,30.63,0,0,0-4.82,5.4,10,10,0,0,0-.75,1.59,38.84,38.84,0,0,0-6.48,1.92,49.07,49.07,0,0,0-5.58,2.52,39.22,39.22,0,0,0-5.83,4,31.73,31.73,0,0,0-7.61,8.82q-11.7-9.54-23.39-19.09c-9.73-8-19.35-16.09-29.15-24q-8.25-6.64-16.54-13.27c-4.32-3.44-8.61-7-12.71-10.7q-5.6-5.1-11.09-10.29Q1608.9,1265.13,1621.77,1247.28Zm115.42,107.59c-.38-.71-.75-1.43-1.11-2.15.3.09.6.18.91.29a28.69,28.69,0,0,1,3.68,2.21c2.13,1.77,4.15,3.65,6.16,5.58a83.15,83.15,0,0,1,6,6.31,28.62,28.62,0,0,1,1.76,3c.17.54.31,1.08.44,1.63,0,.82,0,1.64,0,2.45a32.39,32.39,0,0,1-1.23,4.33,37.33,37.33,0,0,1-3.15,5.35,49.77,49.77,0,0,1-6.45,6.37,61.67,61.67,0,0,1-10.54,6.14l-.05,0c-10.87-8.74-21.77-17.44-32.61-26.23.24-1,.52-1.88.85-2.81a28.29,28.29,0,0,1,2.32-4,31.33,31.33,0,0,1,3.86-3.78,35.08,35.08,0,0,1,5.7-3.3,30.21,30.21,0,0,1,4.64-1.4,10,10,0,0,0,5.32,1.54l.84-.11,0,0c.92,1.43,1.62,3,2.42,4.51a5.76,5.76,0,0,0,5.13,2.91,5.88,5.88,0,0,0,5.09-8.89Zm-181.5-88.62a42.86,42.86,0,0,0-7.07,7.37c-2.62,3.62-4.92,7.44-7.26,11.24-2.12,3.43-4.28,6.84-6.42,10.26-1.1,1.76-2.36,3.42-3.54,5.13s-2.25,3.23-3.4,4.83c-1.28-.95-2.56-1.93-3.81-2.92h0a12.45,12.45,0,0,0,1.34-2.43c1.5-3.75,3-7.57,4.73-11.21q1.83-3.78,3.79-7.48c2.2-3.75,4.39-7.49,6.54-11.26,1.48-2.59,2.87-5.21,4.11-7.93.79-1.72,1.36-3.56,2-5.37l2.85,3.08Zm-103.8-19.45c-.15.54-.31,1.08-.48,1.61-2.54.79-5.05,1.64-7.59,2.44a41.48,41.48,0,0,1-6.54,1.07,28.68,28.68,0,0,1-3.46-.43,53.38,53.38,0,0,1-8.6-3.74c-2.76-1.76-5.46-3.56-8.15-5.43a100.67,100.67,0,0,1-10-7.82c-8.1-8.21-14.67-17.81-20.75-27.55-2.35-4-4.64-8-6.8-12.08-2.45-4.63-4.68-9.38-6.76-14.19a289.59,289.59,0,0,1-11.22-30.79c-1.39-4.58-2.77-9.16-4.09-13.76-.78-2.88-1.53-5.79-2.47-8.62-1-3.15-2.15-6.24-3.4-9.31a55.5,55.5,0,0,0-2.68-5.62c2.19,1.31,4.35,2.66,6.51,4,4.65,3,9.46,5.71,14.34,8.29,4.66,2.47,9.89,3.85,15,5.23s10.2,2.82,15.31,4.23c3.94,1.08,7.93,2,11.89,3,4.15,1.09,8.29,2.19,12.42,3.35s8.32,2.48,12.38,4q2.91,1.1,5.76,2.34c1.81.79,3.57,1.66,5.34,2.55a91,91,0,0,1,11.28,7.31c3.61,2.87,7.05,5.88,10.42,9,3.09,3.1,6.07,6.27,8.9,9.61a81,81,0,0,1,6.89,9.51c2.17,3.88,4.31,7.81,6.19,11.83a7.59,7.59,0,0,0,.19,2.15,7,7,0,0,0-2.3,1.52,26,26,0,0,0-2.94,3.19c-.42.61-.81,1.22-1.2,1.83-.21-.42-.41-.84-.63-1.26-.78-1.46-1.63-2.88-2.48-4.3-1.54-2.56-3.15-5.06-4.76-7.58s-3.4-5.19-5.1-7.79l-4.87-7.46-4.56-7a2.9,2.9,0,0,0-2-1.11l-.34,0a3,3,0,0,0-3,2.65,3.19,3.19,0,0,0,.63,2.19q4.33,6.69,8.71,13.34-8.34-8.58-16.66-17.17l-11.29-11.6a1.9,1.9,0,0,0-1.19-.66h-.19a1.8,1.8,0,0,0-1.12.38,1.84,1.84,0,0,0-.66,1.19,1.7,1.7,0,0,0,.38,1.32l24.14,24.76q7.76,8,15.5,15.94l1.48,1.52,1.93,2.88c.92,1.38,1.83,2.76,2.72,4.16l.15.26-.71,1c-2.36,3.33-4.74,6.65-7.06,10-2.54,3.69-5.1,7.36-7.73,11-1.21,1.68-2.52,3.29-3.85,4.88a9.67,9.67,0,0,0-2.22.08,3.32,3.32,0,0,0-.7-.7,12.26,12.26,0,0,0-1.44-.94c-.45-.26-.91-.5-1.37-.74a7.08,7.08,0,0,0-.49-.9,10.38,10.38,0,0,0-1.3-1.65c-.54-.58-1-1.18-1.57-1.78-.92-1-1.86-2-2.82-3a3.91,3.91,0,0,0-.45-.39c-.72-.87-1.44-1.75-2.16-2.61s-1.24-1.5-1.86-2.25c-.22-.27-.45-.53-.66-.81q-1.73-2.24-3.43-4.48c-1.8-2.36-3.57-4.76-5.33-7.16-2-2.73-4-5.5-5.75-8.39a1.28,1.28,0,0,0-.57-.43,1.38,1.38,0,0,0-1,0,1.36,1.36,0,0,0-.73.76,1.29,1.29,0,0,0,0,1c1,1.81,2.15,3.55,3.28,5.3q1.2,1.83,2.46,3.63l3.25,4.59c.85,1.21,1.76,2.37,2.64,3.55l2,2.61c.25.34.5.69.77,1l2.28,2.77c-1-.81-2-1.63-3.07-2.45l-8.69-7c-1.35-1.09-2.73-2.16-4.06-3.28l-14-11.93-5.63-4.79c-4.06-3.44-8-7-12-10.49a2.77,2.77,0,0,0-1.74-.56,2.73,2.73,0,0,0-.41,0,3,3,0,0,0-2,1.18,2.92,2.92,0,0,0-.53,2.14,3.06,3.06,0,0,0,1.17,2c4.1,3.58,8.16,7.2,12.31,10.72l7,5.92,8.93,7.57c.64.54,1.27,1.09,1.9,1.64l-6.55-3.62-.52-.29a2.39,2.39,0,0,0-.83-.15,1.83,1.83,0,0,0-.33,0,2.27,2.27,0,0,0-1.52.92,2.3,2.3,0,0,0-.42,1.67,2.17,2.17,0,0,0,.92,1.52c3.13,1.73,6.25,3.47,9.39,5.19q10.66,5.88,21.35,11.71l2.45,1.88a57,57,0,0,0,4.83,3.14,2.57,2.57,0,0,0,1.25.49,2.53,2.53,0,0,0,1.16-.14,9.55,9.55,0,0,0-2.74,3.52,2.68,2.68,0,0,0-.41-.76,2.73,2.73,0,0,0-1.81-1,2.94,2.94,0,0,0-2,.57l-.29.18a6.51,6.51,0,0,1-.72.31c-.22,0-.43.07-.65.09a12.68,12.68,0,0,1-1.85-.26c-1.69-.49-3.33-1.17-5-1.79-1-.37-2-.7-3-1.14l-4-1.83c-1-.45-2-.85-3-1.34-5.93-3-11.86-6.09-17.78-9.18a2.31,2.31,0,0,0-1-.22,3.33,3.33,0,0,0-1.29.26,3.11,3.11,0,0,0-1.67,1.71,3.06,3.06,0,0,0,0,2.32,3.35,3.35,0,0,0,1.71,1.67q5.61,2.92,11.24,5.82l4.93,2.52c.68.35,1.36.71,2,1l4.8,2.17c1,.44,1.93.87,2.93,1.24,1.52.55,3,1.14,4.56,1.65.94.32,1.87.62,2.83.85a12.39,12.39,0,0,0,3.38.37,7.85,7.85,0,0,0,2.62-.54,8,8,0,0,0,2.37-1.56h0C1452,1246.18,1452,1246.49,1451.89,1246.8Zm17.37,15.34.15-.29,2.6-.72a12.15,12.15,0,0,0,5-4c3-3.52,6.19-7,8.92-10.76s5.19-7.3,7.73-11c2.32-3.37,4.7-6.69,7.06-10,.72-1,1.44-2,2.15-3.05l.55.37a16.31,16.31,0,0,0-2.64,3.35c-1.42,2.44-2.77,4.92-4.12,7.39s-2.53,4.67-3.79,7c-4.75,8.51-9.7,16.89-14.58,25.33-.31.55-.61,1.11-.91,1.66Q1473.33,1264.76,1469.26,1262.14Zm27,18.34a7.86,7.86,0,0,0,.77-1c4.34-7.47,8.85-14.85,13.14-22.36,2.14-3.74,4.25-7.5,6.36-11.27,1.4-2.5,2.8-5,4.14-7.54a23.48,23.48,0,0,0,2.31-6.85q5.25,5.37,10.43,10.82a10.13,10.13,0,0,0-3.9,3.18c-1.5,1.68-3,3.31-4.54,5a41.14,41.14,0,0,0-3.34,4.73c-2.1,3.27-4,6.71-5.95,10.06-2.45,4.16-4.75,8.39-6.85,12.73-1.43,2.95-2.72,6-4,9Q1500.55,1283.66,1496.21,1280.48Zm-150.4,335.88c8.3-11,16.77-21.86,25-32.91s16.42-22.33,24.78-33.37,16.88-21.94,25.15-33q13.13-17.6,26.12-35.27c8.05-10.92,16.27-21.72,24.42-32.57,16.44-21.89,32.35-44.18,49-66,9-11.76,18.1-23.39,27.29-35l1.59-2c5.05,3.74,10.1,7.48,15.11,11.27-.55,1.24-1.06,2.49-1.56,3.74a53.21,53.21,0,0,0-3,13.71,28.45,28.45,0,0,0-.05,5.46,37.62,37.62,0,0,0,1.14,7.07,30,30,0,0,0,2.75,6.31,29.13,29.13,0,0,0,4.68,6.09,35.08,35.08,0,0,0,5.48,4.3,32.24,32.24,0,0,0,4.53,2.51,48.58,48.58,0,0,0,13,4,50.05,50.05,0,0,0,13,.56,58.46,58.46,0,0,0,7.55-1.21,39,39,0,0,0,5.94-2.06c2.79-1.17,5.51-2.41,8.15-3.82l1.48,1.21c9,7.49,18,15,26.65,22.93q13.56,12.36,27.59,24.2c16.68,14.1,33.87,27.63,51.13,41-.63.36-1.24.73-1.84,1.12a43.84,43.84,0,0,0-9.26,8.09,43.39,43.39,0,0,0-10.44,22.29,55.13,55.13,0,0,0-.62,7,47.37,47.37,0,0,0,.64,6.93,38.39,38.39,0,0,0,3.94,12,33.31,33.31,0,0,0,4,5.75,34.38,34.38,0,0,0,3.61,3.83,59.3,59.3,0,0,0,5.69,4.42,42.61,42.61,0,0,0,5.21,3.07,50.76,50.76,0,0,0,25.92,5.88,62.48,62.48,0,0,0,25.66-7.58,54.88,54.88,0,0,0,7.45-4.88,63,63,0,0,0,8.1-7.11,55.43,55.43,0,0,0,5.08-6.41l3.32,2.48c4.65,3.48,9.19,7.1,13.9,10.5q6.59,4.75,13.25,9.42c-2.12,3.8-4.26,7.6-6.34,11.43-6.66,12.3-13,24.75-19.83,37-6.17,11.09-12.76,22-18.76,33.14-6.39,11.92-12.52,24-18.63,36-3,5.6-6.12,11.09-9.41,16.53-1.7,2.82-3.41,5.62-5.08,8.45l-5.07.41c-3.51.27-7,.5-10.55.71-11.27.51-22.54,1-33.81,1.49-11.58.55-23.16,1.1-34.75,1.41-13.08.34-26.14.84-39.21,1.61-11.8.7-23.59,1.53-35.39,2.32-11.28.75-22.56,1.56-33.81,2.7s-22.63,2.73-33.91,4.35c-23.16,3.32-46.35,6.43-69.52,9.68-11.38,1.59-22.74,3.3-34.13,4.83-12.16,1.63-24.31,3.13-36.53,4.3-11.3,1.08-22.62,2-33.91,3.28q-17.22,1.92-34.47,3.65-9.6,1-19.18,2.09c-5.73.67-11.44,1.62-17.13,2.53-6,1-11.92,2-17.87,3-5.21.91-10.44,1.84-15.6,3q-6.84,1.5-13.68,3c.5-.82,1-1.65,1.49-2.48,3.34-5.63,6.6-11.31,9.92-16.95s6.8-11.32,10.55-16.77c3.9-5.66,8-11.19,12.1-16.69,2.93-3.92,5.81-7.87,8.68-11.84,1.34-.92,2.68-1.84,4-2.78,2.24-1.59,4.39-3.28,6.56-5a144.15,144.15,0,0,0,12.73-11.48,122.26,122.26,0,0,0,9.82-11.13c2.47-3.11,4.86-6.28,7.14-9.53,2.54-3.62,5-7.26,7.4-11a156.72,156.72,0,0,0,7.49-13.78c.23-1,.45-2.09.68-3.13a11.94,11.94,0,0,0-1.14-6.14c-.07-.14-.16-.28-.23-.42Zm233.93-244.74c.12-.68.25-1.36.4-2,6.25,4.59,12.57,9.07,18.76,13.73l6.94,5.23c-1.12.32-2.26.59-3.41.8a43.61,43.61,0,0,1-7.75,0,45.52,45.52,0,0,1-7.34-1.91,33.57,33.57,0,0,1-4.17-2.36,21.67,21.67,0,0,1-1.6-1.58,23.89,23.89,0,0,1-1.22-2.07,23.62,23.62,0,0,1-.75-3A37.9,37.9,0,0,1,1579.74,1371.62Zm162,135.23a36.36,36.36,0,0,1,4.55-2.74q9.24,7,18.5,14,10.86,8.24,21.94,16.13c-.55.89-1.11,1.77-1.72,2.63a50.07,50.07,0,0,1-6.18,6.09,58.24,58.24,0,0,1-9.64,5.66,51.72,51.72,0,0,1-9.42,2.64,39.08,39.08,0,0,1-7,0,34.12,34.12,0,0,1-15.45-6.39,34,34,0,0,1-3.46-3.43,28.65,28.65,0,0,1-1.93-3.36,34.53,34.53,0,0,1-1.44-5.48,38.21,38.21,0,0,1,0-6.68,39.44,39.44,0,0,1,1.92-7.06,41.53,41.53,0,0,1,3.91-6.65A40.6,40.6,0,0,1,1741.78,1506.85ZM1280.2,769.74a44.79,44.79,0,0,1,3.56-7.66,39.83,39.83,0,0,1,4.46-5.24,49.17,49.17,0,0,1,8-5.45,72.55,72.55,0,0,1,14.9-5.54,68.08,68.08,0,0,1,7.8-1.1c.06.11.14.21.21.32,1.52,2.16,4.33,4.32,7.07,4.55,4.77.4,9.51,1.08,14.29,1.49,7.19.62,14.38,1.35,21.33,3.36a45,45,0,0,1,6.63,3c.68.51,1.33,1,2,1.6l.48.67c.09.24.18.48.26.73s.05.52.07.79-.12.64-.19,1a26.07,26.07,0,0,1-1.33,2.64,47.59,47.59,0,0,1-4.72,6,63.09,63.09,0,0,1-7.55,5.61c-1.89,1.16-3.86,2.19-5.82,3.23a60.29,60.29,0,0,1-8.77,3.6c-1.67.53-3.35,1-5,1.51-2.25.67-4.54,1.22-6.83,1.75-4.58.84-9.15,1.58-13.78,2.13a136.21,136.21,0,0,1-18.28,1.08,38.71,38.71,0,0,1-7-1.37,54.31,54.31,0,0,1-8.82-4.1,21,21,0,0,1-1.72-1.4,26,26,0,0,1-1.6-2.33c-.29-.67-.55-1.35-.77-2s-.15-1.47-.18-2.21A39.9,39.9,0,0,1,1280.2,769.74ZM1222.05,1003c1.76-10.79,3.37-21.6,5-32.41.87-5.61,1.73-11.22,2.74-16.8s2.24-11.37,3.47-17c1-4.82,2.35-9.62,3.67-14.37q2.44-8.85,5-17.65,4.35-15.06,8.25-30.23c2.67-10.35,5.17-20.75,7.94-31.07,3-11.09,6-22.16,8.73-33.33.73-3,1.4-6,2-9,.6.48,1.22.93,1.85,1.36a65.05,65.05,0,0,0,11.56,6.23c2.22.91,4.56,1.62,6.85,2.32a30.94,30.94,0,0,0,5,1.11,74.69,74.69,0,0,0,7.48.45c2.15.08,4.31,0,6.45-.08,2.87-.1,5.73-.34,8.59-.53a162.15,162.15,0,0,0,16.72-2.25c3.63-.62,7.23-1.56,10.8-2.47,2.64-.67,5.26-1.44,7.88-2.23,5.29-1.6,10.11-4.45,15-7a68.15,68.15,0,0,0,5.91-3.42c1.69-1.13,3.26-2.44,4.85-3.7.93-.74,1.82-1.5,2.69-2.29-5,12.49-9.66,25.09-14.69,37.55q-6.57,16.21-13.29,32.38c-4,9.54-8.06,19-11.88,28.64-8,20.28-16.39,40.46-23.67,61-4,11.4-8.12,22.77-11.73,34.31-3.18,10.19-5.76,20.58-8.78,30.82-2.67,9.08-5.32,18.15-7.88,27.26a22.43,22.43,0,0,1-2,1.63c-1.34,2.1-2.74,4.17-4.18,6.21a175.46,175.46,0,0,1-11,13.9,62.81,62.81,0,0,1-9.45,8.09,78.22,78.22,0,0,1-14.64,6.81c-9.94,2.89-20,5.37-30.07,7.67-4,.9-7.9,1.81-11.86,2.7.35-1.75.71-3.49,1.07-5.24,1.34-6.54,2.6-13.1,3.91-19.65,1-4.07,1.76-8.19,2.6-12.27l.45-2.23c1.62-7.17,3.44-14.28,5.34-21.38a6.14,6.14,0,0,0-.3-3.65Q1220.41,1013.13,1222.05,1003Zm-21.61-22.46,4,.2q-2,10.69-4.11,21.36c-1.35,4.23-2.54,8.51-3.51,12.83-1.14,5.1-2.08,10.24-2.87,15.41l-.72,4.7-2.19,9.47q-1.15,5.1-2.35,10.19l-1,4.18c-.22,1-.44,1.94-.65,2.92-.18.77-.32,1.55-.44,2.33a23.86,23.86,0,0,0-.23,3.68c.23,1.15.49,2.29.77,3.43l.07.15-.9,4.81c-.74,3.9-1.33,7.82-2,11.73-.23,1.41-.41,2.82-.57,4.23-10.44,2-20.89,4-31.4,5.58-.2-1.11-.4-2.22-.62-3.33-.41-2-.81-4.11-1.2-6.16,2.37-9.18,4.72-18.37,7.32-27.49,3.1-10.91,6-21.85,9.66-32.59q2.9-8.57,5.81-17.11c1.78-5.19,3.63-10.34,5.24-15.58,1.52-5,2.86-10,4.24-15l1.15,0C1189.5,980.42,1195,980.29,1200.44,980.56Zm22.91-411.85q2.88-1,5.8-1.85l.31.36c1.47,1.6,4,3.06,6.26,2.91a84.35,84.35,0,0,1,12.11.2,11.62,11.62,0,0,0-3.14,1.29,13.36,13.36,0,0,0-2,1.45,10.41,10.41,0,0,0-4.22,1.1,8.93,8.93,0,0,0-2.69,2.25,7.1,7.1,0,0,0-1.88,3c-.1.61-.21,1.23-.32,1.84a6.81,6.81,0,0,0,.54,3,8.19,8.19,0,0,0,1.87,3.37,8.6,8.6,0,0,0,3.39,2.49,29.65,29.65,0,0,0,4,1.62,46.88,46.88,0,0,0,6,1.34l3.44.59a48.73,48.73,0,0,0,5.13.54l1.5.1a28.91,28.91,0,0,0,4.55-.18,11.5,11.5,0,0,0,3.59-1,12.56,12.56,0,0,0,3.23-.37,11.28,11.28,0,0,0,5-2.75,10.23,10.23,0,0,0-3.52-17.21c2.21.26,4.41.54,6.61.9,2.37.47,4.72,1,7,1.72a4.88,4.88,0,0,0,4,2.43,4.66,4.66,0,0,0,1.8-.27,29.75,29.75,0,0,1,3.2,2c.53.51,1,1,1.52,1.61q.45.76.84,1.56c.11.44.22.88.31,1.32s0,.64,0,1c-.15.5-.31,1-.49,1.47a22.19,22.19,0,0,1-1.35,2.11,23.9,23.9,0,0,1-2.16,2,33.08,33.08,0,0,1-4.78,2.44,96.47,96.47,0,0,1-14.89,3.19c-2.27.35-4.58.51-6.87.71l1.09-.1c-2.77.14-5.55.4-8.32.42s-5.75.17-8.61,0-5.55-.14-8.31-.41c-3.92-.38-7.82-.74-11.7-1.35a68.92,68.92,0,0,1-14.2-4.33,39.31,39.31,0,0,1-5.66-3.52c-.51-.47-1-1-1.48-1.46.57-3.13,1.13-6.27,1.65-9.4a5.6,5.6,0,0,0,0-1.87c.23-.17.44-.36.67-.53A60.77,60.77,0,0,1,1223.35,568.71Zm-61.1,178.64c1.76-5.66,3.53-11.3,5.23-17s3.26-11.35,4.85-17,3.36-11.52,5.06-17.27c1.62-5.46,3.07-11,4.69-16.42,3.4-11.5,7.88-22.63,11.9-33.92,3.5-9.82,6.46-19.88,9.16-30,1.07-4,2.07-8,3-12.06a54.47,54.47,0,0,0,6.94,3.79,79.71,79.71,0,0,0,21.56,6.23c2.68.41,5.36.94,8.06,1.21s5.37.68,8.06.81,5.54.39,8.3.41a185.39,185.39,0,0,0,18.71-.52c4.21-.4,8.39-.76,12.56-1.56,1.17-.22,2.33-.5,3.48-.81-1.83,4.77-3.72,9.51-5.71,14.22-2.18,5.16-4.11,10.42-6.11,15.66-1.94,5.05-4,10.05-5.91,15.13-2,5.62-4,11.26-6.06,16.87-1.9,5.22-4,10.37-6,15.56q-6.08,15.79-12.3,31.53c-4.25,10.72-8.9,21.26-13.28,31.93-2.19,5.34-4.38,10.69-6.62,16-2.16,5.16-4.38,10.31-6.35,15.55s-4,10.76-6.06,16.13c-2,5.21-4,10.41-5.82,15.67-3.83,11.05-7.79,22-12.08,32.92-4.06,10.33-8.29,20.57-12,31q-5.89,16.59-11.63,33.23c-3.71,10.74-6.94,21.65-10.24,32.53-1.65,5.44-3.31,10.87-4.9,16.33-1.53,5.3-2.91,10.65-4.41,16q-2.44,8.63-5.29,17.1c-1.76,5.25-3.63,10.46-5.4,15.7s-3.71,10.68-5.37,16.07-3.18,10.87-4.71,16.32c-3.09,11-6.16,22-9,33.11q-3,11.9-6.39,23.7l-2.85.3c-18.59,1.83-37.24,3-55.86,4.51,1.44-5.15,3-10.27,4.43-15.43,3.13-11.39,6-22.85,8.94-34.27,1.42-5.44,3-10.84,4.56-16.24,1.69-5.9,3.36-11.8,5.09-17.68,3.34-11.37,6.71-22.72,9.87-34.15s5.81-22.78,8.64-34.18,5.7-22.92,8.58-34.37q8.73-34.71,18.43-69.19c3.27-11.6,6.92-23.08,10.43-34.6,1.75-5.73,3.24-11.54,4.79-17.32,1.5-5.59,3.07-11.17,4.64-16.74C1155.16,770.52,1158.66,758.91,1162.25,747.35Zm-207.1-58.92a7.74,7.74,0,0,1-.07-.83c0,.28,0,.55.07.83Zm60.94-17.18,0,.11a8.51,8.51,0,0,0-1.8,2.85l-.34.35c0-.76.05-1.52,0-2.29s-.05-1.61-.08-2.42c0-.29,0-.59-.06-.88.57.32,1.13.66,1.68,1,.17.17.34.35.5.53l.14.26Zm-.86,24.38,1.38-.6c.2,1.39.32,2.8.47,4.2l.89,7.9c.85,7.47,1.53,15,2.26,22.44.93,11.34,1.71,22.67,2.77,34,.88,9.37,1.93,18.72,3,28.06l-.54-1.19q.69,4.62,1.43,9.24l.06.11c2.19,18.73,4.33,37.47,6.22,56.24q1.29,16.31,2.15,32.63c.59,11.35,1.57,22.66,2.61,34l.57,6.14c1,11.71,2.06,23.43,3.35,35.12.53,4.74,1.27,9.47,2,14.18q1.42,9.1,2.88,18.2,2.55,15.94,5.43,31.84c1,5.48,2,11,3.11,16.45-1.1,4-2.18,8-3.2,12q-4,15.76-8.27,31.45c-.62,2.24-1.32,4.46-2,6.68s-1.29,4.71-1.89,7.09c-.31-1.21-.63-2.42-.94-3.62s-.64-2.51-1-3.76c-.22-.86-.37-1.74-.56-2.61a8.66,8.66,0,0,0-.49-1.57c-.27-.72-.54-1.43-.8-2.15a18.72,18.72,0,0,0-1.52-2.1,6.68,6.68,0,0,0-1.05-1q-.69-3.12-1.42-6.24c-1.26-5.37-2.56-10.73-3.78-16.11q-3.59-15.93-7.85-31.67c-2.86-10.61-6-21.15-8.82-31.76-.77-2.85-1.49-5.7-2.19-8.56.07-.1.15-.19.22-.3-.2-.33-.36-.68-.54-1-1.73-7.16-3.31-14.36-4.86-21.57-4.64-21.65-8.64-43.44-13.34-65.08-2.16-10-4.72-19.81-6.95-29.75-2.58-11.51-5-23-7.23-34.61q-6.32-32.08-11.55-64.36c-1.64-10.15-3.2-20.31-4.78-30.47-.82-5.32-1.71-10.64-2.38-16Q957,718.46,956,709.38c-.08-.73-.15-1.46-.23-2.19a6.06,6.06,0,0,0,5.58,1.64l2.74-.61c.87,0,1.74.07,2.62.09A85.4,85.4,0,0,0,991,705.2c1.37-.38,2.7-.88,4-1.32,1.69-.55,3.34-1.15,5-1.8C1005.13,700.06,1010.19,697.87,1015.23,695.63ZM1111.68,406c3.28-10.51,6.48-21,9.18-31.7,1.64-6.49,3.36-12.95,5.05-19.43a124.73,124.73,0,0,0,14.42,1.75l2.54.13c.21,1.61.43,3.22.64,4.83,1.45,11.06,2.72,22.13,4.37,33.16,1.17,7.79,2.3,15.62,3.64,23.38a10,10,0,0,0,2.19,4.62c-.06.68-.12,1.35-.19,2a5.84,5.84,0,0,0-3.45-1.33l-1.56.14a6,6,0,0,0-2.65,1.39l-2,1.5a20.6,20.6,0,0,0-4.16,4.18,23,23,0,0,0-2.22,4.37c-.28.62-.55,1.24-.82,1.86-.66,1.51-1.33,3-2,4.54l-.15,0c-.79-.18-1.58-.34-2.38-.44a8.36,8.36,0,0,0-4,1,10.36,10.36,0,0,0-3.4,3.19c-.42.54-.77,1.11-1.14,1.68-.27-.7-.54-1.4-.82-2.09l-.34-.48a5.87,5.87,0,0,0-2-2.17,13.34,13.34,0,0,0-2-.91,5.66,5.66,0,0,0-7,3.13q-3.76-5.19-7.54-10.36C1106.11,424.49,1108.79,415.2,1111.68,406ZM1088,753.65c.64-14.67,1.34-29.32,2.33-44,.49-7.22,1.05-14.44,1.54-21.67.47-7,.75-14,1.07-21,.63-13.66,1.25-27.32,1.69-41q.7-22.17,1.46-44.37c.46-13.83.82-27.66,1.36-41.49.57-14.62,1.81-29.23,2.9-43.82q1.67-22.19,2.74-44.38c1.46,2,2.92,4,4.36,6a13.1,13.1,0,0,0,3,3.58,7.32,7.32,0,0,0,4.3,1.38,5.87,5.87,0,0,0,2.47-.47,5.78,5.78,0,0,0,.48.33,8.75,8.75,0,0,0,8.43.4,16.24,16.24,0,0,0,4.9-3.77c.31-.34.62-.68.92-1a7.76,7.76,0,0,0,1.4.54,6.88,6.88,0,0,0,3.63.15,14,14,0,0,0,2.17-.86c1.5-.7,2.48-2.14,3.5-3.36a14.52,14.52,0,0,0,1.65-2.93c.73-1.46,1.39-2.95,2-4.45,1.34-3.17,2.59-6.37,3.95-9.53.18-.34.36-.67.55-1a8.08,8.08,0,0,1,.76-1.08c.25-.28.51-.55.77-.83-.2,1.74-.4,3.48-.62,5.22-.66,5.42-1.35,10.83-2.11,16.24-.67,4.78-1.47,9.53-2.28,14.29-1.29,7.25-2.61,14.49-3.62,21.79-1.09,7.91-2.11,15.83-3.16,23.74s-2.06,15.75-2.95,23.64c-.86,7.57-1.56,15.16-2.36,22.74s-1.69,15.08-2.47,22.62c-.81,7.74-1.33,15.51-2,23.27-.58,7.08-1.19,14.18-1.61,21.27-.47,7.89-.79,15.78-1.07,23.68q-.79,22.51-1.94,45c-.41,8-1,16-1.61,24-.53,7-.94,14-1.43,21-1,15.22-2.55,30.42-3.2,45.66q-.46,10.85-.87,21.69-.86,2.88-1.77,5.75c-3.62,11.34-7,22.73-10.19,34.19q-9.74,34.79-18.41,69.85-1.2,4.86-2.42,9.71l-1-2.48c-.3-.76-.62-1.51-.94-2.26,0-1,0-1.9,0-2.85q-.06-21.84.71-43.66c.45-13.39.66-26.78.8-40.17.15-14.11.57-28.22.85-42.33C1087,782.26,1087.39,768,1088,753.65Zm-121.51-477c1.09-5.47,2.41-10.88,3.77-16.29,1.23-4.85,2.6-9.65,3.84-14.48,1.42-5.52,2.75-11,4-16.61.14-.62.27-1.25.41-1.88,2.22.3,4.44.56,6.68.68a55.57,55.57,0,0,0,7.3,0,42,42,0,0,0,7.86-1.45c.37-.1.73-.23,1.1-.35.31,1.09.63,2.18.93,3.27,2.92,10.45,5.56,21,8.41,31.42,1.38,5.05,2.75,10.14,4.54,15.07,1.92,5.27,3.82,10.57,6,15.74l1.23,2.9,1.2,2.3-.57.17c-.86.41-1.68.86-2.49,1.35a18.21,18.21,0,0,0-1.8,1.6,18,18,0,0,0-2.46,3.45c-.51.82-1,1.66-1.47,2.5l0,0a25.15,25.15,0,0,0-3-2.82,13.75,13.75,0,0,0-2.92-1.7,10.25,10.25,0,0,0-4.81-.72,8.87,8.87,0,0,0-6.46,3.95c-.82,1.26-1.53,2.52-2.23,3.83-.28.53-.57,1.05-.86,1.57l-.16-.2c-.75-1-1.49-1.94-2.32-2.85a12.26,12.26,0,0,0-3.66-3.06,5.64,5.64,0,0,0-2-.56,6.29,6.29,0,0,0-3.33.27,6,6,0,0,0-3,1.94,8.72,8.72,0,0,0-1.84,3.59c-.27.82-.44,1.67-.64,2.51-.11.5-.24,1-.37,1.48l-1.5-1.51q-3-3-6-5.9c-1.61-1.58-3.3-3.05-5-4.49,0-.19,0-.38,0-.57a5.7,5.7,0,0,0-2.17-4.06Q964.5,286.65,966.5,276.63Zm31,36.62-.17,0,0,0ZM985.7,479.89c-1.51-10.95-3-21.91-4.64-32.85s-3.32-21.73-4.71-32.63-2.7-22.06-4-33.11c-1.23-10.71-2.54-21.42-3.63-32.14-.67-6.59-1.39-13.17-1.91-19.77q-.5-6.31-1-12.64,2.28,2.37,4.52,4.79c1.15,1.28,2.31,2.58,3.51,3.82a7.5,7.5,0,0,0,5.92,2.3,8.73,8.73,0,0,0,3.47-1.38c.58-.5,1.13-1,1.66-1.56s.85-1.22,1.23-1.85c.23-.44.45-.88.65-1.32l.14.17a16.21,16.21,0,0,0,2.63,2.67,6.82,6.82,0,0,0,2,1.19,8.57,8.57,0,0,0,4.11.74,11.86,11.86,0,0,0,4.73-1.67,18.07,18.07,0,0,0,3-2.7,16.81,16.81,0,0,0,1.52-2.13c.5-.77,1-1.53,1.48-2.32l.81.86a15.16,15.16,0,0,0,3.71,3.1,9.46,9.46,0,0,0,8.24.21,14.39,14.39,0,0,0,5.43-4.42c.63-.8,1.16-1.7,1.72-2.55.72-1.09,1.41-2.2,2.1-3.31.23,3.38.47,6.76.69,10.14.7,10.73,1.09,21.48,1.27,32.24.19,11.53.31,23.06.47,34.59.14,10.17.52,20.34.94,30.5,1,22.39,2,44.77,4.13,67.08,1,10.56,2.21,21.12,4,31.57,1.86,10.92,3.72,21.82,5.45,32.75,1.68,10.55,3.3,21.11,5.08,31.65,1.83,10.87,3.68,21.73,5.37,32.62s3.42,21.9,5.39,32.8c2,11.11,4.14,22.19,6.13,33.29.53,3,1,6,1.53,8.92q-.42,5.4-.89,10.79c-1.2,14.07-2.23,28.13-2.94,42.23-.72,14.36-1.45,28.73-1.8,43.1s-.78,28.46-1.1,42.69c-.32,13.79-.25,27.57-.73,41.35,0,.77,0,1.55-.08,2.32-1.93-4.56-3.86-9.12-5.83-13.66q-1.11-11-2.61-22c-1.46-10.87-2.89-21.75-4.53-32.6-1.72-11.4-3.54-22.79-5.22-34.2-1.52-10.34-2.47-20.75-3.8-31.1-1.45-11.27-3-22.51-4.57-33.76q-.93-6.83-1.82-13.66c-.28-2-.7-4.06-1.06-6.09-.55-3.23-1.12-6.44-1.79-9.65a7.65,7.65,0,0,0-.62-1.8c0-.18.07-.36.11-.54a13.47,13.47,0,0,0,.35-3.5,14.65,14.65,0,0,0-2.29-7.35,23,23,0,0,0-2.13-2.78,24.14,24.14,0,0,0-8.53-5.5,27.39,27.39,0,0,0-5.2-1.74q-.74-5.36-1.51-10.7c-1.57-10.69-3.46-21.33-5.25-32s-3.66-21.44-5.43-32.18c-1.86-11.28-3.49-22.58-5.06-33.9C991.68,522.19,988.61,501.05,985.7,479.89Zm11.07,187.34c2.67,1.84,5.48,4.35,6.73,6.57.09.17.19.34.29.51a13.59,13.59,0,0,1,2.75,5,9,9,0,0,1,.38,1.14c-1,.67-2,1.33-3,2-2,.61-4,1.25-5.93,1.9-2.48.83-4.91,1.77-7.4,2.59-1.82.59-3.63,1.2-5.47,1.7a73.72,73.72,0,0,1-11.5,2.15,62.81,62.81,0,0,1-13.29-.29,27.09,27.09,0,0,1-4-1.19l-.3-.17c.72-1.05,1.49-2.07,2.28-3.05a46.61,46.61,0,0,1,6.68-6c1.83-1.23,3.74-2.41,5.68-3.48a6.19,6.19,0,0,0-.51,1.5,6.56,6.56,0,0,0-.14,3.46,8.23,8.23,0,0,0,1.88,3.36,7.19,7.19,0,0,0,3.93,2.21,6.24,6.24,0,0,0,2.38.29l2.4-.22c1.43-.16,2.84-.49,4.25-.78a34.09,34.09,0,0,0,7.12-2.09,4.72,4.72,0,0,0,1-.58,11.85,11.85,0,0,0,1.54-1.12,7,7,0,0,0,2.13-4.55,5.3,5.3,0,0,0-.11-2,7.27,7.27,0,0,0-1.45-2.75,6.5,6.5,0,0,0-3.34-2.72,8,8,0,0,0-3-.51l-1.21-.2a8,8,0,0,0-1.4-.11c-.23,0-.46,0-.7,0A71.66,71.66,0,0,1,996.77,667.23ZM772.65,330c-1.67-10.21-3.3-20.42-5.12-30.61a26.32,26.32,0,0,0,8.07,2.23,21.27,21.27,0,0,0,5.58,0,25.76,25.76,0,0,0,6.24-1.8,55.16,55.16,0,0,0,5-2.55,15.24,15.24,0,0,0,3.1-2.24l1.18,2q4.54,7.76,9.18,15.45c1.46,2.42,3.1,4.74,4.65,7.1s3,4.4,4.57,6.59c2.78,4,5.65,7.88,8.57,11.75.82,1.08,1.63,2.16,2.48,3.21,1.41,1.78,3,3.42,4.5,5.09a52.67,52.67,0,0,0,6,5.12,10.93,10.93,0,0,0,4.81,2.2,8.37,8.37,0,0,0-1.89,2.7c-.59,1.38-1.21,2.78-1.89,4.14-.44,0-.87.07-1.31.13a12.68,12.68,0,0,0-5.46,1.95,11.05,11.05,0,0,0-4.21,4.62,14.62,14.62,0,0,0-1.14,8.12c.08.7.16,1.4.23,2.1.13,1.15.25,2.31.36,3.47-.56-.35-1.13-.68-1.72-1a19,19,0,0,0-3.48-1.18c-1-.05-2.07-.11-3.11-.15a5.68,5.68,0,0,0-2.8.71,9.38,9.38,0,0,0-3.94,2.77,7.72,7.72,0,0,0-1.57,2.29,15,15,0,0,0-1,4.11,58.89,58.89,0,0,0-.07,6.51c.24,5.51.37,11,.29,16.53-.88-.49-1.76-1-2.62-1.54a43,43,0,0,1-6.74-5.6,135.74,135.74,0,0,1-9.28-12.57,7.51,7.51,0,0,0-10.29-1.87q-1.43-13.86-2.78-27.74C776,351.22,774.39,340.59,772.65,330Zm42.09,83.9a3.18,3.18,0,0,1-.62,0h0ZM808.3,416h0l-.13.11ZM952.14,842.09c-4.66-11.21-8.86-22.61-13.5-33.84q-3.75-9.06-7.58-18.09c-2.38-5.6-4.89-11.14-7.22-16.77s-4.67-11.53-7.06-17.27c-2.55-6.12-5.18-12.21-7.82-18.29-5.1-11.76-10.16-23.53-15-35.39s-9.61-23.78-14.46-35.65-9.34-23.91-13.94-35.89c-9.07-23.61-18.23-47.19-27.83-70.6-4.81-11.74-9.27-23.62-13.7-35.51q-3.43-9.22-6.73-18.47c-2-5.67-3.72-11.46-5.38-17.24-3.55-12.31-6.91-24.67-10.48-37-3.34-11.51-6.64-23-9.76-34.58a45,45,0,0,0,4.51,3.74c1.21.89,2.47,1.7,3.72,2.53,2.08,1.39,4.19,2.7,6.33,4a20,20,0,0,0,5.48,2.32c1,.07,1.91.11,2.87.12a10.43,10.43,0,0,0,4.82-1.78,14.26,14.26,0,0,0,4.25-4.76,22.72,22.72,0,0,0,2.42-8.83c.15-1.33.21-2.66.3-4q.24-3.75.34-7.52a19.1,19.1,0,0,0,2.66.85,18.78,18.78,0,0,0,4,.3c2.42,0,4.52-1.18,6.53-2.3a12.54,12.54,0,0,0,2.82-2.58l.45-.65a15.42,15.42,0,0,0,1.74-2.85,16.41,16.41,0,0,0,1.49-5.75,54.48,54.48,0,0,0,.12-7.34c-.05-1.09-.12-2.19-.23-3.28,0-.23,0-.45-.07-.68a22.17,22.17,0,0,0,2.81-1.48c.27-.23.52-.47.77-.7q7.37,25.92,15.08,51.75c3.59,11.89,7.45,23.71,11.26,35.54,4.35,13.46,8.72,26.89,13.38,40.25,4.42,12.68,9,25.3,13.49,38q3.43,9.71,6.9,19.4c.88,2.47,1.81,4.92,2.73,7.38,1.13,3,2.18,6,3.38,9,5.11,12.63,10.36,25.21,15.32,37.89s9.66,25.38,14.5,38.07q2.73,7.18,5.47,14.36c-.79.64-1.57,1.29-2.31,2A45.33,45.33,0,0,0,942,678.5c-1.58,2.3-3.24,4.74-3.78,7.52a14.6,14.6,0,0,0-.21,5.51,13.69,13.69,0,0,0,1.1,3.83,15,15,0,0,0,1.56,2.83q1.1,11.28,2.15,22.58c1,11.56,2.22,23.11,3.37,34.65,1,10.49,1.87,21,3,31.45,1.18,10.75,2.37,21.51,3.88,32.22,1.62,11.47,3.42,22.91,5.3,34.34.3,1.84.63,3.67,1,5.5C956.91,853.33,954.49,847.73,952.14,842.09Zm15.48,159.19.28-.63c6.51-.79,13-1.48,19.54-2.13,1.14,4.75,2.34,9.5,3.64,14.21,2.91,10.49,5.91,21,8.55,31.52q1.92,7.65,3.73,15.33c1,4.44,2,8.91,3,13.35.14.64.3,1.29.45,1.93l-2.13-3.23c-2.94-4.47-5.95-8.89-8.89-13.36-3.09-4.69-6.09-9.44-9.12-14.18q-12.37-19.41-25.31-38.47a6.54,6.54,0,0,0,2.94-.65A6.86,6.86,0,0,0,967.62,1001.28ZM678.35,667.69c-3.35-10.33-6.35-20.75-9.48-31.14-.41-1.35-.83-2.68-1.27-4a7.47,7.47,0,0,0,5.23.1,12.87,12.87,0,0,0,3.88-2.51,7.49,7.49,0,0,0,3.19-2.3,10.66,10.66,0,0,0,.85-1.26c.31-.3.63-.61.92-.93a1.66,1.66,0,0,0,.16-.21q7.67,9.83,15.31,19.64c6.76,8.72,13.43,17.51,20.39,26.07,3.07,3.79,6.13,7.57,9.22,11.34,1.32,1.61,2.65,3.23,4.06,4.77s2.66,2.94,4.12,4.29a7.69,7.69,0,0,0,1,.76,35.66,35.66,0,0,0,4.19,2.54,9.8,9.8,0,0,0,4.7,1c-.15,1.13-.27,2.26-.46,3.39a8.59,8.59,0,0,0-.94,1.06,12.2,12.2,0,0,0-2.17,5,15.71,15.71,0,0,0-.13,3.58q0,.79.09,1.56c.09,1.42.18,2.82.18,4.22,0,.18,0,.35-.07.53l-.2.14a17.46,17.46,0,0,0-4.7,5.35c-.62,1-1.12,2.12-1.69,3.18l-.12.14-.06,0a42.24,42.24,0,0,1-4.16-1.06c-1.12-.38-2.23-.76-3.35-1.11a19.47,19.47,0,0,0-2.8-.71,11,11,0,0,0-7.69,1.49,9,9,0,0,0-2.08,1.91,9.9,9.9,0,0,0-1.86,3.88,17.21,17.21,0,0,0-.46,2c-.19.93-.36,1.86-.56,2.79-2.24-.93-4.42-2-6.59-3.08-3.28-1.59-6.53-3.27-9.78-4.93-.13-.07-.27-.12-.41-.18-.8-3.19-1.62-6.37-2.42-9.56-1.26-5.06-2.52-10.12-4-15.13Q683.65,683.92,678.35,667.69Zm66.39,31-.06.26,0,0Zm-.45,1.13h0l-.12.19Zm-2.56,14.79a3.58,3.58,0,0,1-.11.35h0ZM839.51,933q-8.26-13.28-16.74-26.43c-5.8-9-11.54-18-17.49-26.86-6.11-9.09-12.25-18.13-18.56-27.08q-10-14.16-19.76-28.44c-5.9-8.63-11.34-17.57-17.39-26.1-3.14-4.44-6.2-8.94-9.45-13.28s-6.58-8.83-9.92-13.21q-9.29-12.14-18.6-24.24a9.67,9.67,0,0,0,6-.8,18.21,18.21,0,0,0,2.73-1.66,16.63,16.63,0,0,0,2.23-2.13,15,15,0,0,0,2.53-4.27c.11-.28.22-.56.32-.85,2,.8,4.09,1.42,6.15,2a13.89,13.89,0,0,0,8.1-.17,18.05,18.05,0,0,0,7.31-4.62,27.29,27.29,0,0,0,3.9-6c.13-.16.26-.32.4-.47A15.58,15.58,0,0,0,756,723.2a17.85,17.85,0,0,0,1.61-5.39,31.27,31.27,0,0,0,.17-5.12,22.81,22.81,0,0,0-.24-2.49q2.64,3.84,5.23,7.73,5.34,8.1,10.7,16.19c3.13,4.75,6.07,9.63,9.11,14.44s5.69,9.59,8.52,14.39,5.48,9.63,8.21,14.45q8,14.05,16,28.12,8.31,14.58,16.61,29.18c5.38,9.46,10.94,18.8,16.52,28.14,5.34,8.92,10.94,17.7,16.19,26.67q8.45,14.46,16.77,29,8.56,14.93,17.09,29.87c5.08,8.88,10.07,17.83,15.46,26.53C917,980,920.19,985,923.44,990c3.1,4.76,6.26,9.47,9.41,14.19q9,13.51,17.88,27.15c5.84,9,11.55,18,17.22,27,3,4.78,6,9.57,9,14.3,2.81,4.34,5.68,8.62,8.49,13,2.95,4.54,5.9,9.09,8.78,13.68,1.34,2.13,2.67,4.29,4,6.42a22.45,22.45,0,0,0,2,3c.8.89,1.68,2.11,2.57,2.91l-13.67,1c-6.3.47-12.61.84-18.92,1.21l-1,0c-5-6.24-10.06-12.48-15.25-18.58l-1.14-1.25a6.65,6.65,0,0,0-3-1.44,7,7,0,0,0-.8-.09c-.69-.95-1.39-1.9-2.1-2.84l-5.4-7.09c-3.07-4-6.16-8-9.23-12.05-3.31-4.32-6.61-8.65-10-12.87s-7-8.49-10.31-12.84c-7-9-13.55-18.24-19.88-27.69-6-8.9-11.58-18-17.18-27.16C863.21,971,851.35,952,839.51,933Zm-14.25,138.75a71.21,71.21,0,0,1,4.71-11.36c1-1.93,2.08-3.84,3.17-5.75a62.45,62.45,0,0,1,5.05-7.55c.66-.84,1.36-1.64,2.08-2.45a145.52,145.52,0,0,1,11.37-11.12l4-3.36c1.29-1.09,2.72-2.05,4.07-3.06,1.79-1.35,3.66-2.59,5.52-3.84l4.51-2.77c.53.89,1,1.78,1.57,2.67,5.58,9.43,11.6,18.57,17.81,27.59s12.95,17.47,19.48,26.16c4.37,5.81,8.64,11.72,13,17.58l6.62,9c1,1.39,2.08,2.76,3.23,4.06,2,2.26,3.88,4.6,6.69,6l.23.1,1.35,1.49c-5,.09-9.94.22-14.89,0l-9-.35c-3-.11-5.91-.41-8.87-.62-5.93-.41-11.86-1-17.79-1.52-5.75-.52-11.42-1.44-17.11-2.38-2.31-.52-4.62-1-6.89-1.73l-6-1.85A71.82,71.82,0,0,1,848,1102a73.16,73.16,0,0,1-12.54-8.5,59.5,59.5,0,0,1-7.33-8.6,36.2,36.2,0,0,1-2.46-5,30.84,30.84,0,0,1-.74-4.15A29.56,29.56,0,0,1,825.26,1071.72ZM1193,1725.22q-11.67,5.1-23.56,9.62c-7.07,2.69-14.23,5.15-21.38,7.64-9.55,3.12-19.13,6.12-28.89,8.59-10.9,2.76-21.87,5.49-33,7.36-6,1-12,2-18,2.82-5.08.72-10.18,1.19-15.28,1.7-4.68.22-9.35.42-14,.48-6,.06-12.06,0-18.09,0q-7.61,0-15.21-.29c-3-.1-6.07-.11-9.09-.3-3.24-.21-6.48-.44-9.72-.66-7.27-.48-14.53-1.53-21.76-2.42-6.73-.83-13.38-2.09-20-3.36-3.46-.83-6.94-1.61-10.35-2.64l-8.28-2.49c-2-.59-3.86-1.37-5.78-2.06-4.4-1.57-8.69-3.35-13-5.15-3.44-1.43-6.78-3.13-10.13-4.77-3-1.63-6-3.2-8.88-5.06l-7.19-4.69c-1.53-1-3-2.15-4.46-3.25s-3.33-2.36-4.89-3.66l-6.27-5.21c-2.54-2.11-5-4.34-7.44-6.55-10.76-10.23-21.17-20.8-31.73-31.24l-.36-2.52c-.43-3.15-.89-6.3-1.29-9.46q-1.41-11.13-2.56-22.28c-1.4-13.29-2-26.67-2.81-40,0-.25,0-.49,0-.74-.26-6.51-.5-13-.62-19.53s-.14-12.83-.23-19.24c-.18-13.84-.47-27.66-1-41.48-.45-12.5-1.14-25-1.68-37.49q-.94-22.12-2.13-44.23c-.12-2.16-.23-4.32-.35-6.48-.62-12.42-1.3-24.86-1.56-37.31-.28-13.9-.52-27.8-.85-41.7s-.57-27.84-.61-41.77c0-12.43.17-24.86.07-37.29-.1-13.34-.24-26.68.13-40q.57-21.15.93-42.3c.21-12.56.64-25.09,1-37.64.41-14.06.53-28.12.5-42.19,0-3.81,0-7.61-.1-11.42a78.92,78.92,0,0,0,8.66,8.59,64.62,64.62,0,0,0,9.48,6.78,115.88,115.88,0,0,0,11.49,6,68.24,68.24,0,0,0,8.46,3.35c2.59.8,5.19,1.76,7.83,2.37,3.63.84,7.28,1.86,11,2.47,2.77.46,5.54,1.06,8.33,1.38l8.7,1c5.6.65,11.25,1,16.87,1.46,5.36.44,10.71.74,16.08,1,10.48.4,21,.17,31.51-.27,11.78-.5,23.56-1.1,35.33-1.89q17.09-1.14,34.14-2.58c10.28-.85,20.54-1.93,30.81-2.83l1,.26.4-.2c.12-.06.23-.14.35-.21,21.37-1.84,42.78-3.25,64.15-5.19,11.39-1,22.72-2.27,34-3.83,10.26-1.41,20.49-3.21,30.65-5.2q16.1-3.15,32.07-6.79c5.39-1.23,10.79-2.43,16.16-3.73,5.18-1.26,10.41-2.43,15.53-3.93,4.67-1.37,9.31-2.74,13.88-4.41a77.45,77.45,0,0,0,21.37-12.17c5-4,9.11-8.93,13.19-13.81,1.56-1.87,3.08-3.77,4.54-5.71l.18-.24h0l1.85-1c.21-.53.42-1,.65-1.57.34-.79.71-1.56,1.1-2.33.33-.46.65-.93,1-1.41l.1-.16,0,2.06c-.11,6-.18,12-.36,18-.18,6.38-.43,12.76-.53,19.14-.1,6.64-.31,13.28-.21,19.93s.17,13.44.36,20.17c.36,13.43.7,26.86.43,40.29-.27,13.89-.74,27.78-1,41.68-.28,13.22-.14,26.44,0,39.66.13,13.66.77,27.32,1.15,41,.08,2.74.07,5.46.07,8.2,0,3.1.07,6.21,0,9.31-.16,6.91-.31,13.82-.5,20.73q-1.12,40.89-1.39,81.82c-.11,13,0,26.08-.07,39.12s-.3,26.29-.43,39.43c-.13,13.36.11,26.73.45,40.09.33,13,1.38,25.9,1.8,38.86.26,8,.55,16,.49,24s-.07,15.9-.37,23.84a12.74,12.74,0,0,0,.65,4.67q-5.16,7-10.29,14c-8.1,11.1-16.25,22.16-24.22,33.34-1.5,2.11-3,4.2-4.5,6.3-4.5,3.07-9,6.08-13.6,9.08-4.72,3-9.46,5.87-14.26,8.71s-10,5.51-15.06,8.15C1212.8,1716.32,1202.92,1720.87,1193,1725.22Zm478.76,69.28c-12,1-24,2.25-36,3.65-11.14,1.3-22.29,2.79-33.35,4.61-23.47,3.87-46.83,8.21-70.17,12.79-12.22,2.39-24.45,4.72-36.65,7.15-11.88,2.37-23.74,4.75-35.66,6.88-5.49,1-11,1.78-16.54,2.65s-11.1,1.78-16.64,2.65c-12.21,1.92-24.44,3.61-36.69,5.26-8.57,1.14-17.12,2.32-25.7,3.4-7.41.93-14.86,1.39-22.31,1.85-11.86.57-23.73,1.09-35.58,1.92-11.64.81-23.27,1.76-34.89,3q-15.66,1.61-31.29,3.56c-.25-5-.78-9.95-1.23-14.92-.61-6.69-1-13.37-1.4-20.07q-.59-14.11-1.1-28.23c12.37-2.85,24.77-5.55,37.31-7.57,11.78-1.89,23.58-3.84,35.46-5,11.61-1.19,23.25-2.09,34.87-3.25s23.5-2.49,35.27-3.48c12.48-1,24.93-2.17,37.37-3.55,10.89-1.2,21.74-2.88,32.59-4.39,24-3.33,48-6.53,72-9.86,11.07-1.53,22.13-3.15,33.21-4.62,11.36-1.5,22.8-2.53,34.22-3.38q27.27-2,54.58-3.61c11-.5,22-.76,33-1.14,11.94-.42,23.87-1,35.81-1.52,8.57-.38,17.14-.73,25.7-1.12,1.07,17,2.09,33.93,3.65,50.85C1718.29,1790.29,1695,1792.56,1671.77,1794.5Zm203-180.77C1867.57,1625,1860,1636,1853,1647.27c-6.81,10.93-13.35,22-20.08,33s-13.21,22.07-19.83,33.1c-6.26,10.42-12.58,20.8-19.07,31.08-3.37,5.34-6.69,10.7-10,16.06-3.84,6.17-7.67,12.35-10.48,19.08a9.88,9.88,0,0,0-.73,3.89c-1.08,1.64-2.1,3.3-3.13,5a1.29,1.29,0,0,1-.09.16l-1-.19a10.38,10.38,0,0,0-1.25-.13c.54-6.76.44-13.59.39-20.35,0-4.27-.13-8.55-.21-12.82,0-2.93-.22-5.86-.44-8.78a20.53,20.53,0,0,0-1.63-6.4,11.24,11.24,0,0,0,4.54-2.65,11.55,11.55,0,0,0,13.56-13.51c-.32-1-.63-1.9-1-2.84a10.5,10.5,0,0,0-.61-1.09c2.7-4.39,5.43-8.78,7.85-13.33,5.63-10.62,11-21.38,16.48-32.07,6.44-12,13.19-23.85,20-35.69,6.45-11.24,12.27-22.81,18.45-34.2,3.73-6.91,7.54-13.77,11.34-20.64,8.55,5.75,17.18,11.4,25.74,17.14l.69.45C1879.89,1605.6,1877.34,1609.68,1874.75,1613.73ZM1977,1627.19c10.2,7.43,20.56,14.62,30.81,22,5.38,3.85,10.63,7.87,15.86,11.91-4.44-2.14-8.87-4.32-13.24-6.61-2.76-1.55-5.51-3.11-8.12-4.9-3.4-2.33-6.82-4.65-10.11-7.13a10.09,10.09,0,0,0-5.09-2l-2.82-1.86c-10.14-6.76-20.19-13.66-30.31-20.44-9.74-6.53-19.68-12.7-29.74-18.73q-8-4.79-15.89-9.63c-4.65-2.83-9.16-5.89-13.68-8.93-10.16-6.82-20.42-13.51-30.55-20.38-9.45-6.42-18.93-12.89-28.07-19.74-9.57-7.15-19-14.46-28.79-21.33q-15.09-10.62-29.77-21.75c-19.22-14.56-38.32-29.25-57.19-44.26q-13.9-11.07-27.52-22.51c-8.78-7.4-17.32-15-25.88-22.69a646.23,646.23,0,0,0-55.5-44.58c-9.89-7.05-19.9-13.9-29.67-21.11-9.31-6.87-19-13.24-28.49-19.81l-6.39-4.4c2.17-3,4.31-6.11,6.44-9.18,2-2.86,3.78-5.9,5.65-8.85,3.86-6.09,7.61-12.22,11.13-18.5,1.65,1.76,3.29,3.54,4.94,5.3,4,4.27,8,8.61,12.1,12.75l7.86,7.89c2.68,2.69,5.55,5.22,8.34,7.79,4.22,3.89,8.61,7.6,13,11.36q7.61,6.56,15.17,13.17,14.47,12.74,29.06,25.32,28.8,24.65,58.18,48.58,28.58,23.25,56.06,47.8,14.7,13.1,29.53,26c9.18,8,18.23,16.2,27.39,24.24,9.43,8.25,18.69,16.7,28.27,24.78,4.89,4.12,10,8,15,11.91s10,7.88,14.94,11.88c4.76,3.87,9.49,7.78,14.24,11.66s9.67,7.64,14.54,11.41c9.52,7.36,19.31,14.36,28.92,21.6C1957.39,1612.6,1967.13,1620,1977,1627.19Zm152.76-424.72c-3.3,5.47-6.77,10.83-10.29,16.17-7.23,10.95-15.1,21.44-22.75,32.11-3.79,5.3-7.31,10.81-10.92,16.23q-5.05,7.63-10,15.32c-3.44,5.33-6.86,10.67-10.38,16-3.67,5.49-7.38,11-11,16.48-7.09,10.81-13.76,21.88-20.69,32.8-7.17,11.31-14.42,22.57-21.48,34-3.51,5.65-6.83,11.44-10.2,17.18-3.2,5.45-6.49,10.84-9.8,16.22s-6.62,10.82-9.86,16.28-6.46,11.26-9.67,16.9c-6.25,11-12.77,21.79-18.86,32.86s-12.2,22.13-18.51,33.08c-6.5,11.27-13.25,22.38-20,33.52l-1.16,1.93c-6.22-5.07-12.42-10.17-18.73-15.13-3.06-2.4-6.14-4.78-9.21-7.17q4.2-7.46,8.47-14.88c6.78-11.86,13.42-23.8,20.27-35.61q10-17.24,20-34.45c1.84-3.15,3.8-6.23,5.7-9.35,1.41-2.3,2.77-4.63,4.24-6.9,3.61-5.6,7.17-11.23,10.85-16.78,15.56-23.45,31-47,46.79-70.26,4-5.93,8-11.88,12-17.83,3.65-5.46,7.14-11,10.68-16.55,3.26-5.09,6.36-10.28,9.69-15.33l6.36-9.61c2.08-3.15,4.35-6.19,6.52-9.28l11.2-15.93c3.68-5.22,7.16-10.59,10.68-15.92,4.14-6.28,8.36-12.49,12.62-18.69,3.57-5.2,7.42-10.23,11.19-15.28,8.3-11.16,16.49-22.38,24.79-33.53q5.55-7.44,10.56-15.23c1.08,4.5,2.16,9,3.28,13.49,1.19,4.8,2.42,9.58,3.65,14.37.47,1.84,1,3.69,1.56,5.53Q2133.72,1195.88,2129.77,1202.47Z"/><path class="cls-1" d="M1347.1,1711.14a45.73,45.73,0,0,0,3.75,5.2,34.79,34.79,0,0,0,4.06,4.26c6.28,5.7,14,9.48,22.06,12.06a68.33,68.33,0,0,0,10.77,2.47,66.19,66.19,0,0,0,13.77.8,69.1,69.1,0,0,0,12.14-1.82,65.74,65.74,0,0,0,12.5-4.66,46.25,46.25,0,0,0,8.54-5.26c1.79-1.39,3.54-2.75,5.19-4.3a47.72,47.72,0,0,0,5.06-5.93,53.34,53.34,0,0,0,5.59-9.21,83.4,83.4,0,0,0,4.71-12.13,68.51,68.51,0,0,0,2.34-12.14,28.13,28.13,0,0,0,.08-5.11,45.72,45.72,0,0,0-1.32-8.22,39.46,39.46,0,0,0-1.7-4.94c-.89-2.21-1.85-4.39-2.93-6.51a36.68,36.68,0,0,0-2.54-4.16,49.08,49.08,0,0,0-5-6.13,47,47,0,0,0-5.59-4.66,49.89,49.89,0,0,0-4.58-3,63.5,63.5,0,0,0-12.38-5.51,35.79,35.79,0,0,0-5.21-1.21,68.92,68.92,0,0,0-7.59-.9c-.5,0-1,0-1.51,0-1.3,0-2.59.09-3.88.2a66,66,0,0,0-8.51,1.3,54.86,54.86,0,0,0-9.61,3.47,36.89,36.89,0,0,0-8.42,5.39c-.47.37-.93.75-1.39,1.13-.76.3-1.5.61-2.25.93a44.37,44.37,0,0,0-9.53,5.89,53.78,53.78,0,0,0-8.46,8c-5,6-8.15,13.19-10.46,20.57a62.59,62.59,0,0,0-2.31,10.21,49.48,49.48,0,0,0-.49,6.19,36.42,36.42,0,0,0,.82,7.13A35.63,35.63,0,0,0,1347.1,1711.14Zm9.09-27.05a72.24,72.24,0,0,1,1.85-8.62,10.07,10.07,0,0,0,2.73,2.32,10.54,10.54,0,0,0,8.07,1.06l2.5-1.06a10.54,10.54,0,0,0,3.68-3.62c1.43-1.65,2.89-3.27,4.43-4.83l3.72-3.78c1.27-1.28,2.52-2.58,3.83-3.83,1-.9,2-1.76,3-2.58a36.11,36.11,0,0,1,5.47-3.27,47,47,0,0,1,7.74-2.08,43.32,43.32,0,0,1,7.64,0c1.23.22,2.45.48,3.66.81a34.79,34.79,0,0,1,3.81,1.28c.89.42,1.76.85,2.63,1.31,0,.19-.09.39-.13.58a3,3,0,0,0,2.06,3.61,3.07,3.07,0,0,0,3.16-1.07l.1.07a35.34,35.34,0,0,1,3.64,3.6,43.6,43.6,0,0,1,3.65,6.41,36.16,36.16,0,0,1,1.68,5.76,33.78,33.78,0,0,1-.08,5.51,67.33,67.33,0,0,1-3.7,13.21,54.21,54.21,0,0,1-4.9,8.65,43.44,43.44,0,0,1-5.46,5.39,52.78,52.78,0,0,1-9.07,5.24,56.08,56.08,0,0,1-10.8,3,59,59,0,0,1-12.67-.07,69.93,69.93,0,0,1-14.51-3.84,50.83,50.83,0,0,1-8.83-5.06,38.7,38.7,0,0,1-4.8-4.78,33.29,33.29,0,0,1-3-5,30.85,30.85,0,0,1-1.41-5.08A44.22,44.22,0,0,1,1356.19,1684.09Z"/><path class="cls-1" d="M1557.48,1626.4a36.86,36.86,0,0,0-6.42-.64c-.63,0-1.28,0-1.92.07a61.57,61.57,0,0,0-7.41,1.1,32.39,32.39,0,0,0-4.9,1.45,28.19,28.19,0,0,0-12,8c-.39.45-.77.92-1.13,1.4a47.32,47.32,0,0,0-12.24,6.45,53,53,0,0,0-15.89,17.62,61.67,61.67,0,0,0-2.71,6.11c-.7,1.75-1.27,3.56-1.81,5.37a43.52,43.52,0,0,0-1.28,6.7,37.76,37.76,0,0,0-.33,6.46,35.65,35.65,0,0,0,3.24,12.75,43.58,43.58,0,0,0,16,18.29,36.21,36.21,0,0,0,4.57,2.51,48.37,48.37,0,0,0,19.75,4.71,71.28,71.28,0,0,0,14-.91,68.86,68.86,0,0,0,10.89-2.45,71,71,0,0,0,6.75-2.65c1.64-.71,3.23-1.49,4.79-2.35a63.55,63.55,0,0,0,10.24-7.31,57.23,57.23,0,0,0,13.68-18.76,124.42,124.42,0,0,0,4.79-11.65,32.08,32.08,0,0,0,1.21-7,11.42,11.42,0,0,0,0-2.41,31,31,0,0,0-.8-4.89,32.71,32.71,0,0,0-1.79-4.54c-.36-.87-.76-1.72-1.17-2.57a33,33,0,0,0-3.55-5.36c-1.49-2-3-3.9-4.62-5.75-1.16-1.31-2.38-2.56-3.6-3.8s-2.6-2.6-3.95-3.86c-1.84-1.71-3.87-3.21-5.87-4.73a48.37,48.37,0,0,0-4.41-3,43.36,43.36,0,0,0-6.83-3A27.81,27.81,0,0,0,1557.48,1626.4Zm15.76,39a34.78,34.78,0,0,1,2.79,4.6c.1.3.19.61.28.91,0,.11,0,.21,0,.31a27.82,27.82,0,0,1-1.08,3.59c-.56,1.52-1.11,3-1.7,4.53-.77,1.72-1.58,3.41-2.47,5.07a42.16,42.16,0,0,1-3,4.63,46.79,46.79,0,0,1-6.22,6.13,54.18,54.18,0,0,1-8.78,5.11,66.66,66.66,0,0,1-13.26,3.52,55.47,55.47,0,0,1-11.23.17,44.07,44.07,0,0,1-7.58-2,38.71,38.71,0,0,1-5.8-3.39,40.56,40.56,0,0,1-4.85-4.87,33.2,33.2,0,0,1-2.84-4.81,30.31,30.31,0,0,1-1.3-4.61,37.11,37.11,0,0,1,.07-6.83,54.57,54.57,0,0,1,2.87-10.76,46.16,46.16,0,0,1,4.69-8c.6-.74,1.21-1.47,1.84-2.17a10.73,10.73,0,0,0,5.06,7.52,10.49,10.49,0,0,0,8,1l2.49-1a10.5,10.5,0,0,0,3.73-3.73,24.25,24.25,0,0,1,2.56-4.41l.42-.55,1.64-2a13.54,13.54,0,0,1,1.53-1.59c.55-.35,1.11-.68,1.69-1a37.06,37.06,0,0,1,5.71-1.36,27.74,27.74,0,0,1,3.76-.07c.49.1,1,.22,1.45.34a14.5,14.5,0,0,1,1.24,2.17,8.3,8.3,0,0,1,.34,1.07,17.72,17.72,0,0,1-.12,4.05c-.09.61-.19,1.22-.31,1.84a1.87,1.87,0,0,0,1.29,2.25,1.83,1.83,0,0,0,2.25-1.28c.28-1.49.5-3,.64-4.49a12.61,12.61,0,0,0-.07-3.37c.94.59,1.86,1.21,2.77,1.86,2.15,1.8,4.14,3.78,6.13,5.76A77.74,77.74,0,0,1,1573.24,1665.37Z"/><path class="cls-1" d="M1694.41,1616.07a29,29,0,0,0-12.74.08,27.26,27.26,0,0,0-4.75,1.57,48.77,48.77,0,0,0-5.59,2.7,44.52,44.52,0,0,0-9.63,7.6c-5.87,6-9.37,13.79-11.57,21.8a84.39,84.39,0,0,0-2.22,12.32c-.23,1.86-.37,3.7-.43,5.57a48,48,0,0,0,.61,8.46,33.64,33.64,0,0,0,12.36,21.46,43.44,43.44,0,0,0,6.11,4.14,59.83,59.83,0,0,0,6.86,3,49.58,49.58,0,0,0,14.12,2.69,65.63,65.63,0,0,0,13.57-.9,50,50,0,0,0,11.57-3.17,75.42,75.42,0,0,0,8.36-3.88,62.82,62.82,0,0,0,8.41-5.8,49.79,49.79,0,0,0,11.57-13.46,64.65,64.65,0,0,0,4.27-9.21,51.59,51.59,0,0,0,2.39-7.86,66.57,66.57,0,0,0,1.48-10.53,40.66,40.66,0,0,0-.93-10.55,17.75,17.75,0,0,0-1-3.17,40,40,0,0,0-2.71-5.77,44.11,44.11,0,0,0-3.44-4.66c-.92-1.15-1.87-2.26-2.88-3.34a60.88,60.88,0,0,0-5.57-5.2,39.32,39.32,0,0,0-8.21-5.48,35.56,35.56,0,0,0-5.28-2,41.81,41.81,0,0,0-6.57-1,27.68,27.68,0,0,0-3.14-.18,32.08,32.08,0,0,0-6.57.72,24.8,24.8,0,0,0-5,1.93A17.94,17.94,0,0,0,1694.41,1616.07Zm9,28.71a6.68,6.68,0,0,0,12.88-3.55c-.5-1.61-1-3.23-1.48-4.83.62.37,1.23.77,1.84,1.18a55.6,55.6,0,0,1,6.61,6.59,26.24,26.24,0,0,1,1.57,2.59,21.74,21.74,0,0,1,.58,2.14,38.1,38.1,0,0,1-.11,5.85,55.16,55.16,0,0,1-2.78,10.18,46.47,46.47,0,0,1-4,7,41.66,41.66,0,0,1-5,4.9,55.49,55.49,0,0,1-8.92,5.17,54.28,54.28,0,0,1-10.09,2.71,52.18,52.18,0,0,1-9.68.09,40.18,40.18,0,0,1-6.92-1.87,32.45,32.45,0,0,1-4.44-2.54,29.23,29.23,0,0,1-2.56-2.54,26.93,26.93,0,0,1-1.77-3,34.55,34.55,0,0,1-1.22-4.73,62.39,62.39,0,0,1,.31-12.74,59,59,0,0,1,3.08-12,38,38,0,0,1,3.4-5.82,39.73,39.73,0,0,1,5.06-5.07,36.51,36.51,0,0,1,5-3,11.16,11.16,0,0,0,3.16,6.43,11.37,11.37,0,0,0,13.82,1.55C1702.4,1641.19,1702.9,1643,1703.46,1644.78Z"/><path class="cls-1" d="M1613.32,1548.61a58,58,0,0,0,11.68,4.8,65.77,65.77,0,0,0,14.2,2.38,55.21,55.21,0,0,0,13.45-1A49,49,0,0,0,1666,1550a68.16,68.16,0,0,0,13-9.13,99.27,99.27,0,0,0,10.75-10.66,69.28,69.28,0,0,0,5.64-7.47,48.78,48.78,0,0,0,4.12-8.59,35.51,35.51,0,0,0,2.15-9.5,31.84,31.84,0,0,0-.59-9.82,18.91,18.91,0,0,0-1-3.1,54.42,54.42,0,0,0-2.21-5,20.9,20.9,0,0,0-1.92-2.94c-1.11-1.52-2.29-3-3.52-4.43a42.93,42.93,0,0,0-5.07-4.93,62,62,0,0,0-8.15-5.79,63.09,63.09,0,0,0-8.27-3.81,25.06,25.06,0,0,0-9.5-2H1661a32.93,32.93,0,0,0-5.49.74,27.34,27.34,0,0,0-5.33,2.1,35,35,0,0,0-4.37,2.2c-.68,0-1.35.1-2,.17a45.3,45.3,0,0,0-11.52,2.9,57.86,57.86,0,0,0-10.41,5.21,61.59,61.59,0,0,0-9.68,7.82,74.53,74.53,0,0,0-7.63,8.92,49.82,49.82,0,0,0-6,11,45.52,45.52,0,0,0-3,11.83,32.62,32.62,0,0,0,1,13.47C1599.26,1537.72,1605.66,1544.3,1613.32,1548.61Zm.89-35.46a46.56,46.56,0,0,1,2.5-9,58.22,58.22,0,0,1,6.26-10.41,55,55,0,0,1,7.83-8,52.24,52.24,0,0,1,7.92-4.78,11,11,0,0,0,1.27,3.3,11.3,11.3,0,0,0,15.3,4c.59-.34,1.18-.66,1.78-1s1.17-.43,1.75-.62a4.17,4.17,0,0,0,3.79,2.55,4,4,0,0,0,2.85-1.19,43.9,43.9,0,0,1,5.62,3.39,45.58,45.58,0,0,1,5.27,5.22,26.52,26.52,0,0,1,1.52,2.56c.18.57.35,1.14.49,1.72,0,.78,0,1.56,0,2.34a33.26,33.26,0,0,1-1.32,4.58,43,43,0,0,1-3.71,6.14,87.86,87.86,0,0,1-13,13,50.75,50.75,0,0,1-8.34,5,41.77,41.77,0,0,1-7.12,1.9,52.39,52.39,0,0,1-9.86-.11,55.1,55.1,0,0,1-10.27-2.71,37.51,37.51,0,0,1-5.57-3.11,28.64,28.64,0,0,1-2.55-2.5,23.15,23.15,0,0,1-1.51-2.6,25.71,25.71,0,0,1-.89-3.26A36.2,36.2,0,0,1,1614.21,1513.15Z"/><path class="cls-1" d="M1459.57,1538.83a22.39,22.39,0,0,0,2.43,4.36,36.17,36.17,0,0,0,4.37,5.11,43.59,43.59,0,0,0,6.08,4.75,36.56,36.56,0,0,0,4.78,2.57q3.27,1.52,6.68,2.7a58.7,58.7,0,0,0,13.72,2.62,52.58,52.58,0,0,0,12.34-.63,58,58,0,0,0,10.87-2.64,86.57,86.57,0,0,0,21-10.62,64.46,64.46,0,0,0,9.78-8,61.42,61.42,0,0,0,4.53-5.64,39.21,39.21,0,0,0,2.82-4.48,93.9,93.9,0,0,0,5.41-12,58,58,0,0,0,3-10.42,43.58,43.58,0,0,0,.66-13,57.33,57.33,0,0,0-1.24-7.47,39.88,39.88,0,0,0-2.7-6.89,24.74,24.74,0,0,0-2.7-4.43,35.34,35.34,0,0,0-4.69-5.37A57.2,57.2,0,0,0,1551,1465a38.15,38.15,0,0,0-4.57-2.71c-2.28-1.16-4.69-2.1-7-3.08-1.7-.71-3.41-1.36-5.16-2a62,62,0,0,0-10.12-2.66,36.23,36.23,0,0,0-5.73-.57c-.5,0-1,0-1.52.06a43.84,43.84,0,0,0-4.83.68,21.07,21.07,0,0,0-4.52,1.67c-4.2,1.94-7,5.46-9.72,9.07a11,11,0,0,0-1.25,3.29c-1.44.72-2.83,1.49-4.19,2.3a65.65,65.65,0,0,0-9.13,7,93.9,93.9,0,0,0-8.52,8.64c-5.22,5.89-10.25,12.25-13.54,19.44a46.47,46.47,0,0,0-4.53,18.6,40.07,40.07,0,0,0,.71,7.8A28.23,28.23,0,0,0,1459.57,1538.83Zm15.5-20.35a45.51,45.51,0,0,1,2.38-8.54,91.07,91.07,0,0,1,10.78-17.44,76.63,76.63,0,0,1,11.62-12l1.09-.79a10.94,10.94,0,0,0,13.83-1.18c.25-.25.51-.48.76-.72l.53-.33h0c.92,0,1.83,0,2.74,0a67,67,0,0,1,6.55,1.71c1.94.61,3.85,1.26,5.74,2,0,.82-.08,1.63-.16,2.45-.34,2.35-.75,4.7-1.14,7a3,3,0,0,0,2.08,3.66,3,3,0,0,0,3.67-2.08c.47-2.77,1-5.54,1.4-8.33.93.54,1.83,1.14,2.71,1.77a27.82,27.82,0,0,1,2.41,2.32,28.45,28.45,0,0,1,1.66,2.89,29.89,29.89,0,0,1,1,4.14,36.82,36.82,0,0,1,0,5.94,64.3,64.3,0,0,1-3.61,12.13,54.85,54.85,0,0,1-5,9,44.86,44.86,0,0,1-6,5.72,78.93,78.93,0,0,1-14.22,8.29,59,59,0,0,1-11.87,3.35,49,49,0,0,1-9.54,0,50.56,50.56,0,0,1-9.28-2.53,36.49,36.49,0,0,1-5.22-3,28.64,28.64,0,0,1-2.56-2.49,25,25,0,0,1-1.56-2.71,24.75,24.75,0,0,1-.94-3.5A38.38,38.38,0,0,1,1475.07,1518.48Z"/><path class="cls-1" d="M1826.83,1347.46a93.77,93.77,0,0,0-18.88,13.48,62.91,62.91,0,0,0-7.63,8.59,47.94,47.94,0,0,0-5.69,9.77,37.81,37.81,0,0,0-2.11,6,42,42,0,0,0-.93,6.6,28.26,28.26,0,0,0,.55,6.62,26.61,26.61,0,0,0,1.6,5.76,39.75,39.75,0,0,0,3,6.17,37.67,37.67,0,0,0,4.15,5.28,34.42,34.42,0,0,0,5,4.29,27.08,27.08,0,0,0,5,2.91,40.7,40.7,0,0,0,11.35,3.49,58.56,58.56,0,0,0,13.49.5,69.76,69.76,0,0,0,12.43-2.2,58,58,0,0,0,12.06-5,44.07,44.07,0,0,0,5-3.31c2.14-1.59,4.22-3.26,6.21-5a68.2,68.2,0,0,0,9.23-10.76A48.47,48.47,0,0,0,1887,1388a32.23,32.23,0,0,0,1.39-6.15,47.1,47.1,0,0,0,.58-9.41,45.75,45.75,0,0,0-1.24-8.21,50,50,0,0,0-3-7.75c-1.9-4.47-5-8.34-7.94-12.12a40.12,40.12,0,0,0-9.47-8.15,9.6,9.6,0,0,0-5.27-1.5,11.33,11.33,0,0,0-7.91,3.21,10.42,10.42,0,0,0-1.52,1.93,28.45,28.45,0,0,0-3-.11,35,35,0,0,0-11.16,2.37A85.08,85.08,0,0,0,1826.83,1347.46Zm22.14,4.41a19.6,19.6,0,0,1,2.66-.09,10.52,10.52,0,0,1,1.1.3l.12.06c.15.26.29.51.43.78.32.94.61,1.89.9,2.85a6,6,0,0,0,5.82,4.34,51,51,0,0,1,4.61,7.71,32.31,32.31,0,0,1,1.35,4.73,36,36,0,0,1,0,5.69,37.27,37.27,0,0,1-1.55,5.68,47.31,47.31,0,0,1-4.29,7.13,59.41,59.41,0,0,1-7.8,7.9,48.27,48.27,0,0,1-7.8,4.55,54.47,54.47,0,0,1-10.63,2.82,49.4,49.4,0,0,1-9.34.09,35.31,35.31,0,0,1-5.79-1.54,27.09,27.09,0,0,1-3.49-2,28.16,28.16,0,0,1-2.9-2.88,29.18,29.18,0,0,1-2.06-3.5,25.79,25.79,0,0,1-1.09-4,26.46,26.46,0,0,1,.06-4.27,33.87,33.87,0,0,1,1.77-6,49.89,49.89,0,0,1,5-8.4,69.85,69.85,0,0,1,10.81-10.59,80,80,0,0,1,15.54-9.37A35,35,0,0,1,1849,1351.87Z"/><path class="cls-1" d="M1877.6,1270.31a27.78,27.78,0,0,0,2.42,4.24,33.54,33.54,0,0,0,9.51,9,36.75,36.75,0,0,0,5.88,2.87,42.31,42.31,0,0,0,5.27,1.76,46.79,46.79,0,0,0,6.84,1.17,41.8,41.8,0,0,0,6.13.26,35.52,35.52,0,0,0,11.83-2.43,55.72,55.72,0,0,0,6.07-2.82,50.73,50.73,0,0,0,6.49-4.5,52.94,52.94,0,0,0,4-3.45,44.2,44.2,0,0,0,4.44-5.22,36.56,36.56,0,0,0,3-4.63,57.55,57.55,0,0,0,3.26-7.51,38.06,38.06,0,0,0,1.83-7,40.44,40.44,0,0,0,.64-9.25,38.1,38.1,0,0,0-1.49-8.87,33.45,33.45,0,0,0-2.1-4.94,28,28,0,0,0-3.63-5.09,13.89,13.89,0,0,0-2.37-2.16,51.39,51.39,0,0,0-4.17-3,31.69,31.69,0,0,0-4.83-2.19,40.81,40.81,0,0,0-3.9-1.35,31.82,31.82,0,0,0-8.23-1.17h-.23a35.72,35.72,0,0,0-5,.62,22.38,22.38,0,0,0-3.51.83,10.21,10.21,0,0,0-5.32,3.72,36.38,36.38,0,0,0-5.79.41,27.2,27.2,0,0,0-10.44,4.22c-6.44,4.1-11.41,10.32-14.92,17a44.21,44.21,0,0,0-3.87,10.39,30.74,30.74,0,0,0,.08,13.33A27.82,27.82,0,0,0,1877.6,1270.31Zm11-17.56a40.14,40.14,0,0,1,2.11-7.59,43.88,43.88,0,0,1,4.52-7.83,37,37,0,0,1,5-5.13,29.33,29.33,0,0,1,4.54-2.72,24.14,24.14,0,0,1,4.27-1.19,10,10,0,0,0,4.35,5.26l2.37,1a10,10,0,0,0,4,.26c.2.75.39,1.5.59,2.26a4,4,0,0,0,7.92-1.08l.83.32a26.58,26.58,0,0,1,2.79,1.61c.26.25.51.49.76.75.27.44.53.88.77,1.34a26.26,26.26,0,0,1,.74,3,32.85,32.85,0,0,1,0,5,44.77,44.77,0,0,1-2.14,7.69,36.78,36.78,0,0,1-3,5.15,43.45,43.45,0,0,1-5.38,5.3,40.49,40.49,0,0,1-6,3.57,32.87,32.87,0,0,1-5.14,1.41,40.56,40.56,0,0,1-7.31,0,39.63,39.63,0,0,1-6.86-1.82,29.78,29.78,0,0,1-4-2.31,15.15,15.15,0,0,1-4.77-6.2,15.21,15.21,0,0,1-1-8Z"/><path class="cls-1" d="M1759.48,1258.82c.43,1.06.88,2.08,1.4,3.09a23.14,23.14,0,0,0,2.46,3.52,28.77,28.77,0,0,0,8.57,7.21,35.07,35.07,0,0,0,13,4,43.87,43.87,0,0,0,12-.47,50.06,50.06,0,0,0,11.24-3.19,60,60,0,0,0,10.39-5.2,49.16,49.16,0,0,0,9.72-8.12,62.28,62.28,0,0,0,7-9.37,61,61,0,0,0,5.72-11.25,13.29,13.29,0,0,0,.54-2.24,16.31,16.31,0,0,0,.32-4.82,23.89,23.89,0,0,0-.75-4.18,23.26,23.26,0,0,0-2-4.58,32,32,0,0,0-4.65-5.72,31,31,0,0,0-6.32-4.44,57.6,57.6,0,0,0-12.32-4.45,42.76,42.76,0,0,0-8-1.2h-.52a28.71,28.71,0,0,0-4.11.46,22,22,0,0,0-3,.68,9.37,9.37,0,0,0-5.16,3.86c-.4,0-.81,0-1.21.09a39.89,39.89,0,0,0-11.18,2.69,37.08,37.08,0,0,0-10.41,6.31,35.69,35.69,0,0,0-7,8.72,63.62,63.62,0,0,0-5.14,11.23,36.67,36.67,0,0,0-1.68,5.27,20.79,20.79,0,0,0-.41,6.39A20.57,20.57,0,0,0,1759.48,1258.82Zm11.77-9.84a46.55,46.55,0,0,1,2.69-8.62c.59-1.35,1.21-2.68,1.9-4a22.68,22.68,0,0,1,6-7.34,31.28,31.28,0,0,1,4.79-2.78,37.32,37.32,0,0,1,7.13-2c1-.1,2.07-.15,3.1-.16a8.54,8.54,0,0,0,1.3.93l2.16.91a9,9,0,0,0,4.53.07h.26c1.54.85,3,1.81,4.47,2.79a5.7,5.7,0,0,0,6.37-.31c.83.28,1.67.57,2.5.88a29.07,29.07,0,0,1,3.21,1.82c.46.42.91.86,1.34,1.32q.26.39.48.81c0,.12.07.24.11.37q-.16.67-.39,1.35a70.19,70.19,0,0,1-7,12.35,45,45,0,0,1-6.07,6,53.68,53.68,0,0,1-9.47,5.39,49.57,49.57,0,0,1-9.72,2.72,33.71,33.71,0,0,1-6.51,0,31.57,31.57,0,0,1-5.17-1.4,27.57,27.57,0,0,1-3.72-2.17,22.47,22.47,0,0,1-2.39-2.39,20.74,20.74,0,0,1-1.35-2.26,15.88,15.88,0,0,1-.59-2A20.49,20.49,0,0,1,1771.25,1249Z"/><path class="cls-1" d="M1676.23,1245.06a24.36,24.36,0,0,0,3.82,5.1,30.61,30.61,0,0,0,4.29,3.66,31.5,31.5,0,0,0,4.23,2.59,49.91,49.91,0,0,0,11.42,4.16,77.85,77.85,0,0,0,12.14,1.82,59.57,59.57,0,0,0,12.09-.14,50.36,50.36,0,0,0,6.2-1.12,33.33,33.33,0,0,0,5.79-2.24,24.39,24.39,0,0,0,4.25-2.69c1-.8,2-1.57,3-2.45a24.5,24.5,0,0,0,2.42-2.67,51,51,0,0,0,3.39-4.64,36.47,36.47,0,0,0,2.34-4.52,56,56,0,0,0,3.87-11.31,58.47,58.47,0,0,0,.86-5.87,26.07,26.07,0,0,0-.42-6.6,21.2,21.2,0,0,0-.49-2.37,27,27,0,0,0-1.54-3.74,14.31,14.31,0,0,0-1.31-2.23,41.23,41.23,0,0,0-2.54-3.25,26.17,26.17,0,0,0-4.4-3.73,30.43,30.43,0,0,0-4.35-2.62,58,58,0,0,0-6.09-2.55c-1.63-.61-3.28-1.15-5-1.65s-3.19-.84-4.81-1.17a35.31,35.31,0,0,0-6.25-.72h-.11a28.81,28.81,0,0,0-3.91.49,9,9,0,0,0-2.07.63c-.84.34-1.64.69-2.42,1.06a29.21,29.21,0,0,0-8,1.69,45.77,45.77,0,0,0-17.54,11.18,37.94,37.94,0,0,0-6,8.7,75.31,75.31,0,0,0-4.56,10.8,24.27,24.27,0,0,0-.93,5.48,18.34,18.34,0,0,0,.56,5.62A23.49,23.49,0,0,0,1676.23,1245.06Zm7.75-14a51.88,51.88,0,0,1,3.15-10.94,34.18,34.18,0,0,1,3.58-6.24,39.45,39.45,0,0,1,6.24-6.15,46.38,46.38,0,0,1,6.78-4.25,8.59,8.59,0,0,0,6.09,10.2,9,9,0,0,0,6.61-.86l.12-.07c.36-.12.73-.22,1.11-.32l.68,0c.73.14,1.45.32,2.16.52a1.24,1.24,0,0,0,.36,1.09,1.29,1.29,0,0,0,1.82,0l.34-.36,1.32.4c2.34.69,4.66,1.5,6.94,2.39a35.18,35.18,0,0,1,4.49,2.5c.45.41.87.84,1.27,1.28.22.34.42.67.62,1s.25.9.34,1.36a23.49,23.49,0,0,1,0,3.56,49.89,49.89,0,0,1-2.62,9.44,37.45,37.45,0,0,1-3.19,5.53,26,26,0,0,1-2.78,2.77,25.2,25.2,0,0,1-3.26,1.9,37.43,37.43,0,0,1-6.6,1.71,70.12,70.12,0,0,1-15.53,0,49.16,49.16,0,0,1-10.27-2.69,31.06,31.06,0,0,1-4.77-2.69,25.42,25.42,0,0,1-2.78-2.71,21.8,21.8,0,0,1-1.47-2.52,17.94,17.94,0,0,1-.7-2.51A25.12,25.12,0,0,1,1684,1231Z"/><path class="cls-1" d="M1414.05,1182.63l17.71,14.7c2,1.71,4.13,3.38,6.21,5.05,2.11,2.19,4.21,4.39,6.32,6.57,2.47,2.57,5,5.09,7.49,7.63.79.81,1.6,1.62,2.41,2.43,1.36,1.34,2.7,2.72,4.08,4,.58.59,1.12,1.22,1.74,1.78a4.7,4.7,0,0,0,1.09.67,2.19,2.19,0,0,0,1.84-.07,1.54,1.54,0,0,0,.93-1.25,2,2,0,0,0-.21-1.12c-.14-.25-.3-.48-.46-.71l2.78,2.18a2.51,2.51,0,0,0,4-2.38,2.16,2.16,0,0,0-.25-.74l.44.17a2.95,2.95,0,0,0,2.81-5.13,17.21,17.21,0,0,1-1.57-1.25c-2.81-2.84-5.55-5.76-8.32-8.65q-3.75-3.93-7.43-7.93c-5.57-6-10.93-12.23-16.3-18.44a3.91,3.91,0,0,0-2.93-1.37,3.53,3.53,0,0,0-2.21.78,3.69,3.69,0,0,0-.6,5.14q5.06,5.82,10.15,11.61c2.25,2.55,4.53,5.05,6.85,7.53,1.06,1.15,2.1,2.33,3.2,3.44l1.34,1.36q-7.65-6.3-15.32-12.55c-4.41-3.59-8.76-7.23-13.12-10.86l-9.47-7.89c-1.07-.9-2.14-1.79-3.19-2.71l-13-11.52-5.89-5.21c-2.27-2-4.44-4.11-6.65-6.19a2.72,2.72,0,0,0-1.79-.59,3.05,3.05,0,0,0-3,3.48l.21.76a3.14,3.14,0,0,0,1,1.27c1.89,1.78,3.73,3.62,5.68,5.33l2.63,2.33,9.55,8.44C1406.49,1176.08,1410.2,1179.44,1414.05,1182.63Zm47.46,39c-.25-.31-.51-.61-.78-.89l-.62-.62-.65-.66,2.78,2.17A1.64,1.64,0,0,0,1461.51,1221.6Z"/><text class="cls-2" transform="translate(882.23 1317.43)">G<tspan class="cls-3" x="211.89" y="0">r</tspan><tspan x="317.5" y="0">aphic</tspan><tspan class="cls-4" x="0" y="393.6">D</tspan><tspan x="219.75" y="393.6">esi</tspan><tspan class="cls-5" x="590.72" y="393.6">g</tspan><tspan x="772.1" y="393.6">n</tspan></text><text class="cls-6" transform="translate(884.23 1314.43)">G<tspan class="cls-7" x="211.24" y="0">r</tspan><tspan x="316.54" y="0">aphic</tspan><tspan class="cls-8" x="0" y="392.4">D</tspan><tspan x="219.08" y="392.4">esi</tspan><tspan class="cls-9" x="588.92" y="392.4">g</tspan><tspan x="769.74" y="392.4">n</tspan></text></g></svg>